G04 #@! TF.GenerationSoftware,KiCad,Pcbnew,8.0.7*
G04 #@! TF.CreationDate,2025-01-23T22:17:45+09:00*
G04 #@! TF.ProjectId,ch340_silial_release,63683334-305f-4736-996c-69616c5f7265,rev?*
G04 #@! TF.SameCoordinates,Original*
G04 #@! TF.FileFunction,Copper,L2,Bot*
G04 #@! TF.FilePolarity,Positive*
%FSLAX46Y46*%
G04 Gerber Fmt 4.6, Leading zero omitted, Abs format (unit mm)*
G04 Created by KiCad (PCBNEW 8.0.7) date 2025-01-23 22:17:45*
%MOMM*%
%LPD*%
G01*
G04 APERTURE LIST*
G04 #@! TA.AperFunction,ComponentPad*
%ADD10R,1.700000X1.700000*%
G04 #@! TD*
G04 #@! TA.AperFunction,ComponentPad*
%ADD11C,1.700000*%
G04 #@! TD*
G04 #@! TA.AperFunction,ComponentPad*
%ADD12C,3.500000*%
G04 #@! TD*
G04 #@! TA.AperFunction,ComponentPad*
%ADD13C,1.400000*%
G04 #@! TD*
G04 #@! TA.AperFunction,ComponentPad*
%ADD14O,1.400000X1.400000*%
G04 #@! TD*
G04 #@! TA.AperFunction,ComponentPad*
%ADD15C,1.600000*%
G04 #@! TD*
G04 #@! TA.AperFunction,ComponentPad*
%ADD16R,1.800000X1.800000*%
G04 #@! TD*
G04 #@! TA.AperFunction,ComponentPad*
%ADD17C,1.800000*%
G04 #@! TD*
G04 #@! TA.AperFunction,ComponentPad*
%ADD18O,1.700000X1.700000*%
G04 #@! TD*
G04 #@! TA.AperFunction,ViaPad*
%ADD19C,0.600000*%
G04 #@! TD*
G04 #@! TA.AperFunction,Conductor*
%ADD20C,0.200000*%
G04 #@! TD*
G04 APERTURE END LIST*
D10*
X107577500Y-61275000D03*
D11*
X107577500Y-58775000D03*
X105577500Y-58775000D03*
X105577500Y-61275000D03*
D12*
X102867500Y-66045000D03*
X102867500Y-54005000D03*
D13*
X135292800Y-58152266D03*
D14*
X140372800Y-58152266D03*
X140372800Y-55600600D03*
D13*
X135292800Y-55600600D03*
X113000000Y-65252600D03*
D14*
X113000000Y-60172600D03*
D13*
X140372800Y-60703932D03*
D14*
X135292800Y-60703932D03*
D13*
X140372800Y-63255600D03*
D14*
X135292800Y-63255600D03*
D15*
X123772000Y-64341000D03*
X118772000Y-64341000D03*
X123772000Y-61341000D03*
X118772000Y-61341000D03*
X127368000Y-54229000D03*
X127368000Y-59229000D03*
D16*
X130212800Y-56159400D03*
D17*
X132752800Y-56159400D03*
D16*
X130212800Y-62052200D03*
D17*
X132752800Y-62052200D03*
D10*
X147623900Y-54413200D03*
D18*
X147623900Y-56953200D03*
X147623900Y-59493200D03*
X147623900Y-62033200D03*
X147623900Y-64573200D03*
D16*
X113000000Y-55041800D03*
D17*
X113000000Y-57581800D03*
D19*
X146062400Y-61391800D03*
X120500000Y-57005000D03*
X116500000Y-55505000D03*
X116500000Y-56505000D03*
D20*
X114223200Y-58781800D02*
X116500000Y-56505000D01*
X107577500Y-58775000D02*
X107584300Y-58781800D01*
X107584300Y-58781800D02*
X114223200Y-58781800D01*
X115623200Y-56381800D02*
X116500000Y-55505000D01*
X107970700Y-56381800D02*
X115623200Y-56381800D01*
X105577500Y-58775000D02*
X107970700Y-56381800D01*
X144198600Y-63255600D02*
X146062400Y-61391800D01*
X140372800Y-63255600D02*
X144198600Y-63255600D01*
X140372800Y-60703932D02*
X146738932Y-60703932D01*
X146738932Y-60703932D02*
X148000000Y-61965000D01*
X131416200Y-63255600D02*
X130212800Y-62052200D01*
X135292800Y-63255600D02*
X131416200Y-63255600D01*
X130748268Y-56159400D02*
X130212800Y-56159400D01*
X135292800Y-60703932D02*
X130748268Y-56159400D01*
G04 #@! TA.AperFunction,Conductor*
G36*
X149442539Y-50520185D02*
G01*
X149488294Y-50572989D01*
X149499500Y-50624500D01*
X149499500Y-69375500D01*
X149479815Y-69442539D01*
X149427011Y-69488294D01*
X149375500Y-69499500D01*
X100624500Y-69499500D01*
X100557461Y-69479815D01*
X100511706Y-69427011D01*
X100500500Y-69375500D01*
X100500500Y-66822862D01*
X100520185Y-66755823D01*
X100572989Y-66710068D01*
X100642147Y-66700124D01*
X100705703Y-66729149D01*
X100741919Y-66783003D01*
X100784312Y-66907888D01*
X100914758Y-67172406D01*
X100914765Y-67172419D01*
X101078623Y-67417649D01*
X101107905Y-67451040D01*
X101884673Y-66674271D01*
X101978888Y-66803946D01*
X102108554Y-66933612D01*
X102238227Y-67027825D01*
X101461458Y-67804593D01*
X101494850Y-67833876D01*
X101740080Y-67997734D01*
X101740093Y-67997741D01*
X102004611Y-68128187D01*
X102283900Y-68222994D01*
X102283915Y-68222998D01*
X102573175Y-68280535D01*
X102573187Y-68280537D01*
X102867500Y-68299827D01*
X103161812Y-68280537D01*
X103161824Y-68280535D01*
X103451084Y-68222998D01*
X103451099Y-68222994D01*
X103730388Y-68128187D01*
X103994906Y-67997741D01*
X103994919Y-67997734D01*
X104240148Y-67833877D01*
X104273539Y-67804593D01*
X103496771Y-67027825D01*
X103626446Y-66933612D01*
X103756112Y-66803946D01*
X103850325Y-66674271D01*
X104627093Y-67451039D01*
X104656377Y-67417648D01*
X104820234Y-67172419D01*
X104820241Y-67172406D01*
X104950687Y-66907888D01*
X105045494Y-66628599D01*
X105045498Y-66628584D01*
X105103035Y-66339324D01*
X105103037Y-66339312D01*
X105122327Y-66045000D01*
X105103037Y-65750687D01*
X105103035Y-65750675D01*
X105045498Y-65461415D01*
X105045494Y-65461400D01*
X104974615Y-65252599D01*
X111794357Y-65252599D01*
X111794357Y-65252600D01*
X111814884Y-65474135D01*
X111814885Y-65474137D01*
X111875769Y-65688123D01*
X111875775Y-65688138D01*
X111974938Y-65887283D01*
X111974943Y-65887291D01*
X112109020Y-66064838D01*
X112273437Y-66214723D01*
X112273439Y-66214725D01*
X112462595Y-66331845D01*
X112462596Y-66331845D01*
X112462599Y-66331847D01*
X112670060Y-66412218D01*
X112888757Y-66453100D01*
X112888759Y-66453100D01*
X113111241Y-66453100D01*
X113111243Y-66453100D01*
X113329940Y-66412218D01*
X113537401Y-66331847D01*
X113726562Y-66214724D01*
X113890981Y-66064836D01*
X114025058Y-65887289D01*
X114124229Y-65688128D01*
X114185115Y-65474136D01*
X114205643Y-65252600D01*
X114185115Y-65031064D01*
X114124229Y-64817072D01*
X114120017Y-64808613D01*
X114025061Y-64617916D01*
X114025056Y-64617908D01*
X113890979Y-64440361D01*
X113781982Y-64340998D01*
X117466532Y-64340998D01*
X117466532Y-64341001D01*
X117486364Y-64567686D01*
X117486366Y-64567697D01*
X117545258Y-64787488D01*
X117545261Y-64787497D01*
X117641431Y-64993732D01*
X117641432Y-64993734D01*
X117771954Y-65180141D01*
X117932858Y-65341045D01*
X117932861Y-65341047D01*
X118119266Y-65471568D01*
X118325504Y-65567739D01*
X118545308Y-65626635D01*
X118707230Y-65640801D01*
X118771998Y-65646468D01*
X118772000Y-65646468D01*
X118772002Y-65646468D01*
X118828673Y-65641509D01*
X118998692Y-65626635D01*
X119218496Y-65567739D01*
X119424734Y-65471568D01*
X119611139Y-65341047D01*
X119772047Y-65180139D01*
X119902568Y-64993734D01*
X119998739Y-64787496D01*
X120057635Y-64567692D01*
X120077468Y-64341000D01*
X120077468Y-64340997D01*
X122467034Y-64340997D01*
X122467034Y-64341002D01*
X122486858Y-64567599D01*
X122486860Y-64567610D01*
X122545730Y-64787317D01*
X122545735Y-64787331D01*
X122641863Y-64993478D01*
X122692974Y-65066472D01*
X123372000Y-64387446D01*
X123372000Y-64393661D01*
X123399259Y-64495394D01*
X123451920Y-64586606D01*
X123526394Y-64661080D01*
X123617606Y-64713741D01*
X123719339Y-64741000D01*
X123725553Y-64741000D01*
X123046526Y-65420025D01*
X123119513Y-65471132D01*
X123119521Y-65471136D01*
X123325668Y-65567264D01*
X123325682Y-65567269D01*
X123545389Y-65626139D01*
X123545400Y-65626141D01*
X123771998Y-65645966D01*
X123772002Y-65645966D01*
X123998599Y-65626141D01*
X123998610Y-65626139D01*
X124218317Y-65567269D01*
X124218331Y-65567264D01*
X124424478Y-65471136D01*
X124497471Y-65420024D01*
X123818447Y-64741000D01*
X123824661Y-64741000D01*
X123926394Y-64713741D01*
X124017606Y-64661080D01*
X124092080Y-64586606D01*
X124144741Y-64495394D01*
X124172000Y-64393661D01*
X124172000Y-64387447D01*
X124851024Y-65066471D01*
X124902136Y-64993478D01*
X124998264Y-64787331D01*
X124998269Y-64787317D01*
X125057139Y-64567610D01*
X125057141Y-64567599D01*
X125076966Y-64341002D01*
X125076966Y-64340997D01*
X125057141Y-64114400D01*
X125057139Y-64114389D01*
X124998269Y-63894682D01*
X124998264Y-63894668D01*
X124902136Y-63688521D01*
X124902132Y-63688513D01*
X124851025Y-63615526D01*
X124172000Y-64294551D01*
X124172000Y-64288339D01*
X124144741Y-64186606D01*
X124092080Y-64095394D01*
X124017606Y-64020920D01*
X123926394Y-63968259D01*
X123824661Y-63941000D01*
X123818445Y-63941000D01*
X124497472Y-63261974D01*
X124424478Y-63210863D01*
X124218331Y-63114735D01*
X124218317Y-63114730D01*
X123998610Y-63055860D01*
X123998599Y-63055858D01*
X123772002Y-63036034D01*
X123771998Y-63036034D01*
X123545400Y-63055858D01*
X123545389Y-63055860D01*
X123325682Y-63114730D01*
X123325673Y-63114734D01*
X123119516Y-63210866D01*
X123119512Y-63210868D01*
X123046526Y-63261973D01*
X123046526Y-63261974D01*
X123725553Y-63941000D01*
X123719339Y-63941000D01*
X123617606Y-63968259D01*
X123526394Y-64020920D01*
X123451920Y-64095394D01*
X123399259Y-64186606D01*
X123372000Y-64288339D01*
X123372000Y-64294552D01*
X122692974Y-63615526D01*
X122692973Y-63615526D01*
X122641868Y-63688512D01*
X122641866Y-63688516D01*
X122545734Y-63894673D01*
X122545730Y-63894682D01*
X122486860Y-64114389D01*
X122486858Y-64114400D01*
X122467034Y-64340997D01*
X120077468Y-64340997D01*
X120077187Y-64337792D01*
X120066683Y-64217724D01*
X120057635Y-64114308D01*
X119998739Y-63894504D01*
X119902568Y-63688266D01*
X119772047Y-63501861D01*
X119772045Y-63501858D01*
X119611141Y-63340954D01*
X119424734Y-63210432D01*
X119424732Y-63210431D01*
X119218497Y-63114261D01*
X119218488Y-63114258D01*
X118998697Y-63055366D01*
X118998693Y-63055365D01*
X118998692Y-63055365D01*
X118998691Y-63055364D01*
X118998686Y-63055364D01*
X118772002Y-63035532D01*
X118771998Y-63035532D01*
X118545313Y-63055364D01*
X118545302Y-63055366D01*
X118325511Y-63114258D01*
X118325502Y-63114261D01*
X118119267Y-63210431D01*
X118119265Y-63210432D01*
X117932858Y-63340954D01*
X117771954Y-63501858D01*
X117641432Y-63688265D01*
X117641431Y-63688267D01*
X117545261Y-63894502D01*
X117545258Y-63894511D01*
X117486366Y-64114302D01*
X117486364Y-64114313D01*
X117466532Y-64340998D01*
X113781982Y-64340998D01*
X113726562Y-64290476D01*
X113726560Y-64290474D01*
X113537404Y-64173354D01*
X113537398Y-64173352D01*
X113329940Y-64092982D01*
X113111243Y-64052100D01*
X112888757Y-64052100D01*
X112670060Y-64092982D01*
X112614774Y-64114400D01*
X112462601Y-64173352D01*
X112462595Y-64173354D01*
X112273439Y-64290474D01*
X112273437Y-64290476D01*
X112109020Y-64440361D01*
X111974943Y-64617908D01*
X111974938Y-64617916D01*
X111875775Y-64817061D01*
X111875769Y-64817076D01*
X111814885Y-65031062D01*
X111814884Y-65031064D01*
X111794357Y-65252599D01*
X104974615Y-65252599D01*
X104950687Y-65182111D01*
X104820241Y-64917593D01*
X104820234Y-64917580D01*
X104656376Y-64672350D01*
X104627093Y-64638958D01*
X103850325Y-65415726D01*
X103756112Y-65286054D01*
X103626446Y-65156388D01*
X103496771Y-65062174D01*
X104273540Y-64285405D01*
X104240149Y-64256123D01*
X103994919Y-64092265D01*
X103994906Y-64092258D01*
X103730388Y-63961812D01*
X103451099Y-63867005D01*
X103451084Y-63867001D01*
X103161824Y-63809464D01*
X103161812Y-63809462D01*
X102867500Y-63790172D01*
X102573187Y-63809462D01*
X102573175Y-63809464D01*
X102283915Y-63867001D01*
X102283900Y-63867005D01*
X102004611Y-63961812D01*
X101740093Y-64092258D01*
X101740080Y-64092265D01*
X101494846Y-64256126D01*
X101494839Y-64256131D01*
X101461459Y-64285403D01*
X101461459Y-64285405D01*
X102238228Y-65062174D01*
X102108554Y-65156388D01*
X101978888Y-65286054D01*
X101884674Y-65415727D01*
X101107905Y-64638959D01*
X101107903Y-64638959D01*
X101078631Y-64672339D01*
X101078626Y-64672346D01*
X100914765Y-64917580D01*
X100914758Y-64917593D01*
X100784312Y-65182111D01*
X100741919Y-65306996D01*
X100701730Y-65364150D01*
X100637021Y-65390503D01*
X100568336Y-65377688D01*
X100517483Y-65329774D01*
X100500500Y-65267137D01*
X100500500Y-58774999D01*
X104221841Y-58774999D01*
X104221841Y-58775000D01*
X104242436Y-59010403D01*
X104242438Y-59010413D01*
X104303594Y-59238655D01*
X104303596Y-59238659D01*
X104303597Y-59238663D01*
X104370576Y-59382300D01*
X104403464Y-59452828D01*
X104403467Y-59452834D01*
X104467111Y-59543726D01*
X104539005Y-59646401D01*
X104706099Y-59813495D01*
X104817781Y-59891696D01*
X104863531Y-59923730D01*
X104907156Y-59978307D01*
X104914350Y-60047805D01*
X104882827Y-60110160D01*
X104863532Y-60126880D01*
X104816127Y-60160073D01*
X104816126Y-60160073D01*
X105480750Y-60824697D01*
X105399947Y-60846349D01*
X105295054Y-60906909D01*
X105209409Y-60992554D01*
X105148849Y-61097447D01*
X105127197Y-61178250D01*
X104462573Y-60513626D01*
X104462573Y-60513627D01*
X104403900Y-60597421D01*
X104403899Y-60597423D01*
X104304070Y-60811507D01*
X104304066Y-60811516D01*
X104242932Y-61039673D01*
X104242930Y-61039684D01*
X104222343Y-61274998D01*
X104222343Y-61275001D01*
X104242930Y-61510315D01*
X104242932Y-61510326D01*
X104304066Y-61738483D01*
X104304070Y-61738492D01*
X104403898Y-61952576D01*
X104462573Y-62036372D01*
X105127197Y-61371748D01*
X105148849Y-61452553D01*
X105209409Y-61557446D01*
X105295054Y-61643091D01*
X105399947Y-61703651D01*
X105480749Y-61725302D01*
X104816126Y-62389926D01*
X104899917Y-62448598D01*
X104899921Y-62448600D01*
X105114007Y-62548429D01*
X105114016Y-62548433D01*
X105342173Y-62609567D01*
X105342184Y-62609569D01*
X105577498Y-62630157D01*
X105577502Y-62630157D01*
X105812815Y-62609569D01*
X105812826Y-62609567D01*
X106040983Y-62548433D01*
X106040992Y-62548430D01*
X106231580Y-62459557D01*
X106300657Y-62449065D01*
X106364441Y-62477585D01*
X106369208Y-62481988D01*
X106485164Y-62568793D01*
X106485171Y-62568797D01*
X106620017Y-62619091D01*
X106620016Y-62619091D01*
X106626944Y-62619835D01*
X106679627Y-62625500D01*
X108475372Y-62625499D01*
X108534983Y-62619091D01*
X108669831Y-62568796D01*
X108785046Y-62482546D01*
X108871296Y-62367331D01*
X108921591Y-62232483D01*
X108928000Y-62172873D01*
X108927999Y-60377128D01*
X108921591Y-60317517D01*
X108918050Y-60308024D01*
X108871297Y-60182671D01*
X108871293Y-60182664D01*
X108785047Y-60067455D01*
X108785044Y-60067452D01*
X108669835Y-59981206D01*
X108669828Y-59981202D01*
X108567551Y-59943056D01*
X108511617Y-59901185D01*
X108487200Y-59835721D01*
X108502051Y-59767448D01*
X108523203Y-59739193D01*
X108533793Y-59728603D01*
X108615995Y-59646401D01*
X108751535Y-59452830D01*
X108751536Y-59452826D01*
X108754243Y-59448140D01*
X108755476Y-59448852D01*
X108797221Y-59401450D01*
X108863421Y-59382300D01*
X111852160Y-59382300D01*
X111919199Y-59401985D01*
X111964954Y-59454789D01*
X111974898Y-59523947D01*
X111963160Y-59561572D01*
X111875775Y-59737061D01*
X111875769Y-59737076D01*
X111814885Y-59951062D01*
X111814884Y-59951064D01*
X111794357Y-60172599D01*
X111794357Y-60172600D01*
X111814884Y-60394135D01*
X111814885Y-60394137D01*
X111875769Y-60608123D01*
X111875775Y-60608138D01*
X111974938Y-60807283D01*
X111974943Y-60807291D01*
X112109020Y-60984838D01*
X112273437Y-61134723D01*
X112273439Y-61134725D01*
X112462595Y-61251845D01*
X112462596Y-61251845D01*
X112462599Y-61251847D01*
X112670060Y-61332218D01*
X112888757Y-61373100D01*
X112888759Y-61373100D01*
X113111241Y-61373100D01*
X113111243Y-61373100D01*
X113282972Y-61340998D01*
X117466532Y-61340998D01*
X117466532Y-61341001D01*
X117486364Y-61567686D01*
X117486366Y-61567697D01*
X117545258Y-61787488D01*
X117545261Y-61787497D01*
X117641431Y-61993732D01*
X117641432Y-61993734D01*
X117771954Y-62180141D01*
X117932858Y-62341045D01*
X117932861Y-62341047D01*
X118119266Y-62471568D01*
X118325504Y-62567739D01*
X118325509Y-62567740D01*
X118325511Y-62567741D01*
X118336390Y-62570656D01*
X118545308Y-62626635D01*
X118707230Y-62640801D01*
X118771998Y-62646468D01*
X118772000Y-62646468D01*
X118772002Y-62646468D01*
X118828673Y-62641509D01*
X118998692Y-62626635D01*
X119218496Y-62567739D01*
X119424734Y-62471568D01*
X119611139Y-62341047D01*
X119772047Y-62180139D01*
X119902568Y-61993734D01*
X119998739Y-61787496D01*
X120057635Y-61567692D01*
X120076211Y-61355369D01*
X120077468Y-61341001D01*
X120077468Y-61340998D01*
X120077468Y-61340997D01*
X122467034Y-61340997D01*
X122467034Y-61341002D01*
X122486858Y-61567599D01*
X122486860Y-61567610D01*
X122545730Y-61787317D01*
X122545735Y-61787331D01*
X122641863Y-61993478D01*
X122692974Y-62066472D01*
X123372000Y-61387446D01*
X123372000Y-61393661D01*
X123399259Y-61495394D01*
X123451920Y-61586606D01*
X123526394Y-61661080D01*
X123617606Y-61713741D01*
X123719339Y-61741000D01*
X123725553Y-61741000D01*
X123046526Y-62420025D01*
X123119513Y-62471132D01*
X123119521Y-62471136D01*
X123325668Y-62567264D01*
X123325682Y-62567269D01*
X123545389Y-62626139D01*
X123545400Y-62626141D01*
X123771998Y-62645966D01*
X123772002Y-62645966D01*
X123998599Y-62626141D01*
X123998610Y-62626139D01*
X124218317Y-62567269D01*
X124218331Y-62567264D01*
X124424478Y-62471136D01*
X124497471Y-62420024D01*
X123818447Y-61741000D01*
X123824661Y-61741000D01*
X123926394Y-61713741D01*
X124017606Y-61661080D01*
X124092080Y-61586606D01*
X124144741Y-61495394D01*
X124172000Y-61393661D01*
X124172000Y-61387447D01*
X124851024Y-62066471D01*
X124902136Y-61993478D01*
X124998264Y-61787331D01*
X124998269Y-61787317D01*
X125057139Y-61567610D01*
X125057141Y-61567599D01*
X125076966Y-61341002D01*
X125076966Y-61340997D01*
X125057141Y-61114400D01*
X125057139Y-61114389D01*
X124998269Y-60894682D01*
X124998264Y-60894668D01*
X124902136Y-60688521D01*
X124902132Y-60688513D01*
X124851025Y-60615526D01*
X124172000Y-61294551D01*
X124172000Y-61288339D01*
X124144741Y-61186606D01*
X124092080Y-61095394D01*
X124017606Y-61020920D01*
X123926394Y-60968259D01*
X123824661Y-60941000D01*
X123818445Y-60941000D01*
X124497472Y-60261974D01*
X124424478Y-60210863D01*
X124218331Y-60114735D01*
X124218317Y-60114730D01*
X123998610Y-60055860D01*
X123998599Y-60055858D01*
X123772002Y-60036034D01*
X123771998Y-60036034D01*
X123545400Y-60055858D01*
X123545389Y-60055860D01*
X123325682Y-60114730D01*
X123325673Y-60114734D01*
X123119516Y-60210866D01*
X123119512Y-60210868D01*
X123046526Y-60261973D01*
X123046526Y-60261974D01*
X123725553Y-60941000D01*
X123719339Y-60941000D01*
X123617606Y-60968259D01*
X123526394Y-61020920D01*
X123451920Y-61095394D01*
X123399259Y-61186606D01*
X123372000Y-61288339D01*
X123372000Y-61294552D01*
X122692974Y-60615526D01*
X122692973Y-60615526D01*
X122641868Y-60688512D01*
X122641866Y-60688516D01*
X122545734Y-60894673D01*
X122545730Y-60894682D01*
X122486860Y-61114389D01*
X122486858Y-61114400D01*
X122467034Y-61340997D01*
X120077468Y-61340997D01*
X120061790Y-61161799D01*
X120057635Y-61114308D01*
X120007036Y-60925468D01*
X119998741Y-60894511D01*
X119998738Y-60894502D01*
X119960041Y-60811516D01*
X119902568Y-60688266D01*
X119792935Y-60531693D01*
X119772045Y-60501858D01*
X119611141Y-60340954D01*
X119424734Y-60210432D01*
X119424732Y-60210431D01*
X119218497Y-60114261D01*
X119218488Y-60114258D01*
X118998697Y-60055366D01*
X118998693Y-60055365D01*
X118998692Y-60055365D01*
X118998691Y-60055364D01*
X118998686Y-60055364D01*
X118772002Y-60035532D01*
X118771998Y-60035532D01*
X118545313Y-60055364D01*
X118545302Y-60055366D01*
X118325511Y-60114258D01*
X118325502Y-60114261D01*
X118119267Y-60210431D01*
X118119265Y-60210432D01*
X117932858Y-60340954D01*
X117771954Y-60501858D01*
X117641432Y-60688265D01*
X117641431Y-60688267D01*
X117545261Y-60894502D01*
X117545258Y-60894511D01*
X117486366Y-61114302D01*
X117486364Y-61114313D01*
X117466532Y-61340998D01*
X113282972Y-61340998D01*
X113329940Y-61332218D01*
X113537401Y-61251847D01*
X113726562Y-61134724D01*
X113890981Y-60984836D01*
X114025058Y-60807289D01*
X114124229Y-60608128D01*
X114185115Y-60394136D01*
X114205643Y-60172600D01*
X114201406Y-60126880D01*
X114185115Y-59951064D01*
X114185114Y-59951062D01*
X114184537Y-59949035D01*
X114124229Y-59737072D01*
X114120017Y-59728613D01*
X114036841Y-59561573D01*
X114024580Y-59492787D01*
X114051453Y-59428292D01*
X114108929Y-59388565D01*
X114147841Y-59382301D01*
X114302254Y-59382301D01*
X114302257Y-59382301D01*
X114454985Y-59341377D01*
X114454987Y-59341375D01*
X114454989Y-59341375D01*
X114454990Y-59341374D01*
X114506067Y-59311885D01*
X114506068Y-59311884D01*
X114591916Y-59262320D01*
X114625239Y-59228997D01*
X126063034Y-59228997D01*
X126063034Y-59229002D01*
X126082858Y-59455599D01*
X126082860Y-59455610D01*
X126141730Y-59675317D01*
X126141735Y-59675331D01*
X126237863Y-59881478D01*
X126288974Y-59954472D01*
X126968000Y-59275446D01*
X126968000Y-59281661D01*
X126995259Y-59383394D01*
X127047920Y-59474606D01*
X127122394Y-59549080D01*
X127213606Y-59601741D01*
X127315339Y-59629000D01*
X127321553Y-59629000D01*
X126642526Y-60308025D01*
X126715513Y-60359132D01*
X126715521Y-60359136D01*
X126921668Y-60455264D01*
X126921682Y-60455269D01*
X127141389Y-60514139D01*
X127141400Y-60514141D01*
X127367998Y-60533966D01*
X127368002Y-60533966D01*
X127594599Y-60514141D01*
X127594610Y-60514139D01*
X127814317Y-60455269D01*
X127814331Y-60455264D01*
X128020478Y-60359136D01*
X128093471Y-60308024D01*
X127414447Y-59629000D01*
X127420661Y-59629000D01*
X127522394Y-59601741D01*
X127613606Y-59549080D01*
X127688080Y-59474606D01*
X127740741Y-59383394D01*
X127768000Y-59281661D01*
X127768000Y-59275447D01*
X128447024Y-59954471D01*
X128498136Y-59881478D01*
X128594264Y-59675331D01*
X128594269Y-59675317D01*
X128653139Y-59455610D01*
X128653141Y-59455599D01*
X128672966Y-59229002D01*
X128672966Y-59228997D01*
X128653141Y-59002400D01*
X128653139Y-59002389D01*
X128594269Y-58782682D01*
X128594264Y-58782668D01*
X128498136Y-58576521D01*
X128498132Y-58576513D01*
X128447025Y-58503526D01*
X127768000Y-59182551D01*
X127768000Y-59176339D01*
X127740741Y-59074606D01*
X127688080Y-58983394D01*
X127613606Y-58908920D01*
X127522394Y-58856259D01*
X127420661Y-58829000D01*
X127414445Y-58829000D01*
X128093472Y-58149974D01*
X128020478Y-58098863D01*
X127814331Y-58002735D01*
X127814317Y-58002730D01*
X127594610Y-57943860D01*
X127594599Y-57943858D01*
X127368002Y-57924034D01*
X127367998Y-57924034D01*
X127141400Y-57943858D01*
X127141389Y-57943860D01*
X126921682Y-58002730D01*
X126921673Y-58002734D01*
X126715516Y-58098866D01*
X126715512Y-58098868D01*
X126642526Y-58149973D01*
X126642526Y-58149974D01*
X127321553Y-58829000D01*
X127315339Y-58829000D01*
X127213606Y-58856259D01*
X127122394Y-58908920D01*
X127047920Y-58983394D01*
X126995259Y-59074606D01*
X126968000Y-59176339D01*
X126968000Y-59182552D01*
X126288974Y-58503526D01*
X126288973Y-58503526D01*
X126237868Y-58576512D01*
X126237866Y-58576516D01*
X126141734Y-58782673D01*
X126141730Y-58782682D01*
X126082860Y-59002389D01*
X126082858Y-59002400D01*
X126063034Y-59228997D01*
X114625239Y-59228997D01*
X114703720Y-59150516D01*
X114703720Y-59150514D01*
X114713924Y-59140311D01*
X114713928Y-59140306D01*
X116518535Y-57335698D01*
X116579856Y-57302215D01*
X116592311Y-57300163D01*
X116679255Y-57290368D01*
X116849522Y-57230789D01*
X117002262Y-57134816D01*
X117129816Y-57007262D01*
X117225789Y-56854522D01*
X117285368Y-56684255D01*
X117285369Y-56684249D01*
X117305565Y-56505003D01*
X117305565Y-56504996D01*
X117285369Y-56325750D01*
X117285368Y-56325745D01*
X117225788Y-56155475D01*
X117172691Y-56070973D01*
X117153690Y-56003736D01*
X117172691Y-55939027D01*
X117225788Y-55854524D01*
X117225789Y-55854522D01*
X117285368Y-55684255D01*
X117302245Y-55534468D01*
X117305565Y-55505003D01*
X117305565Y-55504996D01*
X117285369Y-55325750D01*
X117285368Y-55325745D01*
X117251531Y-55229045D01*
X117225789Y-55155478D01*
X117223551Y-55151917D01*
X117138822Y-55017071D01*
X117129816Y-55002738D01*
X117002262Y-54875184D01*
X116997928Y-54872461D01*
X116849523Y-54779211D01*
X116679254Y-54719631D01*
X116679249Y-54719630D01*
X116500004Y-54699435D01*
X116499996Y-54699435D01*
X116320750Y-54719630D01*
X116320745Y-54719631D01*
X116150476Y-54779211D01*
X115997737Y-54875184D01*
X115870184Y-55002737D01*
X115774210Y-55155478D01*
X115714630Y-55325750D01*
X115704837Y-55412668D01*
X115677770Y-55477082D01*
X115669298Y-55486465D01*
X115410782Y-55744982D01*
X115349462Y-55778466D01*
X115323103Y-55781300D01*
X114524000Y-55781300D01*
X114456961Y-55761615D01*
X114411206Y-55708811D01*
X114400000Y-55657300D01*
X114400000Y-55291800D01*
X113375278Y-55291800D01*
X113419333Y-55215494D01*
X113450000Y-55101044D01*
X113450000Y-54982556D01*
X113419333Y-54868106D01*
X113375278Y-54791800D01*
X114400000Y-54791800D01*
X114400000Y-54228998D01*
X126062532Y-54228998D01*
X126062532Y-54229001D01*
X126082364Y-54455686D01*
X126082366Y-54455697D01*
X126141258Y-54675488D01*
X126141261Y-54675497D01*
X126237431Y-54881732D01*
X126237432Y-54881734D01*
X126367954Y-55068141D01*
X126528858Y-55229045D01*
X126528861Y-55229047D01*
X126715266Y-55359568D01*
X126921504Y-55455739D01*
X126921509Y-55455740D01*
X126921511Y-55455741D01*
X126974415Y-55469916D01*
X127141308Y-55514635D01*
X127303230Y-55528801D01*
X127367998Y-55534468D01*
X127368000Y-55534468D01*
X127368002Y-55534468D01*
X127424673Y-55529509D01*
X127594692Y-55514635D01*
X127814496Y-55455739D01*
X128020734Y-55359568D01*
X128207139Y-55229047D01*
X128224651Y-55211535D01*
X128812300Y-55211535D01*
X128812300Y-57107270D01*
X128812301Y-57107276D01*
X128818708Y-57166883D01*
X128869002Y-57301728D01*
X128869006Y-57301735D01*
X128955252Y-57416944D01*
X128955255Y-57416947D01*
X129070464Y-57503193D01*
X129070471Y-57503197D01*
X129205317Y-57553491D01*
X129205316Y-57553491D01*
X129212244Y-57554235D01*
X129264927Y-57559900D01*
X131160672Y-57559899D01*
X131220283Y-57553491D01*
X131220285Y-57553490D01*
X131227068Y-57552761D01*
X131295827Y-57565167D01*
X131328002Y-57588369D01*
X132712248Y-58972616D01*
X134081485Y-60341853D01*
X134114970Y-60403176D01*
X134113071Y-60463467D01*
X134107684Y-60482398D01*
X134087157Y-60703931D01*
X134087157Y-60703932D01*
X134107684Y-60925467D01*
X134107685Y-60925469D01*
X134168569Y-61139455D01*
X134168575Y-61139470D01*
X134267738Y-61338615D01*
X134267743Y-61338623D01*
X134401820Y-61516170D01*
X134566237Y-61666055D01*
X134566239Y-61666057D01*
X134755395Y-61783177D01*
X134755396Y-61783177D01*
X134755399Y-61783179D01*
X134962860Y-61863550D01*
X134962865Y-61863550D01*
X134964383Y-61864139D01*
X135019784Y-61906712D01*
X135043375Y-61972479D01*
X135027664Y-62040559D01*
X134977640Y-62089338D01*
X134964383Y-62095393D01*
X134962865Y-62095981D01*
X134962860Y-62095982D01*
X134793358Y-62161647D01*
X134755401Y-62176352D01*
X134755395Y-62176354D01*
X134566239Y-62293474D01*
X134566237Y-62293476D01*
X134401820Y-62443362D01*
X134315195Y-62558071D01*
X134259085Y-62599707D01*
X134189373Y-62604398D01*
X134128192Y-62570656D01*
X134094965Y-62509192D01*
X134096036Y-62452903D01*
X134098453Y-62443361D01*
X134136409Y-62293476D01*
X134138931Y-62283517D01*
X134138931Y-62283516D01*
X134138934Y-62283505D01*
X134140168Y-62268613D01*
X134158100Y-62052206D01*
X134158100Y-62052193D01*
X134138935Y-61820902D01*
X134138933Y-61820891D01*
X134081957Y-61595899D01*
X133988724Y-61383351D01*
X133861783Y-61189052D01*
X133861780Y-61189049D01*
X133861779Y-61189047D01*
X133704584Y-61018287D01*
X133704579Y-61018283D01*
X133704577Y-61018281D01*
X133521434Y-60875735D01*
X133521428Y-60875731D01*
X133317304Y-60765264D01*
X133317295Y-60765261D01*
X133097784Y-60689902D01*
X132907250Y-60658108D01*
X132868849Y-60651700D01*
X132636751Y-60651700D01*
X132598350Y-60658108D01*
X132407815Y-60689902D01*
X132188304Y-60765261D01*
X132188295Y-60765264D01*
X131984171Y-60875731D01*
X131984165Y-60875735D01*
X131801022Y-61018281D01*
X131801018Y-61018285D01*
X131792666Y-61027358D01*
X131732779Y-61063348D01*
X131662941Y-61061247D01*
X131605325Y-61021722D01*
X131585255Y-60986707D01*
X131556597Y-60909871D01*
X131556593Y-60909864D01*
X131470347Y-60794655D01*
X131470344Y-60794652D01*
X131355135Y-60708406D01*
X131355128Y-60708402D01*
X131220282Y-60658108D01*
X131220283Y-60658108D01*
X131160683Y-60651701D01*
X131160681Y-60651700D01*
X131160673Y-60651700D01*
X131160664Y-60651700D01*
X129264929Y-60651700D01*
X129264923Y-60651701D01*
X129205316Y-60658108D01*
X129070471Y-60708402D01*
X129070464Y-60708406D01*
X128955255Y-60794652D01*
X128955252Y-60794655D01*
X128869006Y-60909864D01*
X128869002Y-60909871D01*
X128818708Y-61044717D01*
X128812301Y-61104316D01*
X128812300Y-61104335D01*
X128812301Y-63000063D01*
X128812301Y-63000076D01*
X128818708Y-63059683D01*
X128869002Y-63194528D01*
X128869006Y-63194535D01*
X128955252Y-63309744D01*
X128955255Y-63309747D01*
X129070464Y-63395993D01*
X129070471Y-63395997D01*
X129205317Y-63446291D01*
X129205316Y-63446291D01*
X129212244Y-63447035D01*
X129264927Y-63452700D01*
X130712701Y-63452699D01*
X130779740Y-63472384D01*
X130800382Y-63489018D01*
X131047484Y-63736120D01*
X131047486Y-63736121D01*
X131047490Y-63736124D01*
X131184409Y-63815173D01*
X131184412Y-63815175D01*
X131184416Y-63815177D01*
X131337143Y-63856101D01*
X131337145Y-63856101D01*
X131502854Y-63856101D01*
X131502870Y-63856100D01*
X134180179Y-63856100D01*
X134247218Y-63875785D01*
X134279133Y-63905373D01*
X134401820Y-64067838D01*
X134566237Y-64217723D01*
X134566239Y-64217725D01*
X134755395Y-64334845D01*
X134755396Y-64334845D01*
X134755399Y-64334847D01*
X134962860Y-64415218D01*
X135181557Y-64456100D01*
X135181559Y-64456100D01*
X135404041Y-64456100D01*
X135404043Y-64456100D01*
X135622740Y-64415218D01*
X135830201Y-64334847D01*
X136019362Y-64217724D01*
X136183781Y-64067836D01*
X136317858Y-63890289D01*
X136417029Y-63691128D01*
X136477915Y-63477136D01*
X136498443Y-63255600D01*
X136477915Y-63034064D01*
X136417029Y-62820072D01*
X136417024Y-62820061D01*
X136317861Y-62620916D01*
X136317856Y-62620908D01*
X136183779Y-62443361D01*
X136019362Y-62293476D01*
X136019360Y-62293474D01*
X135830204Y-62176354D01*
X135830195Y-62176350D01*
X135746667Y-62143991D01*
X135622740Y-62095982D01*
X135622734Y-62095981D01*
X135621217Y-62095393D01*
X135565815Y-62052820D01*
X135542224Y-61987054D01*
X135557935Y-61918973D01*
X135607959Y-61870194D01*
X135621217Y-61864139D01*
X135622734Y-61863550D01*
X135622740Y-61863550D01*
X135830201Y-61783179D01*
X136019362Y-61666056D01*
X136183781Y-61516168D01*
X136317858Y-61338621D01*
X136417029Y-61139460D01*
X136477915Y-60925468D01*
X136498443Y-60703932D01*
X136496991Y-60688267D01*
X136477915Y-60482396D01*
X136477914Y-60482394D01*
X136470196Y-60455269D01*
X136417029Y-60268404D01*
X136417024Y-60268393D01*
X136317861Y-60069248D01*
X136317856Y-60069240D01*
X136183779Y-59891693D01*
X136019362Y-59741808D01*
X136019360Y-59741806D01*
X135830204Y-59624686D01*
X135830195Y-59624682D01*
X135721446Y-59582553D01*
X135622740Y-59544314D01*
X135622735Y-59544313D01*
X135621220Y-59543726D01*
X135565818Y-59501153D01*
X135542227Y-59435387D01*
X135557938Y-59367306D01*
X135607962Y-59318527D01*
X135621220Y-59312472D01*
X135622735Y-59311884D01*
X135622740Y-59311884D01*
X135830201Y-59231513D01*
X136019362Y-59114390D01*
X136163058Y-58983394D01*
X136183779Y-58964504D01*
X136251033Y-58875446D01*
X136317858Y-58786955D01*
X136417029Y-58587794D01*
X136477915Y-58373802D01*
X136498443Y-58152266D01*
X136477915Y-57930730D01*
X136417029Y-57716738D01*
X136417024Y-57716727D01*
X136317861Y-57517582D01*
X136317856Y-57517574D01*
X136183779Y-57340027D01*
X136019362Y-57190142D01*
X136019360Y-57190140D01*
X135830204Y-57073020D01*
X135830195Y-57073016D01*
X135737802Y-57037223D01*
X135622740Y-56992648D01*
X135622735Y-56992647D01*
X135621220Y-56992060D01*
X135565818Y-56949487D01*
X135542227Y-56883721D01*
X135557938Y-56815640D01*
X135607962Y-56766861D01*
X135621220Y-56760806D01*
X135622735Y-56760218D01*
X135622740Y-56760218D01*
X135830201Y-56679847D01*
X136019362Y-56562724D01*
X136183781Y-56412836D01*
X136317858Y-56235289D01*
X136417029Y-56036128D01*
X136477915Y-55822136D01*
X136498443Y-55600600D01*
X136498443Y-55600599D01*
X139167157Y-55600599D01*
X139167157Y-55600600D01*
X139187684Y-55822135D01*
X139187685Y-55822137D01*
X139248569Y-56036123D01*
X139248575Y-56036138D01*
X139347738Y-56235283D01*
X139347743Y-56235291D01*
X139481820Y-56412838D01*
X139646237Y-56562723D01*
X139646239Y-56562725D01*
X139835395Y-56679845D01*
X139835396Y-56679845D01*
X139835399Y-56679847D01*
X140042860Y-56760218D01*
X140042864Y-56760218D01*
X140044380Y-56760806D01*
X140099781Y-56803379D01*
X140123372Y-56869146D01*
X140107661Y-56937226D01*
X140057637Y-56986005D01*
X140044380Y-56992060D01*
X140042864Y-56992647D01*
X140042860Y-56992648D01*
X139882456Y-57054789D01*
X139835401Y-57073018D01*
X139835395Y-57073020D01*
X139646239Y-57190140D01*
X139646237Y-57190142D01*
X139481820Y-57340027D01*
X139347743Y-57517574D01*
X139347738Y-57517582D01*
X139248575Y-57716727D01*
X139248569Y-57716742D01*
X139187685Y-57930728D01*
X139187684Y-57930730D01*
X139167157Y-58152265D01*
X139167157Y-58152266D01*
X139187684Y-58373801D01*
X139187685Y-58373803D01*
X139248569Y-58587789D01*
X139248575Y-58587804D01*
X139347738Y-58786949D01*
X139347743Y-58786957D01*
X139481820Y-58964504D01*
X139646237Y-59114389D01*
X139646239Y-59114391D01*
X139835395Y-59231511D01*
X139835396Y-59231511D01*
X139835399Y-59231513D01*
X140042860Y-59311884D01*
X140042864Y-59311884D01*
X140044380Y-59312472D01*
X140099781Y-59355045D01*
X140123372Y-59420812D01*
X140107661Y-59488892D01*
X140057637Y-59537671D01*
X140044380Y-59543726D01*
X140042864Y-59544313D01*
X140042860Y-59544314D01*
X139894624Y-59601741D01*
X139835401Y-59624684D01*
X139835395Y-59624686D01*
X139646239Y-59741806D01*
X139646237Y-59741808D01*
X139481820Y-59891693D01*
X139347743Y-60069240D01*
X139347738Y-60069248D01*
X139248575Y-60268393D01*
X139248569Y-60268408D01*
X139187685Y-60482394D01*
X139187684Y-60482396D01*
X139167157Y-60703931D01*
X139167157Y-60703932D01*
X139187684Y-60925467D01*
X139187685Y-60925469D01*
X139248569Y-61139455D01*
X139248575Y-61139470D01*
X139347738Y-61338615D01*
X139347743Y-61338623D01*
X139481820Y-61516170D01*
X139646237Y-61666055D01*
X139646239Y-61666057D01*
X139835395Y-61783177D01*
X139835396Y-61783177D01*
X139835399Y-61783179D01*
X140042860Y-61863550D01*
X140042865Y-61863550D01*
X140044383Y-61864139D01*
X140099784Y-61906712D01*
X140123375Y-61972479D01*
X140107664Y-62040559D01*
X140057640Y-62089338D01*
X140044383Y-62095393D01*
X140042865Y-62095981D01*
X140042860Y-62095982D01*
X139873358Y-62161647D01*
X139835401Y-62176352D01*
X139835395Y-62176354D01*
X139646239Y-62293474D01*
X139646237Y-62293476D01*
X139481820Y-62443361D01*
X139347743Y-62620908D01*
X139347738Y-62620916D01*
X139248575Y-62820061D01*
X139248569Y-62820076D01*
X139187685Y-63034062D01*
X139187684Y-63034064D01*
X139167157Y-63255599D01*
X139167157Y-63255600D01*
X139187684Y-63477135D01*
X139187685Y-63477137D01*
X139248569Y-63691123D01*
X139248575Y-63691138D01*
X139347738Y-63890283D01*
X139347743Y-63890291D01*
X139481820Y-64067838D01*
X139646237Y-64217723D01*
X139646239Y-64217725D01*
X139835395Y-64334845D01*
X139835396Y-64334845D01*
X139835399Y-64334847D01*
X140042860Y-64415218D01*
X140261557Y-64456100D01*
X140261559Y-64456100D01*
X140484041Y-64456100D01*
X140484043Y-64456100D01*
X140702740Y-64415218D01*
X140910201Y-64334847D01*
X141099362Y-64217724D01*
X141263781Y-64067836D01*
X141386467Y-63905372D01*
X141442576Y-63863737D01*
X141485421Y-63856100D01*
X144111931Y-63856100D01*
X144111947Y-63856101D01*
X144119543Y-63856101D01*
X144277654Y-63856101D01*
X144277657Y-63856101D01*
X144430385Y-63815177D01*
X144513890Y-63766965D01*
X144567316Y-63736120D01*
X144679120Y-63624316D01*
X144679120Y-63624314D01*
X144689324Y-63614111D01*
X144689328Y-63614106D01*
X146080935Y-62222498D01*
X146142256Y-62189015D01*
X146154709Y-62186963D01*
X146157622Y-62186635D01*
X146226443Y-62198684D01*
X146277826Y-62246028D01*
X146291289Y-62277761D01*
X146349994Y-62496855D01*
X146349996Y-62496859D01*
X146349997Y-62496863D01*
X146410510Y-62626633D01*
X146449865Y-62711030D01*
X146449867Y-62711034D01*
X146585401Y-62904595D01*
X146585406Y-62904602D01*
X146752497Y-63071693D01*
X146752503Y-63071698D01*
X146938058Y-63201625D01*
X146981683Y-63256202D01*
X146988877Y-63325700D01*
X146957354Y-63388055D01*
X146938058Y-63404775D01*
X146752497Y-63534705D01*
X146585405Y-63701797D01*
X146449865Y-63895369D01*
X146449864Y-63895371D01*
X146349998Y-64109535D01*
X146349994Y-64109544D01*
X146288838Y-64337786D01*
X146288836Y-64337796D01*
X146268241Y-64573199D01*
X146268241Y-64573200D01*
X146288836Y-64808603D01*
X146288838Y-64808613D01*
X146349994Y-65036855D01*
X146349996Y-65036859D01*
X146349997Y-65036863D01*
X146449865Y-65251030D01*
X146449867Y-65251034D01*
X146538552Y-65377688D01*
X146585405Y-65444601D01*
X146752499Y-65611695D01*
X146773833Y-65626633D01*
X146946065Y-65747232D01*
X146946067Y-65747233D01*
X146946070Y-65747235D01*
X147160237Y-65847103D01*
X147388492Y-65908263D01*
X147576818Y-65924739D01*
X147623899Y-65928859D01*
X147623900Y-65928859D01*
X147623901Y-65928859D01*
X147663134Y-65925426D01*
X147859308Y-65908263D01*
X148087563Y-65847103D01*
X148301730Y-65747235D01*
X148495301Y-65611695D01*
X148662395Y-65444601D01*
X148797935Y-65251030D01*
X148897803Y-65036863D01*
X148958963Y-64808608D01*
X148979559Y-64573200D01*
X148958963Y-64337792D01*
X148897803Y-64109537D01*
X148797935Y-63895371D01*
X148797447Y-63894673D01*
X148662394Y-63701797D01*
X148495302Y-63534706D01*
X148495296Y-63534701D01*
X148309742Y-63404775D01*
X148266117Y-63350198D01*
X148258923Y-63280700D01*
X148290446Y-63218345D01*
X148309742Y-63201625D01*
X148331926Y-63186091D01*
X148495301Y-63071695D01*
X148662395Y-62904601D01*
X148797935Y-62711030D01*
X148897803Y-62496863D01*
X148958963Y-62268608D01*
X148979559Y-62033200D01*
X148958963Y-61797792D01*
X148897803Y-61569537D01*
X148797935Y-61355371D01*
X148796769Y-61353705D01*
X148662394Y-61161797D01*
X148495302Y-60994706D01*
X148495296Y-60994701D01*
X148309742Y-60864775D01*
X148266117Y-60810198D01*
X148258923Y-60740700D01*
X148290446Y-60678345D01*
X148309742Y-60661625D01*
X148386143Y-60608128D01*
X148495301Y-60531695D01*
X148662395Y-60364601D01*
X148797935Y-60171030D01*
X148897803Y-59956863D01*
X148958963Y-59728608D01*
X148979559Y-59493200D01*
X148958963Y-59257792D01*
X148897803Y-59029537D01*
X148797935Y-58815371D01*
X148778040Y-58786957D01*
X148662394Y-58621797D01*
X148495302Y-58454706D01*
X148495301Y-58454705D01*
X148309305Y-58324469D01*
X148265681Y-58269892D01*
X148258488Y-58200393D01*
X148290010Y-58138039D01*
X148309305Y-58121319D01*
X148494982Y-57991305D01*
X148662005Y-57824282D01*
X148797500Y-57630778D01*
X148897329Y-57416692D01*
X148897332Y-57416686D01*
X148954536Y-57203200D01*
X148056912Y-57203200D01*
X148089825Y-57146193D01*
X148123900Y-57019026D01*
X148123900Y-56887374D01*
X148089825Y-56760207D01*
X148056912Y-56703200D01*
X148954536Y-56703200D01*
X148954535Y-56703199D01*
X148897332Y-56489713D01*
X148897329Y-56489707D01*
X148797500Y-56275622D01*
X148797499Y-56275620D01*
X148662013Y-56082126D01*
X148662008Y-56082120D01*
X148539953Y-55960065D01*
X148506468Y-55898742D01*
X148511452Y-55829050D01*
X148553324Y-55773117D01*
X148584300Y-55756202D01*
X148716231Y-55706996D01*
X148831446Y-55620746D01*
X148917696Y-55505531D01*
X148967991Y-55370683D01*
X148974400Y-55311073D01*
X148974399Y-53515328D01*
X148967991Y-53455717D01*
X148955197Y-53421415D01*
X148917697Y-53320871D01*
X148917693Y-53320864D01*
X148831447Y-53205655D01*
X148831444Y-53205652D01*
X148716235Y-53119406D01*
X148716228Y-53119402D01*
X148581382Y-53069108D01*
X148581383Y-53069108D01*
X148521783Y-53062701D01*
X148521781Y-53062700D01*
X148521773Y-53062700D01*
X148521764Y-53062700D01*
X146726029Y-53062700D01*
X146726023Y-53062701D01*
X146666416Y-53069108D01*
X146531571Y-53119402D01*
X146531564Y-53119406D01*
X146416355Y-53205652D01*
X146416352Y-53205655D01*
X146330106Y-53320864D01*
X146330102Y-53320871D01*
X146279808Y-53455717D01*
X146273401Y-53515316D01*
X146273401Y-53515323D01*
X146273400Y-53515335D01*
X146273400Y-55311070D01*
X146273401Y-55311076D01*
X146279808Y-55370683D01*
X146330102Y-55505528D01*
X146330106Y-55505535D01*
X146416352Y-55620744D01*
X146416355Y-55620747D01*
X146531564Y-55706993D01*
X146531571Y-55706997D01*
X146531574Y-55706998D01*
X146663498Y-55756202D01*
X146719431Y-55798073D01*
X146743849Y-55863537D01*
X146728998Y-55931810D01*
X146707847Y-55960065D01*
X146585786Y-56082126D01*
X146450300Y-56275620D01*
X146450299Y-56275622D01*
X146350470Y-56489707D01*
X146350467Y-56489713D01*
X146293264Y-56703199D01*
X146293264Y-56703200D01*
X147190888Y-56703200D01*
X147157975Y-56760207D01*
X147123900Y-56887374D01*
X147123900Y-57019026D01*
X147157975Y-57146193D01*
X147190888Y-57203200D01*
X146293264Y-57203200D01*
X146350467Y-57416686D01*
X146350470Y-57416692D01*
X146450299Y-57630778D01*
X146585794Y-57824282D01*
X146752817Y-57991305D01*
X146938495Y-58121319D01*
X146982119Y-58175896D01*
X146989312Y-58245395D01*
X146957790Y-58307749D01*
X146938495Y-58324469D01*
X146752494Y-58454708D01*
X146585405Y-58621797D01*
X146449865Y-58815369D01*
X146449864Y-58815371D01*
X146349998Y-59029535D01*
X146349994Y-59029544D01*
X146288838Y-59257786D01*
X146288836Y-59257796D01*
X146268241Y-59493199D01*
X146268241Y-59493200D01*
X146288836Y-59728603D01*
X146288838Y-59728613D01*
X146347445Y-59947339D01*
X146345782Y-60017189D01*
X146306619Y-60075051D01*
X146242391Y-60102555D01*
X146227670Y-60103432D01*
X141485421Y-60103432D01*
X141418382Y-60083747D01*
X141386467Y-60054159D01*
X141263779Y-59891693D01*
X141099362Y-59741808D01*
X141099360Y-59741806D01*
X140910204Y-59624686D01*
X140910195Y-59624682D01*
X140801446Y-59582553D01*
X140702740Y-59544314D01*
X140702735Y-59544313D01*
X140701220Y-59543726D01*
X140645818Y-59501153D01*
X140622227Y-59435387D01*
X140637938Y-59367306D01*
X140687962Y-59318527D01*
X140701220Y-59312472D01*
X140702735Y-59311884D01*
X140702740Y-59311884D01*
X140910201Y-59231513D01*
X141099362Y-59114390D01*
X141243058Y-58983394D01*
X141263779Y-58964504D01*
X141331033Y-58875446D01*
X141397858Y-58786955D01*
X141497029Y-58587794D01*
X141557915Y-58373802D01*
X141578443Y-58152266D01*
X141557915Y-57930730D01*
X141497029Y-57716738D01*
X141497024Y-57716727D01*
X141397861Y-57517582D01*
X141397856Y-57517574D01*
X141263779Y-57340027D01*
X141099362Y-57190142D01*
X141099360Y-57190140D01*
X140910204Y-57073020D01*
X140910195Y-57073016D01*
X140817802Y-57037223D01*
X140702740Y-56992648D01*
X140702735Y-56992647D01*
X140701220Y-56992060D01*
X140645818Y-56949487D01*
X140622227Y-56883721D01*
X140637938Y-56815640D01*
X140687962Y-56766861D01*
X140701220Y-56760806D01*
X140702735Y-56760218D01*
X140702740Y-56760218D01*
X140910201Y-56679847D01*
X141099362Y-56562724D01*
X141263781Y-56412836D01*
X141397858Y-56235289D01*
X141497029Y-56036128D01*
X141557915Y-55822136D01*
X141578443Y-55600600D01*
X141569584Y-55505000D01*
X141557915Y-55379064D01*
X141557914Y-55379062D01*
X141552367Y-55359567D01*
X141497029Y-55165072D01*
X141490479Y-55151917D01*
X141397861Y-54965916D01*
X141397856Y-54965908D01*
X141263779Y-54788361D01*
X141099362Y-54638476D01*
X141099360Y-54638474D01*
X140910204Y-54521354D01*
X140910198Y-54521352D01*
X140702740Y-54440982D01*
X140484043Y-54400100D01*
X140261557Y-54400100D01*
X140042860Y-54440982D01*
X139911664Y-54491807D01*
X139835401Y-54521352D01*
X139835395Y-54521354D01*
X139646239Y-54638474D01*
X139646237Y-54638476D01*
X139481820Y-54788361D01*
X139347743Y-54965908D01*
X139347738Y-54965916D01*
X139248575Y-55165061D01*
X139248569Y-55165076D01*
X139187685Y-55379062D01*
X139187684Y-55379064D01*
X139167157Y-55600599D01*
X136498443Y-55600599D01*
X136489584Y-55505000D01*
X136477915Y-55379064D01*
X136477914Y-55379062D01*
X136472367Y-55359567D01*
X136417029Y-55165072D01*
X136410479Y-55151917D01*
X136317861Y-54965916D01*
X136317856Y-54965908D01*
X136183779Y-54788361D01*
X136019362Y-54638476D01*
X136019360Y-54638474D01*
X135830204Y-54521354D01*
X135830198Y-54521352D01*
X135622740Y-54440982D01*
X135404043Y-54400100D01*
X135181557Y-54400100D01*
X134962860Y-54440982D01*
X134831664Y-54491807D01*
X134755401Y-54521352D01*
X134755395Y-54521354D01*
X134566239Y-54638474D01*
X134566237Y-54638476D01*
X134401820Y-54788361D01*
X134267743Y-54965908D01*
X134267738Y-54965916D01*
X134168575Y-55165061D01*
X134168570Y-55165074D01*
X134123890Y-55322109D01*
X134086611Y-55381202D01*
X134023301Y-55410759D01*
X133954061Y-55401397D01*
X133900875Y-55356087D01*
X133900816Y-55355996D01*
X133861784Y-55296254D01*
X133861782Y-55296252D01*
X133861779Y-55296247D01*
X133704584Y-55125487D01*
X133704579Y-55125483D01*
X133704577Y-55125481D01*
X133521434Y-54982935D01*
X133521428Y-54982931D01*
X133317304Y-54872464D01*
X133317295Y-54872461D01*
X133097784Y-54797102D01*
X132926082Y-54768450D01*
X132868849Y-54758900D01*
X132636751Y-54758900D01*
X132606512Y-54763946D01*
X132407815Y-54797102D01*
X132188304Y-54872461D01*
X132188295Y-54872464D01*
X131984171Y-54982931D01*
X131984165Y-54982935D01*
X131801022Y-55125481D01*
X131801018Y-55125485D01*
X131792666Y-55134558D01*
X131732779Y-55170548D01*
X131662941Y-55168447D01*
X131605325Y-55128922D01*
X131585255Y-55093907D01*
X131556597Y-55017071D01*
X131556593Y-55017064D01*
X131470347Y-54901855D01*
X131470344Y-54901852D01*
X131355135Y-54815606D01*
X131355128Y-54815602D01*
X131220282Y-54765308D01*
X131220283Y-54765308D01*
X131160683Y-54758901D01*
X131160681Y-54758900D01*
X131160673Y-54758900D01*
X131160664Y-54758900D01*
X129264929Y-54758900D01*
X129264923Y-54758901D01*
X129205316Y-54765308D01*
X129070471Y-54815602D01*
X129070464Y-54815606D01*
X128955255Y-54901852D01*
X128955252Y-54901855D01*
X128869006Y-55017064D01*
X128869002Y-55017071D01*
X128818708Y-55151917D01*
X128812301Y-55211516D01*
X128812300Y-55211535D01*
X128224651Y-55211535D01*
X128368047Y-55068139D01*
X128498568Y-54881734D01*
X128594739Y-54675496D01*
X128653635Y-54455692D01*
X128673468Y-54229000D01*
X128653635Y-54002308D01*
X128594739Y-53782504D01*
X128498568Y-53576266D01*
X128368047Y-53389861D01*
X128368045Y-53389858D01*
X128207141Y-53228954D01*
X128020734Y-53098432D01*
X128020732Y-53098431D01*
X127814497Y-53002261D01*
X127814488Y-53002258D01*
X127594697Y-52943366D01*
X127594693Y-52943365D01*
X127594692Y-52943365D01*
X127594691Y-52943364D01*
X127594686Y-52943364D01*
X127368002Y-52923532D01*
X127367998Y-52923532D01*
X127141313Y-52943364D01*
X127141302Y-52943366D01*
X126921511Y-53002258D01*
X126921502Y-53002261D01*
X126715267Y-53098431D01*
X126715265Y-53098432D01*
X126528858Y-53228954D01*
X126367954Y-53389858D01*
X126237432Y-53576265D01*
X126237431Y-53576267D01*
X126141261Y-53782502D01*
X126141258Y-53782511D01*
X126082366Y-54002302D01*
X126082364Y-54002313D01*
X126062532Y-54228998D01*
X114400000Y-54228998D01*
X114400000Y-54093972D01*
X114399999Y-54093955D01*
X114393598Y-54034427D01*
X114393596Y-54034420D01*
X114343354Y-53899713D01*
X114343350Y-53899706D01*
X114257190Y-53784612D01*
X114257187Y-53784609D01*
X114142093Y-53698449D01*
X114142086Y-53698445D01*
X114007379Y-53648203D01*
X114007372Y-53648201D01*
X113947844Y-53641800D01*
X113250000Y-53641800D01*
X113250000Y-54666522D01*
X113173694Y-54622467D01*
X113059244Y-54591800D01*
X112940756Y-54591800D01*
X112826306Y-54622467D01*
X112750000Y-54666522D01*
X112750000Y-53641800D01*
X112052155Y-53641800D01*
X111992627Y-53648201D01*
X111992620Y-53648203D01*
X111857913Y-53698445D01*
X111857906Y-53698449D01*
X111742812Y-53784609D01*
X111742809Y-53784612D01*
X111656649Y-53899706D01*
X111656645Y-53899713D01*
X111606403Y-54034420D01*
X111606401Y-54034427D01*
X111600000Y-54093955D01*
X111600000Y-54791800D01*
X112624722Y-54791800D01*
X112580667Y-54868106D01*
X112550000Y-54982556D01*
X112550000Y-55101044D01*
X112580667Y-55215494D01*
X112624722Y-55291800D01*
X111600000Y-55291800D01*
X111600000Y-55657300D01*
X111580315Y-55724339D01*
X111527511Y-55770094D01*
X111476000Y-55781300D01*
X108057369Y-55781300D01*
X108057353Y-55781299D01*
X108049757Y-55781299D01*
X107891643Y-55781299D01*
X107784287Y-55810065D01*
X107738910Y-55822224D01*
X107738909Y-55822225D01*
X107693088Y-55848681D01*
X107693086Y-55848682D01*
X107601990Y-55901275D01*
X107601982Y-55901281D01*
X107490178Y-56013086D01*
X106061030Y-57442233D01*
X105999707Y-57475718D01*
X105941256Y-57474327D01*
X105812913Y-57439938D01*
X105812903Y-57439936D01*
X105577501Y-57419341D01*
X105577499Y-57419341D01*
X105342096Y-57439936D01*
X105342086Y-57439938D01*
X105113844Y-57501094D01*
X105113835Y-57501098D01*
X104899671Y-57600964D01*
X104899669Y-57600965D01*
X104706097Y-57736505D01*
X104539005Y-57903597D01*
X104403465Y-58097169D01*
X104403464Y-58097171D01*
X104303598Y-58311335D01*
X104303594Y-58311344D01*
X104242438Y-58539586D01*
X104242436Y-58539596D01*
X104221841Y-58774999D01*
X100500500Y-58774999D01*
X100500500Y-54782862D01*
X100520185Y-54715823D01*
X100572989Y-54670068D01*
X100642147Y-54660124D01*
X100705703Y-54689149D01*
X100741919Y-54743003D01*
X100784312Y-54867888D01*
X100914758Y-55132406D01*
X100914765Y-55132419D01*
X101078623Y-55377649D01*
X101107905Y-55411040D01*
X101884673Y-54634271D01*
X101978888Y-54763946D01*
X102108554Y-54893612D01*
X102238227Y-54987825D01*
X101461458Y-55764593D01*
X101494850Y-55793876D01*
X101740080Y-55957734D01*
X101740093Y-55957741D01*
X102004611Y-56088187D01*
X102283900Y-56182994D01*
X102283915Y-56182998D01*
X102573175Y-56240535D01*
X102573187Y-56240537D01*
X102867500Y-56259827D01*
X103161812Y-56240537D01*
X103161824Y-56240535D01*
X103451084Y-56182998D01*
X103451099Y-56182994D01*
X103730388Y-56088187D01*
X103994906Y-55957741D01*
X103994919Y-55957734D01*
X104240148Y-55793877D01*
X104273539Y-55764593D01*
X103496771Y-54987825D01*
X103626446Y-54893612D01*
X103756112Y-54763946D01*
X103850325Y-54634271D01*
X104627093Y-55411039D01*
X104656377Y-55377648D01*
X104820234Y-55132419D01*
X104820241Y-55132406D01*
X104950687Y-54867888D01*
X105045494Y-54588599D01*
X105045498Y-54588584D01*
X105103035Y-54299324D01*
X105103037Y-54299312D01*
X105122327Y-54005000D01*
X105103037Y-53710687D01*
X105103035Y-53710675D01*
X105045498Y-53421415D01*
X105045494Y-53421400D01*
X104950687Y-53142111D01*
X104820241Y-52877593D01*
X104820234Y-52877580D01*
X104656376Y-52632350D01*
X104627093Y-52598958D01*
X103850325Y-53375726D01*
X103756112Y-53246054D01*
X103626446Y-53116388D01*
X103496771Y-53022174D01*
X104273540Y-52245405D01*
X104240149Y-52216123D01*
X103994919Y-52052265D01*
X103994906Y-52052258D01*
X103730388Y-51921812D01*
X103451099Y-51827005D01*
X103451084Y-51827001D01*
X103161824Y-51769464D01*
X103161812Y-51769462D01*
X102867500Y-51750172D01*
X102573187Y-51769462D01*
X102573175Y-51769464D01*
X102283915Y-51827001D01*
X102283900Y-51827005D01*
X102004611Y-51921812D01*
X101740093Y-52052258D01*
X101740080Y-52052265D01*
X101494846Y-52216126D01*
X101494839Y-52216131D01*
X101461459Y-52245403D01*
X101461459Y-52245405D01*
X102238228Y-53022174D01*
X102108554Y-53116388D01*
X101978888Y-53246054D01*
X101884674Y-53375727D01*
X101107905Y-52598959D01*
X101107903Y-52598959D01*
X101078631Y-52632339D01*
X101078626Y-52632346D01*
X100914765Y-52877580D01*
X100914758Y-52877593D01*
X100784312Y-53142111D01*
X100741919Y-53266996D01*
X100701730Y-53324150D01*
X100637021Y-53350503D01*
X100568336Y-53337688D01*
X100517483Y-53289774D01*
X100500500Y-53227137D01*
X100500500Y-50624500D01*
X100520185Y-50557461D01*
X100572989Y-50511706D01*
X100624500Y-50500500D01*
X149375500Y-50500500D01*
X149442539Y-50520185D01*
G37*
G04 #@! TD.AperFunction*
M02*
