%TF.GenerationSoftware,KiCad,Pcbnew,8.0.7*%
%TF.CreationDate,2025-01-23T22:17:50+09:00*%
%TF.ProjectId,ch340_silial_release,63683334-305f-4736-996c-69616c5f7265,rev?*%
%TF.SameCoordinates,Original*%
%TF.FileFunction,Drillmap*%
%TF.FilePolarity,Positive*%
%FSLAX45Y45*%
G04 Gerber Fmt 4.5, Leading zero omitted, Abs format (unit mm)*
G04 Created by KiCad (PCBNEW 8.0.7) date 2025-01-23 22:17:50*
%MOMM*%
%LPD*%
G01*
G04 APERTURE LIST*
%ADD10C,0.050000*%
%ADD11C,0.200000*%
%ADD12C,0.100000*%
%ADD13C,0.233000*%
G04 APERTURE END LIST*
D10*
X10000000Y-7000000D02*
X10000000Y-5000000D01*
X15000000Y-7000000D02*
X10000000Y-7000000D01*
X15000000Y-5000000D02*
X15000000Y-7000000D01*
X10000000Y-5000000D02*
X15000000Y-5000000D01*
D11*
D12*
X11635000Y-5535500D02*
X11665000Y-5565500D01*
X11665000Y-5535500D02*
X11635000Y-5565500D01*
X11635000Y-5635500D02*
X11665000Y-5665500D01*
X11665000Y-5635500D02*
X11635000Y-5665500D01*
X12035000Y-5685500D02*
X12065000Y-5715500D01*
X12065000Y-5685500D02*
X12035000Y-5715500D01*
X14591240Y-6124180D02*
X14621240Y-6154180D01*
X14621240Y-6124180D02*
X14591240Y-6154180D01*
X11335000Y-6017260D02*
G75*
G02*
X11265000Y-6017260I-35000J0D01*
G01*
X11265000Y-6017260D02*
G75*
G02*
X11335000Y-6017260I35000J0D01*
G01*
X11335000Y-6525260D02*
G75*
G02*
X11265000Y-6525260I-35000J0D01*
G01*
X11265000Y-6525260D02*
G75*
G02*
X11335000Y-6525260I35000J0D01*
G01*
X13564280Y-5560060D02*
G75*
G02*
X13494280Y-5560060I-35000J0D01*
G01*
X13494280Y-5560060D02*
G75*
G02*
X13564280Y-5560060I35000J0D01*
G01*
X13564280Y-5815227D02*
G75*
G02*
X13494280Y-5815227I-35000J0D01*
G01*
X13494280Y-5815227D02*
G75*
G02*
X13564280Y-5815227I35000J0D01*
G01*
X13564280Y-6070393D02*
G75*
G02*
X13494280Y-6070393I-35000J0D01*
G01*
X13494280Y-6070393D02*
G75*
G02*
X13564280Y-6070393I35000J0D01*
G01*
X13564280Y-6325560D02*
G75*
G02*
X13494280Y-6325560I-35000J0D01*
G01*
X13494280Y-6325560D02*
G75*
G02*
X13564280Y-6325560I35000J0D01*
G01*
X14072280Y-5560060D02*
G75*
G02*
X14002280Y-5560060I-35000J0D01*
G01*
X14002280Y-5560060D02*
G75*
G02*
X14072280Y-5560060I35000J0D01*
G01*
X14072280Y-5815227D02*
G75*
G02*
X14002280Y-5815227I-35000J0D01*
G01*
X14002280Y-5815227D02*
G75*
G02*
X14072280Y-5815227I35000J0D01*
G01*
X14072280Y-6070393D02*
G75*
G02*
X14002280Y-6070393I-35000J0D01*
G01*
X14002280Y-6070393D02*
G75*
G02*
X14072280Y-6070393I35000J0D01*
G01*
X14072280Y-6325560D02*
G75*
G02*
X14002280Y-6325560I-35000J0D01*
G01*
X14002280Y-6325560D02*
G75*
G02*
X14072280Y-6325560I35000J0D01*
G01*
X11877200Y-6094100D02*
X11877200Y-6174100D01*
X11837200Y-6134100D02*
X11917200Y-6134100D01*
X11877200Y-6394100D02*
X11877200Y-6474100D01*
X11837200Y-6434100D02*
X11917200Y-6434100D01*
X12377200Y-6094100D02*
X12377200Y-6174100D01*
X12337200Y-6134100D02*
X12417200Y-6134100D01*
X12377200Y-6394100D02*
X12377200Y-6474100D01*
X12337200Y-6434100D02*
X12417200Y-6434100D01*
X12736800Y-5382900D02*
X12736800Y-5462900D01*
X12696800Y-5422900D02*
X12776800Y-5422900D01*
X12736800Y-5882900D02*
X12736800Y-5962900D01*
X12696800Y-5922900D02*
X12776800Y-5922900D01*
X11331820Y-5536000D02*
X11331820Y-5472360D01*
X11268180Y-5472360D01*
X11268180Y-5536000D01*
X11331820Y-5536000D01*
X11331820Y-5790000D02*
X11331820Y-5726360D01*
X11268180Y-5726360D01*
X11268180Y-5790000D01*
X11331820Y-5790000D01*
X13053100Y-5647760D02*
X13053100Y-5584120D01*
X12989460Y-5584120D01*
X12989460Y-5647760D01*
X13053100Y-5647760D01*
X13053100Y-6237040D02*
X13053100Y-6173400D01*
X12989460Y-6173400D01*
X12989460Y-6237040D01*
X13053100Y-6237040D01*
X13307100Y-5647760D02*
X13307100Y-5584120D01*
X13243460Y-5584120D01*
X13243460Y-5647760D01*
X13307100Y-5647760D01*
X13307100Y-6237040D02*
X13307100Y-6173400D01*
X13243460Y-6173400D01*
X13243460Y-6237040D01*
X13307100Y-6237040D01*
X10557750Y-5923500D02*
X10603750Y-5877500D01*
X10557750Y-5831500D01*
X10511750Y-5877500D01*
X10557750Y-5923500D01*
X10557750Y-6173500D02*
X10603750Y-6127500D01*
X10557750Y-6081500D01*
X10511750Y-6127500D01*
X10557750Y-6173500D01*
X10757750Y-5923500D02*
X10803750Y-5877500D01*
X10757750Y-5831500D01*
X10711750Y-5877500D01*
X10757750Y-5923500D01*
X10757750Y-6173500D02*
X10803750Y-6127500D01*
X10757750Y-6081500D01*
X10711750Y-6127500D01*
X10757750Y-6173500D01*
X14712390Y-5391320D02*
X14812390Y-5491320D01*
X14812390Y-5391320D02*
X14712390Y-5491320D01*
X14812390Y-5441320D02*
G75*
G02*
X14712390Y-5441320I-50000J0D01*
G01*
X14712390Y-5441320D02*
G75*
G02*
X14812390Y-5441320I50000J0D01*
G01*
X14712390Y-5645320D02*
X14812390Y-5745320D01*
X14812390Y-5645320D02*
X14712390Y-5745320D01*
X14812390Y-5695320D02*
G75*
G02*
X14712390Y-5695320I-50000J0D01*
G01*
X14712390Y-5695320D02*
G75*
G02*
X14812390Y-5695320I50000J0D01*
G01*
X14712390Y-5899320D02*
X14812390Y-5999320D01*
X14812390Y-5899320D02*
X14712390Y-5999320D01*
X14812390Y-5949320D02*
G75*
G02*
X14712390Y-5949320I-50000J0D01*
G01*
X14712390Y-5949320D02*
G75*
G02*
X14812390Y-5949320I50000J0D01*
G01*
X14712390Y-6153320D02*
X14812390Y-6253320D01*
X14812390Y-6153320D02*
X14712390Y-6253320D01*
X14812390Y-6203320D02*
G75*
G02*
X14712390Y-6203320I-50000J0D01*
G01*
X14712390Y-6203320D02*
G75*
G02*
X14812390Y-6203320I50000J0D01*
G01*
X14712390Y-6407320D02*
X14812390Y-6507320D01*
X14812390Y-6407320D02*
X14712390Y-6507320D01*
X14812390Y-6457320D02*
G75*
G02*
X14712390Y-6457320I-50000J0D01*
G01*
X14712390Y-6457320D02*
G75*
G02*
X14812390Y-6457320I50000J0D01*
G01*
D13*
X10170250Y-5284000D02*
X10403250Y-5517000D01*
X10403250Y-5284000D02*
X10170250Y-5517000D01*
X10286750Y-5284000D02*
X10286750Y-5517000D01*
X10170250Y-5400500D02*
X10403250Y-5400500D01*
X10170250Y-6488000D02*
X10403250Y-6721000D01*
X10403250Y-6488000D02*
X10170250Y-6721000D01*
X10286750Y-6488000D02*
X10286750Y-6721000D01*
X10170250Y-6604500D02*
X10403250Y-6604500D01*
D11*
X10258277Y-7313984D02*
X10258277Y-7113984D01*
X10258277Y-7113984D02*
X10305896Y-7113984D01*
X10305896Y-7113984D02*
X10334467Y-7123508D01*
X10334467Y-7123508D02*
X10353515Y-7142555D01*
X10353515Y-7142555D02*
X10363039Y-7161603D01*
X10363039Y-7161603D02*
X10372563Y-7199698D01*
X10372563Y-7199698D02*
X10372563Y-7228269D01*
X10372563Y-7228269D02*
X10363039Y-7266365D01*
X10363039Y-7266365D02*
X10353515Y-7285412D01*
X10353515Y-7285412D02*
X10334467Y-7304460D01*
X10334467Y-7304460D02*
X10305896Y-7313984D01*
X10305896Y-7313984D02*
X10258277Y-7313984D01*
X10458277Y-7313984D02*
X10458277Y-7180650D01*
X10458277Y-7218746D02*
X10467801Y-7199698D01*
X10467801Y-7199698D02*
X10477324Y-7190174D01*
X10477324Y-7190174D02*
X10496372Y-7180650D01*
X10496372Y-7180650D02*
X10515420Y-7180650D01*
X10582086Y-7313984D02*
X10582086Y-7180650D01*
X10582086Y-7113984D02*
X10572563Y-7123508D01*
X10572563Y-7123508D02*
X10582086Y-7133031D01*
X10582086Y-7133031D02*
X10591610Y-7123508D01*
X10591610Y-7123508D02*
X10582086Y-7113984D01*
X10582086Y-7113984D02*
X10582086Y-7133031D01*
X10705896Y-7313984D02*
X10686848Y-7304460D01*
X10686848Y-7304460D02*
X10677324Y-7285412D01*
X10677324Y-7285412D02*
X10677324Y-7113984D01*
X10810658Y-7313984D02*
X10791610Y-7304460D01*
X10791610Y-7304460D02*
X10782086Y-7285412D01*
X10782086Y-7285412D02*
X10782086Y-7113984D01*
X11039229Y-7313984D02*
X11039229Y-7113984D01*
X11039229Y-7113984D02*
X11105896Y-7256841D01*
X11105896Y-7256841D02*
X11172563Y-7113984D01*
X11172563Y-7113984D02*
X11172563Y-7313984D01*
X11353515Y-7313984D02*
X11353515Y-7209222D01*
X11353515Y-7209222D02*
X11343991Y-7190174D01*
X11343991Y-7190174D02*
X11324943Y-7180650D01*
X11324943Y-7180650D02*
X11286848Y-7180650D01*
X11286848Y-7180650D02*
X11267801Y-7190174D01*
X11353515Y-7304460D02*
X11334467Y-7313984D01*
X11334467Y-7313984D02*
X11286848Y-7313984D01*
X11286848Y-7313984D02*
X11267801Y-7304460D01*
X11267801Y-7304460D02*
X11258277Y-7285412D01*
X11258277Y-7285412D02*
X11258277Y-7266365D01*
X11258277Y-7266365D02*
X11267801Y-7247317D01*
X11267801Y-7247317D02*
X11286848Y-7237793D01*
X11286848Y-7237793D02*
X11334467Y-7237793D01*
X11334467Y-7237793D02*
X11353515Y-7228269D01*
X11448753Y-7180650D02*
X11448753Y-7380650D01*
X11448753Y-7190174D02*
X11467801Y-7180650D01*
X11467801Y-7180650D02*
X11505896Y-7180650D01*
X11505896Y-7180650D02*
X11524943Y-7190174D01*
X11524943Y-7190174D02*
X11534467Y-7199698D01*
X11534467Y-7199698D02*
X11543991Y-7218746D01*
X11543991Y-7218746D02*
X11543991Y-7275888D01*
X11543991Y-7275888D02*
X11534467Y-7294936D01*
X11534467Y-7294936D02*
X11524943Y-7304460D01*
X11524943Y-7304460D02*
X11505896Y-7313984D01*
X11505896Y-7313984D02*
X11467801Y-7313984D01*
X11467801Y-7313984D02*
X11448753Y-7304460D01*
X11629705Y-7294936D02*
X11639229Y-7304460D01*
X11639229Y-7304460D02*
X11629705Y-7313984D01*
X11629705Y-7313984D02*
X11620182Y-7304460D01*
X11620182Y-7304460D02*
X11629705Y-7294936D01*
X11629705Y-7294936D02*
X11629705Y-7313984D01*
X11629705Y-7190174D02*
X11639229Y-7199698D01*
X11639229Y-7199698D02*
X11629705Y-7209222D01*
X11629705Y-7209222D02*
X11620182Y-7199698D01*
X11620182Y-7199698D02*
X11629705Y-7190174D01*
X11629705Y-7190174D02*
X11629705Y-7209222D01*
D12*
X9967500Y-7627500D02*
X9997500Y-7657500D01*
X9997500Y-7627500D02*
X9967500Y-7657500D01*
D11*
X10296372Y-7533984D02*
X10315420Y-7533984D01*
X10315420Y-7533984D02*
X10334467Y-7543508D01*
X10334467Y-7543508D02*
X10343991Y-7553031D01*
X10343991Y-7553031D02*
X10353515Y-7572079D01*
X10353515Y-7572079D02*
X10363039Y-7610174D01*
X10363039Y-7610174D02*
X10363039Y-7657793D01*
X10363039Y-7657793D02*
X10353515Y-7695888D01*
X10353515Y-7695888D02*
X10343991Y-7714936D01*
X10343991Y-7714936D02*
X10334467Y-7724460D01*
X10334467Y-7724460D02*
X10315420Y-7733984D01*
X10315420Y-7733984D02*
X10296372Y-7733984D01*
X10296372Y-7733984D02*
X10277324Y-7724460D01*
X10277324Y-7724460D02*
X10267801Y-7714936D01*
X10267801Y-7714936D02*
X10258277Y-7695888D01*
X10258277Y-7695888D02*
X10248753Y-7657793D01*
X10248753Y-7657793D02*
X10248753Y-7610174D01*
X10248753Y-7610174D02*
X10258277Y-7572079D01*
X10258277Y-7572079D02*
X10267801Y-7553031D01*
X10267801Y-7553031D02*
X10277324Y-7543508D01*
X10277324Y-7543508D02*
X10296372Y-7533984D01*
X10448753Y-7714936D02*
X10458277Y-7724460D01*
X10458277Y-7724460D02*
X10448753Y-7733984D01*
X10448753Y-7733984D02*
X10439229Y-7724460D01*
X10439229Y-7724460D02*
X10448753Y-7714936D01*
X10448753Y-7714936D02*
X10448753Y-7733984D01*
X10524944Y-7533984D02*
X10648753Y-7533984D01*
X10648753Y-7533984D02*
X10582086Y-7610174D01*
X10582086Y-7610174D02*
X10610658Y-7610174D01*
X10610658Y-7610174D02*
X10629705Y-7619698D01*
X10629705Y-7619698D02*
X10639229Y-7629222D01*
X10639229Y-7629222D02*
X10648753Y-7648269D01*
X10648753Y-7648269D02*
X10648753Y-7695888D01*
X10648753Y-7695888D02*
X10639229Y-7714936D01*
X10639229Y-7714936D02*
X10629705Y-7724460D01*
X10629705Y-7724460D02*
X10610658Y-7733984D01*
X10610658Y-7733984D02*
X10553515Y-7733984D01*
X10553515Y-7733984D02*
X10534467Y-7724460D01*
X10534467Y-7724460D02*
X10524944Y-7714936D01*
X10772563Y-7533984D02*
X10791610Y-7533984D01*
X10791610Y-7533984D02*
X10810658Y-7543508D01*
X10810658Y-7543508D02*
X10820182Y-7553031D01*
X10820182Y-7553031D02*
X10829705Y-7572079D01*
X10829705Y-7572079D02*
X10839229Y-7610174D01*
X10839229Y-7610174D02*
X10839229Y-7657793D01*
X10839229Y-7657793D02*
X10829705Y-7695888D01*
X10829705Y-7695888D02*
X10820182Y-7714936D01*
X10820182Y-7714936D02*
X10810658Y-7724460D01*
X10810658Y-7724460D02*
X10791610Y-7733984D01*
X10791610Y-7733984D02*
X10772563Y-7733984D01*
X10772563Y-7733984D02*
X10753515Y-7724460D01*
X10753515Y-7724460D02*
X10743991Y-7714936D01*
X10743991Y-7714936D02*
X10734467Y-7695888D01*
X10734467Y-7695888D02*
X10724944Y-7657793D01*
X10724944Y-7657793D02*
X10724944Y-7610174D01*
X10724944Y-7610174D02*
X10734467Y-7572079D01*
X10734467Y-7572079D02*
X10743991Y-7553031D01*
X10743991Y-7553031D02*
X10753515Y-7543508D01*
X10753515Y-7543508D02*
X10772563Y-7533984D01*
X10963039Y-7533984D02*
X10982086Y-7533984D01*
X10982086Y-7533984D02*
X11001134Y-7543508D01*
X11001134Y-7543508D02*
X11010658Y-7553031D01*
X11010658Y-7553031D02*
X11020182Y-7572079D01*
X11020182Y-7572079D02*
X11029705Y-7610174D01*
X11029705Y-7610174D02*
X11029705Y-7657793D01*
X11029705Y-7657793D02*
X11020182Y-7695888D01*
X11020182Y-7695888D02*
X11010658Y-7714936D01*
X11010658Y-7714936D02*
X11001134Y-7724460D01*
X11001134Y-7724460D02*
X10982086Y-7733984D01*
X10982086Y-7733984D02*
X10963039Y-7733984D01*
X10963039Y-7733984D02*
X10943991Y-7724460D01*
X10943991Y-7724460D02*
X10934467Y-7714936D01*
X10934467Y-7714936D02*
X10924944Y-7695888D01*
X10924944Y-7695888D02*
X10915420Y-7657793D01*
X10915420Y-7657793D02*
X10915420Y-7610174D01*
X10915420Y-7610174D02*
X10924944Y-7572079D01*
X10924944Y-7572079D02*
X10934467Y-7553031D01*
X10934467Y-7553031D02*
X10943991Y-7543508D01*
X10943991Y-7543508D02*
X10963039Y-7533984D01*
X11115420Y-7733984D02*
X11115420Y-7600650D01*
X11115420Y-7619698D02*
X11124944Y-7610174D01*
X11124944Y-7610174D02*
X11143991Y-7600650D01*
X11143991Y-7600650D02*
X11172563Y-7600650D01*
X11172563Y-7600650D02*
X11191610Y-7610174D01*
X11191610Y-7610174D02*
X11201134Y-7629222D01*
X11201134Y-7629222D02*
X11201134Y-7733984D01*
X11201134Y-7629222D02*
X11210658Y-7610174D01*
X11210658Y-7610174D02*
X11229705Y-7600650D01*
X11229705Y-7600650D02*
X11258277Y-7600650D01*
X11258277Y-7600650D02*
X11277324Y-7610174D01*
X11277324Y-7610174D02*
X11286848Y-7629222D01*
X11286848Y-7629222D02*
X11286848Y-7733984D01*
X11382086Y-7733984D02*
X11382086Y-7600650D01*
X11382086Y-7619698D02*
X11391610Y-7610174D01*
X11391610Y-7610174D02*
X11410658Y-7600650D01*
X11410658Y-7600650D02*
X11439229Y-7600650D01*
X11439229Y-7600650D02*
X11458277Y-7610174D01*
X11458277Y-7610174D02*
X11467801Y-7629222D01*
X11467801Y-7629222D02*
X11467801Y-7733984D01*
X11467801Y-7629222D02*
X11477324Y-7610174D01*
X11477324Y-7610174D02*
X11496372Y-7600650D01*
X11496372Y-7600650D02*
X11524943Y-7600650D01*
X11524943Y-7600650D02*
X11543991Y-7610174D01*
X11543991Y-7610174D02*
X11553515Y-7629222D01*
X11553515Y-7629222D02*
X11553515Y-7733984D01*
X11943991Y-7524460D02*
X11772563Y-7781603D01*
X12201134Y-7533984D02*
X12220182Y-7533984D01*
X12220182Y-7533984D02*
X12239229Y-7543508D01*
X12239229Y-7543508D02*
X12248753Y-7553031D01*
X12248753Y-7553031D02*
X12258277Y-7572079D01*
X12258277Y-7572079D02*
X12267801Y-7610174D01*
X12267801Y-7610174D02*
X12267801Y-7657793D01*
X12267801Y-7657793D02*
X12258277Y-7695888D01*
X12258277Y-7695888D02*
X12248753Y-7714936D01*
X12248753Y-7714936D02*
X12239229Y-7724460D01*
X12239229Y-7724460D02*
X12220182Y-7733984D01*
X12220182Y-7733984D02*
X12201134Y-7733984D01*
X12201134Y-7733984D02*
X12182086Y-7724460D01*
X12182086Y-7724460D02*
X12172563Y-7714936D01*
X12172563Y-7714936D02*
X12163039Y-7695888D01*
X12163039Y-7695888D02*
X12153515Y-7657793D01*
X12153515Y-7657793D02*
X12153515Y-7610174D01*
X12153515Y-7610174D02*
X12163039Y-7572079D01*
X12163039Y-7572079D02*
X12172563Y-7553031D01*
X12172563Y-7553031D02*
X12182086Y-7543508D01*
X12182086Y-7543508D02*
X12201134Y-7533984D01*
X12353515Y-7714936D02*
X12363039Y-7724460D01*
X12363039Y-7724460D02*
X12353515Y-7733984D01*
X12353515Y-7733984D02*
X12343991Y-7724460D01*
X12343991Y-7724460D02*
X12353515Y-7714936D01*
X12353515Y-7714936D02*
X12353515Y-7733984D01*
X12486848Y-7533984D02*
X12505896Y-7533984D01*
X12505896Y-7533984D02*
X12524944Y-7543508D01*
X12524944Y-7543508D02*
X12534467Y-7553031D01*
X12534467Y-7553031D02*
X12543991Y-7572079D01*
X12543991Y-7572079D02*
X12553515Y-7610174D01*
X12553515Y-7610174D02*
X12553515Y-7657793D01*
X12553515Y-7657793D02*
X12543991Y-7695888D01*
X12543991Y-7695888D02*
X12534467Y-7714936D01*
X12534467Y-7714936D02*
X12524944Y-7724460D01*
X12524944Y-7724460D02*
X12505896Y-7733984D01*
X12505896Y-7733984D02*
X12486848Y-7733984D01*
X12486848Y-7733984D02*
X12467801Y-7724460D01*
X12467801Y-7724460D02*
X12458277Y-7714936D01*
X12458277Y-7714936D02*
X12448753Y-7695888D01*
X12448753Y-7695888D02*
X12439229Y-7657793D01*
X12439229Y-7657793D02*
X12439229Y-7610174D01*
X12439229Y-7610174D02*
X12448753Y-7572079D01*
X12448753Y-7572079D02*
X12458277Y-7553031D01*
X12458277Y-7553031D02*
X12467801Y-7543508D01*
X12467801Y-7543508D02*
X12486848Y-7533984D01*
X12743991Y-7733984D02*
X12629706Y-7733984D01*
X12686848Y-7733984D02*
X12686848Y-7533984D01*
X12686848Y-7533984D02*
X12667801Y-7562555D01*
X12667801Y-7562555D02*
X12648753Y-7581603D01*
X12648753Y-7581603D02*
X12629706Y-7591127D01*
X12934467Y-7733984D02*
X12820182Y-7733984D01*
X12877325Y-7733984D02*
X12877325Y-7533984D01*
X12877325Y-7533984D02*
X12858277Y-7562555D01*
X12858277Y-7562555D02*
X12839229Y-7581603D01*
X12839229Y-7581603D02*
X12820182Y-7591127D01*
X13048753Y-7619698D02*
X13029706Y-7610174D01*
X13029706Y-7610174D02*
X13020182Y-7600650D01*
X13020182Y-7600650D02*
X13010658Y-7581603D01*
X13010658Y-7581603D02*
X13010658Y-7572079D01*
X13010658Y-7572079D02*
X13020182Y-7553031D01*
X13020182Y-7553031D02*
X13029706Y-7543508D01*
X13029706Y-7543508D02*
X13048753Y-7533984D01*
X13048753Y-7533984D02*
X13086848Y-7533984D01*
X13086848Y-7533984D02*
X13105896Y-7543508D01*
X13105896Y-7543508D02*
X13115420Y-7553031D01*
X13115420Y-7553031D02*
X13124944Y-7572079D01*
X13124944Y-7572079D02*
X13124944Y-7581603D01*
X13124944Y-7581603D02*
X13115420Y-7600650D01*
X13115420Y-7600650D02*
X13105896Y-7610174D01*
X13105896Y-7610174D02*
X13086848Y-7619698D01*
X13086848Y-7619698D02*
X13048753Y-7619698D01*
X13048753Y-7619698D02*
X13029706Y-7629222D01*
X13029706Y-7629222D02*
X13020182Y-7638746D01*
X13020182Y-7638746D02*
X13010658Y-7657793D01*
X13010658Y-7657793D02*
X13010658Y-7695888D01*
X13010658Y-7695888D02*
X13020182Y-7714936D01*
X13020182Y-7714936D02*
X13029706Y-7724460D01*
X13029706Y-7724460D02*
X13048753Y-7733984D01*
X13048753Y-7733984D02*
X13086848Y-7733984D01*
X13086848Y-7733984D02*
X13105896Y-7724460D01*
X13105896Y-7724460D02*
X13115420Y-7714936D01*
X13115420Y-7714936D02*
X13124944Y-7695888D01*
X13124944Y-7695888D02*
X13124944Y-7657793D01*
X13124944Y-7657793D02*
X13115420Y-7638746D01*
X13115420Y-7638746D02*
X13105896Y-7629222D01*
X13105896Y-7629222D02*
X13086848Y-7619698D01*
X13201134Y-7533984D02*
X13201134Y-7572079D01*
X13277325Y-7533984D02*
X13277325Y-7572079D01*
X13572563Y-7810174D02*
X13563039Y-7800650D01*
X13563039Y-7800650D02*
X13543991Y-7772079D01*
X13543991Y-7772079D02*
X13534468Y-7753031D01*
X13534468Y-7753031D02*
X13524944Y-7724460D01*
X13524944Y-7724460D02*
X13515420Y-7676841D01*
X13515420Y-7676841D02*
X13515420Y-7638746D01*
X13515420Y-7638746D02*
X13524944Y-7591127D01*
X13524944Y-7591127D02*
X13534468Y-7562555D01*
X13534468Y-7562555D02*
X13543991Y-7543508D01*
X13543991Y-7543508D02*
X13563039Y-7514936D01*
X13563039Y-7514936D02*
X13572563Y-7505412D01*
X13734468Y-7600650D02*
X13734468Y-7733984D01*
X13686848Y-7524460D02*
X13639229Y-7667317D01*
X13639229Y-7667317D02*
X13763039Y-7667317D01*
X13991610Y-7733984D02*
X13991610Y-7533984D01*
X14077325Y-7733984D02*
X14077325Y-7629222D01*
X14077325Y-7629222D02*
X14067801Y-7610174D01*
X14067801Y-7610174D02*
X14048753Y-7600650D01*
X14048753Y-7600650D02*
X14020182Y-7600650D01*
X14020182Y-7600650D02*
X14001134Y-7610174D01*
X14001134Y-7610174D02*
X13991610Y-7619698D01*
X14201134Y-7733984D02*
X14182087Y-7724460D01*
X14182087Y-7724460D02*
X14172563Y-7714936D01*
X14172563Y-7714936D02*
X14163039Y-7695888D01*
X14163039Y-7695888D02*
X14163039Y-7638746D01*
X14163039Y-7638746D02*
X14172563Y-7619698D01*
X14172563Y-7619698D02*
X14182087Y-7610174D01*
X14182087Y-7610174D02*
X14201134Y-7600650D01*
X14201134Y-7600650D02*
X14229706Y-7600650D01*
X14229706Y-7600650D02*
X14248753Y-7610174D01*
X14248753Y-7610174D02*
X14258277Y-7619698D01*
X14258277Y-7619698D02*
X14267801Y-7638746D01*
X14267801Y-7638746D02*
X14267801Y-7695888D01*
X14267801Y-7695888D02*
X14258277Y-7714936D01*
X14258277Y-7714936D02*
X14248753Y-7724460D01*
X14248753Y-7724460D02*
X14229706Y-7733984D01*
X14229706Y-7733984D02*
X14201134Y-7733984D01*
X14382087Y-7733984D02*
X14363039Y-7724460D01*
X14363039Y-7724460D02*
X14353515Y-7705412D01*
X14353515Y-7705412D02*
X14353515Y-7533984D01*
X14534468Y-7724460D02*
X14515420Y-7733984D01*
X14515420Y-7733984D02*
X14477325Y-7733984D01*
X14477325Y-7733984D02*
X14458277Y-7724460D01*
X14458277Y-7724460D02*
X14448753Y-7705412D01*
X14448753Y-7705412D02*
X14448753Y-7629222D01*
X14448753Y-7629222D02*
X14458277Y-7610174D01*
X14458277Y-7610174D02*
X14477325Y-7600650D01*
X14477325Y-7600650D02*
X14515420Y-7600650D01*
X14515420Y-7600650D02*
X14534468Y-7610174D01*
X14534468Y-7610174D02*
X14543991Y-7629222D01*
X14543991Y-7629222D02*
X14543991Y-7648269D01*
X14543991Y-7648269D02*
X14448753Y-7667317D01*
X14620182Y-7724460D02*
X14639230Y-7733984D01*
X14639230Y-7733984D02*
X14677325Y-7733984D01*
X14677325Y-7733984D02*
X14696372Y-7724460D01*
X14696372Y-7724460D02*
X14705896Y-7705412D01*
X14705896Y-7705412D02*
X14705896Y-7695888D01*
X14705896Y-7695888D02*
X14696372Y-7676841D01*
X14696372Y-7676841D02*
X14677325Y-7667317D01*
X14677325Y-7667317D02*
X14648753Y-7667317D01*
X14648753Y-7667317D02*
X14629706Y-7657793D01*
X14629706Y-7657793D02*
X14620182Y-7638746D01*
X14620182Y-7638746D02*
X14620182Y-7629222D01*
X14620182Y-7629222D02*
X14629706Y-7610174D01*
X14629706Y-7610174D02*
X14648753Y-7600650D01*
X14648753Y-7600650D02*
X14677325Y-7600650D01*
X14677325Y-7600650D02*
X14696372Y-7610174D01*
X14772563Y-7810174D02*
X14782087Y-7800650D01*
X14782087Y-7800650D02*
X14801134Y-7772079D01*
X14801134Y-7772079D02*
X14810658Y-7753031D01*
X14810658Y-7753031D02*
X14820182Y-7724460D01*
X14820182Y-7724460D02*
X14829706Y-7676841D01*
X14829706Y-7676841D02*
X14829706Y-7638746D01*
X14829706Y-7638746D02*
X14820182Y-7591127D01*
X14820182Y-7591127D02*
X14810658Y-7562555D01*
X14810658Y-7562555D02*
X14801134Y-7543508D01*
X14801134Y-7543508D02*
X14782087Y-7514936D01*
X14782087Y-7514936D02*
X14772563Y-7505412D01*
D12*
X9997500Y-7906500D02*
G75*
G02*
X9927500Y-7906500I-35000J0D01*
G01*
X9927500Y-7906500D02*
G75*
G02*
X9997500Y-7906500I35000J0D01*
G01*
D11*
X10296372Y-7797984D02*
X10315420Y-7797984D01*
X10315420Y-7797984D02*
X10334467Y-7807508D01*
X10334467Y-7807508D02*
X10343991Y-7817031D01*
X10343991Y-7817031D02*
X10353515Y-7836079D01*
X10353515Y-7836079D02*
X10363039Y-7874174D01*
X10363039Y-7874174D02*
X10363039Y-7921793D01*
X10363039Y-7921793D02*
X10353515Y-7959888D01*
X10353515Y-7959888D02*
X10343991Y-7978936D01*
X10343991Y-7978936D02*
X10334467Y-7988460D01*
X10334467Y-7988460D02*
X10315420Y-7997984D01*
X10315420Y-7997984D02*
X10296372Y-7997984D01*
X10296372Y-7997984D02*
X10277324Y-7988460D01*
X10277324Y-7988460D02*
X10267801Y-7978936D01*
X10267801Y-7978936D02*
X10258277Y-7959888D01*
X10258277Y-7959888D02*
X10248753Y-7921793D01*
X10248753Y-7921793D02*
X10248753Y-7874174D01*
X10248753Y-7874174D02*
X10258277Y-7836079D01*
X10258277Y-7836079D02*
X10267801Y-7817031D01*
X10267801Y-7817031D02*
X10277324Y-7807508D01*
X10277324Y-7807508D02*
X10296372Y-7797984D01*
X10448753Y-7978936D02*
X10458277Y-7988460D01*
X10458277Y-7988460D02*
X10448753Y-7997984D01*
X10448753Y-7997984D02*
X10439229Y-7988460D01*
X10439229Y-7988460D02*
X10448753Y-7978936D01*
X10448753Y-7978936D02*
X10448753Y-7997984D01*
X10524944Y-7797984D02*
X10658277Y-7797984D01*
X10658277Y-7797984D02*
X10572563Y-7997984D01*
X10772563Y-7797984D02*
X10791610Y-7797984D01*
X10791610Y-7797984D02*
X10810658Y-7807508D01*
X10810658Y-7807508D02*
X10820182Y-7817031D01*
X10820182Y-7817031D02*
X10829705Y-7836079D01*
X10829705Y-7836079D02*
X10839229Y-7874174D01*
X10839229Y-7874174D02*
X10839229Y-7921793D01*
X10839229Y-7921793D02*
X10829705Y-7959888D01*
X10829705Y-7959888D02*
X10820182Y-7978936D01*
X10820182Y-7978936D02*
X10810658Y-7988460D01*
X10810658Y-7988460D02*
X10791610Y-7997984D01*
X10791610Y-7997984D02*
X10772563Y-7997984D01*
X10772563Y-7997984D02*
X10753515Y-7988460D01*
X10753515Y-7988460D02*
X10743991Y-7978936D01*
X10743991Y-7978936D02*
X10734467Y-7959888D01*
X10734467Y-7959888D02*
X10724944Y-7921793D01*
X10724944Y-7921793D02*
X10724944Y-7874174D01*
X10724944Y-7874174D02*
X10734467Y-7836079D01*
X10734467Y-7836079D02*
X10743991Y-7817031D01*
X10743991Y-7817031D02*
X10753515Y-7807508D01*
X10753515Y-7807508D02*
X10772563Y-7797984D01*
X10963039Y-7797984D02*
X10982086Y-7797984D01*
X10982086Y-7797984D02*
X11001134Y-7807508D01*
X11001134Y-7807508D02*
X11010658Y-7817031D01*
X11010658Y-7817031D02*
X11020182Y-7836079D01*
X11020182Y-7836079D02*
X11029705Y-7874174D01*
X11029705Y-7874174D02*
X11029705Y-7921793D01*
X11029705Y-7921793D02*
X11020182Y-7959888D01*
X11020182Y-7959888D02*
X11010658Y-7978936D01*
X11010658Y-7978936D02*
X11001134Y-7988460D01*
X11001134Y-7988460D02*
X10982086Y-7997984D01*
X10982086Y-7997984D02*
X10963039Y-7997984D01*
X10963039Y-7997984D02*
X10943991Y-7988460D01*
X10943991Y-7988460D02*
X10934467Y-7978936D01*
X10934467Y-7978936D02*
X10924944Y-7959888D01*
X10924944Y-7959888D02*
X10915420Y-7921793D01*
X10915420Y-7921793D02*
X10915420Y-7874174D01*
X10915420Y-7874174D02*
X10924944Y-7836079D01*
X10924944Y-7836079D02*
X10934467Y-7817031D01*
X10934467Y-7817031D02*
X10943991Y-7807508D01*
X10943991Y-7807508D02*
X10963039Y-7797984D01*
X11115420Y-7997984D02*
X11115420Y-7864650D01*
X11115420Y-7883698D02*
X11124944Y-7874174D01*
X11124944Y-7874174D02*
X11143991Y-7864650D01*
X11143991Y-7864650D02*
X11172563Y-7864650D01*
X11172563Y-7864650D02*
X11191610Y-7874174D01*
X11191610Y-7874174D02*
X11201134Y-7893222D01*
X11201134Y-7893222D02*
X11201134Y-7997984D01*
X11201134Y-7893222D02*
X11210658Y-7874174D01*
X11210658Y-7874174D02*
X11229705Y-7864650D01*
X11229705Y-7864650D02*
X11258277Y-7864650D01*
X11258277Y-7864650D02*
X11277324Y-7874174D01*
X11277324Y-7874174D02*
X11286848Y-7893222D01*
X11286848Y-7893222D02*
X11286848Y-7997984D01*
X11382086Y-7997984D02*
X11382086Y-7864650D01*
X11382086Y-7883698D02*
X11391610Y-7874174D01*
X11391610Y-7874174D02*
X11410658Y-7864650D01*
X11410658Y-7864650D02*
X11439229Y-7864650D01*
X11439229Y-7864650D02*
X11458277Y-7874174D01*
X11458277Y-7874174D02*
X11467801Y-7893222D01*
X11467801Y-7893222D02*
X11467801Y-7997984D01*
X11467801Y-7893222D02*
X11477324Y-7874174D01*
X11477324Y-7874174D02*
X11496372Y-7864650D01*
X11496372Y-7864650D02*
X11524943Y-7864650D01*
X11524943Y-7864650D02*
X11543991Y-7874174D01*
X11543991Y-7874174D02*
X11553515Y-7893222D01*
X11553515Y-7893222D02*
X11553515Y-7997984D01*
X11943991Y-7788460D02*
X11772563Y-8045603D01*
X12201134Y-7797984D02*
X12220182Y-7797984D01*
X12220182Y-7797984D02*
X12239229Y-7807508D01*
X12239229Y-7807508D02*
X12248753Y-7817031D01*
X12248753Y-7817031D02*
X12258277Y-7836079D01*
X12258277Y-7836079D02*
X12267801Y-7874174D01*
X12267801Y-7874174D02*
X12267801Y-7921793D01*
X12267801Y-7921793D02*
X12258277Y-7959888D01*
X12258277Y-7959888D02*
X12248753Y-7978936D01*
X12248753Y-7978936D02*
X12239229Y-7988460D01*
X12239229Y-7988460D02*
X12220182Y-7997984D01*
X12220182Y-7997984D02*
X12201134Y-7997984D01*
X12201134Y-7997984D02*
X12182086Y-7988460D01*
X12182086Y-7988460D02*
X12172563Y-7978936D01*
X12172563Y-7978936D02*
X12163039Y-7959888D01*
X12163039Y-7959888D02*
X12153515Y-7921793D01*
X12153515Y-7921793D02*
X12153515Y-7874174D01*
X12153515Y-7874174D02*
X12163039Y-7836079D01*
X12163039Y-7836079D02*
X12172563Y-7817031D01*
X12172563Y-7817031D02*
X12182086Y-7807508D01*
X12182086Y-7807508D02*
X12201134Y-7797984D01*
X12353515Y-7978936D02*
X12363039Y-7988460D01*
X12363039Y-7988460D02*
X12353515Y-7997984D01*
X12353515Y-7997984D02*
X12343991Y-7988460D01*
X12343991Y-7988460D02*
X12353515Y-7978936D01*
X12353515Y-7978936D02*
X12353515Y-7997984D01*
X12486848Y-7797984D02*
X12505896Y-7797984D01*
X12505896Y-7797984D02*
X12524944Y-7807508D01*
X12524944Y-7807508D02*
X12534467Y-7817031D01*
X12534467Y-7817031D02*
X12543991Y-7836079D01*
X12543991Y-7836079D02*
X12553515Y-7874174D01*
X12553515Y-7874174D02*
X12553515Y-7921793D01*
X12553515Y-7921793D02*
X12543991Y-7959888D01*
X12543991Y-7959888D02*
X12534467Y-7978936D01*
X12534467Y-7978936D02*
X12524944Y-7988460D01*
X12524944Y-7988460D02*
X12505896Y-7997984D01*
X12505896Y-7997984D02*
X12486848Y-7997984D01*
X12486848Y-7997984D02*
X12467801Y-7988460D01*
X12467801Y-7988460D02*
X12458277Y-7978936D01*
X12458277Y-7978936D02*
X12448753Y-7959888D01*
X12448753Y-7959888D02*
X12439229Y-7921793D01*
X12439229Y-7921793D02*
X12439229Y-7874174D01*
X12439229Y-7874174D02*
X12448753Y-7836079D01*
X12448753Y-7836079D02*
X12458277Y-7817031D01*
X12458277Y-7817031D02*
X12467801Y-7807508D01*
X12467801Y-7807508D02*
X12486848Y-7797984D01*
X12629706Y-7817031D02*
X12639229Y-7807508D01*
X12639229Y-7807508D02*
X12658277Y-7797984D01*
X12658277Y-7797984D02*
X12705896Y-7797984D01*
X12705896Y-7797984D02*
X12724944Y-7807508D01*
X12724944Y-7807508D02*
X12734467Y-7817031D01*
X12734467Y-7817031D02*
X12743991Y-7836079D01*
X12743991Y-7836079D02*
X12743991Y-7855127D01*
X12743991Y-7855127D02*
X12734467Y-7883698D01*
X12734467Y-7883698D02*
X12620182Y-7997984D01*
X12620182Y-7997984D02*
X12743991Y-7997984D01*
X12810658Y-7797984D02*
X12943991Y-7797984D01*
X12943991Y-7797984D02*
X12858277Y-7997984D01*
X13105896Y-7797984D02*
X13067801Y-7797984D01*
X13067801Y-7797984D02*
X13048753Y-7807508D01*
X13048753Y-7807508D02*
X13039229Y-7817031D01*
X13039229Y-7817031D02*
X13020182Y-7845603D01*
X13020182Y-7845603D02*
X13010658Y-7883698D01*
X13010658Y-7883698D02*
X13010658Y-7959888D01*
X13010658Y-7959888D02*
X13020182Y-7978936D01*
X13020182Y-7978936D02*
X13029706Y-7988460D01*
X13029706Y-7988460D02*
X13048753Y-7997984D01*
X13048753Y-7997984D02*
X13086848Y-7997984D01*
X13086848Y-7997984D02*
X13105896Y-7988460D01*
X13105896Y-7988460D02*
X13115420Y-7978936D01*
X13115420Y-7978936D02*
X13124944Y-7959888D01*
X13124944Y-7959888D02*
X13124944Y-7912269D01*
X13124944Y-7912269D02*
X13115420Y-7893222D01*
X13115420Y-7893222D02*
X13105896Y-7883698D01*
X13105896Y-7883698D02*
X13086848Y-7874174D01*
X13086848Y-7874174D02*
X13048753Y-7874174D01*
X13048753Y-7874174D02*
X13029706Y-7883698D01*
X13029706Y-7883698D02*
X13020182Y-7893222D01*
X13020182Y-7893222D02*
X13010658Y-7912269D01*
X13201134Y-7797984D02*
X13201134Y-7836079D01*
X13277325Y-7797984D02*
X13277325Y-7836079D01*
X13572563Y-8074174D02*
X13563039Y-8064650D01*
X13563039Y-8064650D02*
X13543991Y-8036079D01*
X13543991Y-8036079D02*
X13534468Y-8017031D01*
X13534468Y-8017031D02*
X13524944Y-7988460D01*
X13524944Y-7988460D02*
X13515420Y-7940841D01*
X13515420Y-7940841D02*
X13515420Y-7902746D01*
X13515420Y-7902746D02*
X13524944Y-7855127D01*
X13524944Y-7855127D02*
X13534468Y-7826555D01*
X13534468Y-7826555D02*
X13543991Y-7807508D01*
X13543991Y-7807508D02*
X13563039Y-7778936D01*
X13563039Y-7778936D02*
X13572563Y-7769412D01*
X13753515Y-7997984D02*
X13639229Y-7997984D01*
X13696372Y-7997984D02*
X13696372Y-7797984D01*
X13696372Y-7797984D02*
X13677325Y-7826555D01*
X13677325Y-7826555D02*
X13658277Y-7845603D01*
X13658277Y-7845603D02*
X13639229Y-7855127D01*
X13877325Y-7797984D02*
X13896372Y-7797984D01*
X13896372Y-7797984D02*
X13915420Y-7807508D01*
X13915420Y-7807508D02*
X13924944Y-7817031D01*
X13924944Y-7817031D02*
X13934468Y-7836079D01*
X13934468Y-7836079D02*
X13943991Y-7874174D01*
X13943991Y-7874174D02*
X13943991Y-7921793D01*
X13943991Y-7921793D02*
X13934468Y-7959888D01*
X13934468Y-7959888D02*
X13924944Y-7978936D01*
X13924944Y-7978936D02*
X13915420Y-7988460D01*
X13915420Y-7988460D02*
X13896372Y-7997984D01*
X13896372Y-7997984D02*
X13877325Y-7997984D01*
X13877325Y-7997984D02*
X13858277Y-7988460D01*
X13858277Y-7988460D02*
X13848753Y-7978936D01*
X13848753Y-7978936D02*
X13839229Y-7959888D01*
X13839229Y-7959888D02*
X13829706Y-7921793D01*
X13829706Y-7921793D02*
X13829706Y-7874174D01*
X13829706Y-7874174D02*
X13839229Y-7836079D01*
X13839229Y-7836079D02*
X13848753Y-7817031D01*
X13848753Y-7817031D02*
X13858277Y-7807508D01*
X13858277Y-7807508D02*
X13877325Y-7797984D01*
X14182087Y-7997984D02*
X14182087Y-7797984D01*
X14267801Y-7997984D02*
X14267801Y-7893222D01*
X14267801Y-7893222D02*
X14258277Y-7874174D01*
X14258277Y-7874174D02*
X14239230Y-7864650D01*
X14239230Y-7864650D02*
X14210658Y-7864650D01*
X14210658Y-7864650D02*
X14191610Y-7874174D01*
X14191610Y-7874174D02*
X14182087Y-7883698D01*
X14391610Y-7997984D02*
X14372563Y-7988460D01*
X14372563Y-7988460D02*
X14363039Y-7978936D01*
X14363039Y-7978936D02*
X14353515Y-7959888D01*
X14353515Y-7959888D02*
X14353515Y-7902746D01*
X14353515Y-7902746D02*
X14363039Y-7883698D01*
X14363039Y-7883698D02*
X14372563Y-7874174D01*
X14372563Y-7874174D02*
X14391610Y-7864650D01*
X14391610Y-7864650D02*
X14420182Y-7864650D01*
X14420182Y-7864650D02*
X14439230Y-7874174D01*
X14439230Y-7874174D02*
X14448753Y-7883698D01*
X14448753Y-7883698D02*
X14458277Y-7902746D01*
X14458277Y-7902746D02*
X14458277Y-7959888D01*
X14458277Y-7959888D02*
X14448753Y-7978936D01*
X14448753Y-7978936D02*
X14439230Y-7988460D01*
X14439230Y-7988460D02*
X14420182Y-7997984D01*
X14420182Y-7997984D02*
X14391610Y-7997984D01*
X14572563Y-7997984D02*
X14553515Y-7988460D01*
X14553515Y-7988460D02*
X14543991Y-7969412D01*
X14543991Y-7969412D02*
X14543991Y-7797984D01*
X14724944Y-7988460D02*
X14705896Y-7997984D01*
X14705896Y-7997984D02*
X14667801Y-7997984D01*
X14667801Y-7997984D02*
X14648753Y-7988460D01*
X14648753Y-7988460D02*
X14639230Y-7969412D01*
X14639230Y-7969412D02*
X14639230Y-7893222D01*
X14639230Y-7893222D02*
X14648753Y-7874174D01*
X14648753Y-7874174D02*
X14667801Y-7864650D01*
X14667801Y-7864650D02*
X14705896Y-7864650D01*
X14705896Y-7864650D02*
X14724944Y-7874174D01*
X14724944Y-7874174D02*
X14734468Y-7893222D01*
X14734468Y-7893222D02*
X14734468Y-7912269D01*
X14734468Y-7912269D02*
X14639230Y-7931317D01*
X14810658Y-7988460D02*
X14829706Y-7997984D01*
X14829706Y-7997984D02*
X14867801Y-7997984D01*
X14867801Y-7997984D02*
X14886849Y-7988460D01*
X14886849Y-7988460D02*
X14896372Y-7969412D01*
X14896372Y-7969412D02*
X14896372Y-7959888D01*
X14896372Y-7959888D02*
X14886849Y-7940841D01*
X14886849Y-7940841D02*
X14867801Y-7931317D01*
X14867801Y-7931317D02*
X14839230Y-7931317D01*
X14839230Y-7931317D02*
X14820182Y-7921793D01*
X14820182Y-7921793D02*
X14810658Y-7902746D01*
X14810658Y-7902746D02*
X14810658Y-7893222D01*
X14810658Y-7893222D02*
X14820182Y-7874174D01*
X14820182Y-7874174D02*
X14839230Y-7864650D01*
X14839230Y-7864650D02*
X14867801Y-7864650D01*
X14867801Y-7864650D02*
X14886849Y-7874174D01*
X14963039Y-8074174D02*
X14972563Y-8064650D01*
X14972563Y-8064650D02*
X14991611Y-8036079D01*
X14991611Y-8036079D02*
X15001134Y-8017031D01*
X15001134Y-8017031D02*
X15010658Y-7988460D01*
X15010658Y-7988460D02*
X15020182Y-7940841D01*
X15020182Y-7940841D02*
X15020182Y-7902746D01*
X15020182Y-7902746D02*
X15010658Y-7855127D01*
X15010658Y-7855127D02*
X15001134Y-7826555D01*
X15001134Y-7826555D02*
X14991611Y-7807508D01*
X14991611Y-7807508D02*
X14972563Y-7778936D01*
X14972563Y-7778936D02*
X14963039Y-7769412D01*
D12*
X9957500Y-8130500D02*
X9957500Y-8210500D01*
X9917500Y-8170500D02*
X9997500Y-8170500D01*
D11*
X10296372Y-8061984D02*
X10315420Y-8061984D01*
X10315420Y-8061984D02*
X10334467Y-8071508D01*
X10334467Y-8071508D02*
X10343991Y-8081031D01*
X10343991Y-8081031D02*
X10353515Y-8100079D01*
X10353515Y-8100079D02*
X10363039Y-8138174D01*
X10363039Y-8138174D02*
X10363039Y-8185793D01*
X10363039Y-8185793D02*
X10353515Y-8223888D01*
X10353515Y-8223888D02*
X10343991Y-8242936D01*
X10343991Y-8242936D02*
X10334467Y-8252460D01*
X10334467Y-8252460D02*
X10315420Y-8261984D01*
X10315420Y-8261984D02*
X10296372Y-8261984D01*
X10296372Y-8261984D02*
X10277324Y-8252460D01*
X10277324Y-8252460D02*
X10267801Y-8242936D01*
X10267801Y-8242936D02*
X10258277Y-8223888D01*
X10258277Y-8223888D02*
X10248753Y-8185793D01*
X10248753Y-8185793D02*
X10248753Y-8138174D01*
X10248753Y-8138174D02*
X10258277Y-8100079D01*
X10258277Y-8100079D02*
X10267801Y-8081031D01*
X10267801Y-8081031D02*
X10277324Y-8071508D01*
X10277324Y-8071508D02*
X10296372Y-8061984D01*
X10448753Y-8242936D02*
X10458277Y-8252460D01*
X10458277Y-8252460D02*
X10448753Y-8261984D01*
X10448753Y-8261984D02*
X10439229Y-8252460D01*
X10439229Y-8252460D02*
X10448753Y-8242936D01*
X10448753Y-8242936D02*
X10448753Y-8261984D01*
X10572563Y-8147698D02*
X10553515Y-8138174D01*
X10553515Y-8138174D02*
X10543991Y-8128650D01*
X10543991Y-8128650D02*
X10534467Y-8109603D01*
X10534467Y-8109603D02*
X10534467Y-8100079D01*
X10534467Y-8100079D02*
X10543991Y-8081031D01*
X10543991Y-8081031D02*
X10553515Y-8071508D01*
X10553515Y-8071508D02*
X10572563Y-8061984D01*
X10572563Y-8061984D02*
X10610658Y-8061984D01*
X10610658Y-8061984D02*
X10629705Y-8071508D01*
X10629705Y-8071508D02*
X10639229Y-8081031D01*
X10639229Y-8081031D02*
X10648753Y-8100079D01*
X10648753Y-8100079D02*
X10648753Y-8109603D01*
X10648753Y-8109603D02*
X10639229Y-8128650D01*
X10639229Y-8128650D02*
X10629705Y-8138174D01*
X10629705Y-8138174D02*
X10610658Y-8147698D01*
X10610658Y-8147698D02*
X10572563Y-8147698D01*
X10572563Y-8147698D02*
X10553515Y-8157222D01*
X10553515Y-8157222D02*
X10543991Y-8166746D01*
X10543991Y-8166746D02*
X10534467Y-8185793D01*
X10534467Y-8185793D02*
X10534467Y-8223888D01*
X10534467Y-8223888D02*
X10543991Y-8242936D01*
X10543991Y-8242936D02*
X10553515Y-8252460D01*
X10553515Y-8252460D02*
X10572563Y-8261984D01*
X10572563Y-8261984D02*
X10610658Y-8261984D01*
X10610658Y-8261984D02*
X10629705Y-8252460D01*
X10629705Y-8252460D02*
X10639229Y-8242936D01*
X10639229Y-8242936D02*
X10648753Y-8223888D01*
X10648753Y-8223888D02*
X10648753Y-8185793D01*
X10648753Y-8185793D02*
X10639229Y-8166746D01*
X10639229Y-8166746D02*
X10629705Y-8157222D01*
X10629705Y-8157222D02*
X10610658Y-8147698D01*
X10772563Y-8061984D02*
X10791610Y-8061984D01*
X10791610Y-8061984D02*
X10810658Y-8071508D01*
X10810658Y-8071508D02*
X10820182Y-8081031D01*
X10820182Y-8081031D02*
X10829705Y-8100079D01*
X10829705Y-8100079D02*
X10839229Y-8138174D01*
X10839229Y-8138174D02*
X10839229Y-8185793D01*
X10839229Y-8185793D02*
X10829705Y-8223888D01*
X10829705Y-8223888D02*
X10820182Y-8242936D01*
X10820182Y-8242936D02*
X10810658Y-8252460D01*
X10810658Y-8252460D02*
X10791610Y-8261984D01*
X10791610Y-8261984D02*
X10772563Y-8261984D01*
X10772563Y-8261984D02*
X10753515Y-8252460D01*
X10753515Y-8252460D02*
X10743991Y-8242936D01*
X10743991Y-8242936D02*
X10734467Y-8223888D01*
X10734467Y-8223888D02*
X10724944Y-8185793D01*
X10724944Y-8185793D02*
X10724944Y-8138174D01*
X10724944Y-8138174D02*
X10734467Y-8100079D01*
X10734467Y-8100079D02*
X10743991Y-8081031D01*
X10743991Y-8081031D02*
X10753515Y-8071508D01*
X10753515Y-8071508D02*
X10772563Y-8061984D01*
X10963039Y-8061984D02*
X10982086Y-8061984D01*
X10982086Y-8061984D02*
X11001134Y-8071508D01*
X11001134Y-8071508D02*
X11010658Y-8081031D01*
X11010658Y-8081031D02*
X11020182Y-8100079D01*
X11020182Y-8100079D02*
X11029705Y-8138174D01*
X11029705Y-8138174D02*
X11029705Y-8185793D01*
X11029705Y-8185793D02*
X11020182Y-8223888D01*
X11020182Y-8223888D02*
X11010658Y-8242936D01*
X11010658Y-8242936D02*
X11001134Y-8252460D01*
X11001134Y-8252460D02*
X10982086Y-8261984D01*
X10982086Y-8261984D02*
X10963039Y-8261984D01*
X10963039Y-8261984D02*
X10943991Y-8252460D01*
X10943991Y-8252460D02*
X10934467Y-8242936D01*
X10934467Y-8242936D02*
X10924944Y-8223888D01*
X10924944Y-8223888D02*
X10915420Y-8185793D01*
X10915420Y-8185793D02*
X10915420Y-8138174D01*
X10915420Y-8138174D02*
X10924944Y-8100079D01*
X10924944Y-8100079D02*
X10934467Y-8081031D01*
X10934467Y-8081031D02*
X10943991Y-8071508D01*
X10943991Y-8071508D02*
X10963039Y-8061984D01*
X11115420Y-8261984D02*
X11115420Y-8128650D01*
X11115420Y-8147698D02*
X11124944Y-8138174D01*
X11124944Y-8138174D02*
X11143991Y-8128650D01*
X11143991Y-8128650D02*
X11172563Y-8128650D01*
X11172563Y-8128650D02*
X11191610Y-8138174D01*
X11191610Y-8138174D02*
X11201134Y-8157222D01*
X11201134Y-8157222D02*
X11201134Y-8261984D01*
X11201134Y-8157222D02*
X11210658Y-8138174D01*
X11210658Y-8138174D02*
X11229705Y-8128650D01*
X11229705Y-8128650D02*
X11258277Y-8128650D01*
X11258277Y-8128650D02*
X11277324Y-8138174D01*
X11277324Y-8138174D02*
X11286848Y-8157222D01*
X11286848Y-8157222D02*
X11286848Y-8261984D01*
X11382086Y-8261984D02*
X11382086Y-8128650D01*
X11382086Y-8147698D02*
X11391610Y-8138174D01*
X11391610Y-8138174D02*
X11410658Y-8128650D01*
X11410658Y-8128650D02*
X11439229Y-8128650D01*
X11439229Y-8128650D02*
X11458277Y-8138174D01*
X11458277Y-8138174D02*
X11467801Y-8157222D01*
X11467801Y-8157222D02*
X11467801Y-8261984D01*
X11467801Y-8157222D02*
X11477324Y-8138174D01*
X11477324Y-8138174D02*
X11496372Y-8128650D01*
X11496372Y-8128650D02*
X11524943Y-8128650D01*
X11524943Y-8128650D02*
X11543991Y-8138174D01*
X11543991Y-8138174D02*
X11553515Y-8157222D01*
X11553515Y-8157222D02*
X11553515Y-8261984D01*
X11943991Y-8052460D02*
X11772563Y-8309603D01*
X12201134Y-8061984D02*
X12220182Y-8061984D01*
X12220182Y-8061984D02*
X12239229Y-8071508D01*
X12239229Y-8071508D02*
X12248753Y-8081031D01*
X12248753Y-8081031D02*
X12258277Y-8100079D01*
X12258277Y-8100079D02*
X12267801Y-8138174D01*
X12267801Y-8138174D02*
X12267801Y-8185793D01*
X12267801Y-8185793D02*
X12258277Y-8223888D01*
X12258277Y-8223888D02*
X12248753Y-8242936D01*
X12248753Y-8242936D02*
X12239229Y-8252460D01*
X12239229Y-8252460D02*
X12220182Y-8261984D01*
X12220182Y-8261984D02*
X12201134Y-8261984D01*
X12201134Y-8261984D02*
X12182086Y-8252460D01*
X12182086Y-8252460D02*
X12172563Y-8242936D01*
X12172563Y-8242936D02*
X12163039Y-8223888D01*
X12163039Y-8223888D02*
X12153515Y-8185793D01*
X12153515Y-8185793D02*
X12153515Y-8138174D01*
X12153515Y-8138174D02*
X12163039Y-8100079D01*
X12163039Y-8100079D02*
X12172563Y-8081031D01*
X12172563Y-8081031D02*
X12182086Y-8071508D01*
X12182086Y-8071508D02*
X12201134Y-8061984D01*
X12353515Y-8242936D02*
X12363039Y-8252460D01*
X12363039Y-8252460D02*
X12353515Y-8261984D01*
X12353515Y-8261984D02*
X12343991Y-8252460D01*
X12343991Y-8252460D02*
X12353515Y-8242936D01*
X12353515Y-8242936D02*
X12353515Y-8261984D01*
X12486848Y-8061984D02*
X12505896Y-8061984D01*
X12505896Y-8061984D02*
X12524944Y-8071508D01*
X12524944Y-8071508D02*
X12534467Y-8081031D01*
X12534467Y-8081031D02*
X12543991Y-8100079D01*
X12543991Y-8100079D02*
X12553515Y-8138174D01*
X12553515Y-8138174D02*
X12553515Y-8185793D01*
X12553515Y-8185793D02*
X12543991Y-8223888D01*
X12543991Y-8223888D02*
X12534467Y-8242936D01*
X12534467Y-8242936D02*
X12524944Y-8252460D01*
X12524944Y-8252460D02*
X12505896Y-8261984D01*
X12505896Y-8261984D02*
X12486848Y-8261984D01*
X12486848Y-8261984D02*
X12467801Y-8252460D01*
X12467801Y-8252460D02*
X12458277Y-8242936D01*
X12458277Y-8242936D02*
X12448753Y-8223888D01*
X12448753Y-8223888D02*
X12439229Y-8185793D01*
X12439229Y-8185793D02*
X12439229Y-8138174D01*
X12439229Y-8138174D02*
X12448753Y-8100079D01*
X12448753Y-8100079D02*
X12458277Y-8081031D01*
X12458277Y-8081031D02*
X12467801Y-8071508D01*
X12467801Y-8071508D02*
X12486848Y-8061984D01*
X12620182Y-8061984D02*
X12743991Y-8061984D01*
X12743991Y-8061984D02*
X12677325Y-8138174D01*
X12677325Y-8138174D02*
X12705896Y-8138174D01*
X12705896Y-8138174D02*
X12724944Y-8147698D01*
X12724944Y-8147698D02*
X12734467Y-8157222D01*
X12734467Y-8157222D02*
X12743991Y-8176269D01*
X12743991Y-8176269D02*
X12743991Y-8223888D01*
X12743991Y-8223888D02*
X12734467Y-8242936D01*
X12734467Y-8242936D02*
X12724944Y-8252460D01*
X12724944Y-8252460D02*
X12705896Y-8261984D01*
X12705896Y-8261984D02*
X12648753Y-8261984D01*
X12648753Y-8261984D02*
X12629706Y-8252460D01*
X12629706Y-8252460D02*
X12620182Y-8242936D01*
X12934467Y-8261984D02*
X12820182Y-8261984D01*
X12877325Y-8261984D02*
X12877325Y-8061984D01*
X12877325Y-8061984D02*
X12858277Y-8090555D01*
X12858277Y-8090555D02*
X12839229Y-8109603D01*
X12839229Y-8109603D02*
X12820182Y-8119127D01*
X13115420Y-8061984D02*
X13020182Y-8061984D01*
X13020182Y-8061984D02*
X13010658Y-8157222D01*
X13010658Y-8157222D02*
X13020182Y-8147698D01*
X13020182Y-8147698D02*
X13039229Y-8138174D01*
X13039229Y-8138174D02*
X13086848Y-8138174D01*
X13086848Y-8138174D02*
X13105896Y-8147698D01*
X13105896Y-8147698D02*
X13115420Y-8157222D01*
X13115420Y-8157222D02*
X13124944Y-8176269D01*
X13124944Y-8176269D02*
X13124944Y-8223888D01*
X13124944Y-8223888D02*
X13115420Y-8242936D01*
X13115420Y-8242936D02*
X13105896Y-8252460D01*
X13105896Y-8252460D02*
X13086848Y-8261984D01*
X13086848Y-8261984D02*
X13039229Y-8261984D01*
X13039229Y-8261984D02*
X13020182Y-8252460D01*
X13020182Y-8252460D02*
X13010658Y-8242936D01*
X13201134Y-8061984D02*
X13201134Y-8100079D01*
X13277325Y-8061984D02*
X13277325Y-8100079D01*
X13572563Y-8338174D02*
X13563039Y-8328650D01*
X13563039Y-8328650D02*
X13543991Y-8300079D01*
X13543991Y-8300079D02*
X13534468Y-8281031D01*
X13534468Y-8281031D02*
X13524944Y-8252460D01*
X13524944Y-8252460D02*
X13515420Y-8204841D01*
X13515420Y-8204841D02*
X13515420Y-8166746D01*
X13515420Y-8166746D02*
X13524944Y-8119127D01*
X13524944Y-8119127D02*
X13534468Y-8090555D01*
X13534468Y-8090555D02*
X13543991Y-8071508D01*
X13543991Y-8071508D02*
X13563039Y-8042936D01*
X13563039Y-8042936D02*
X13572563Y-8033412D01*
X13734468Y-8061984D02*
X13696372Y-8061984D01*
X13696372Y-8061984D02*
X13677325Y-8071508D01*
X13677325Y-8071508D02*
X13667801Y-8081031D01*
X13667801Y-8081031D02*
X13648753Y-8109603D01*
X13648753Y-8109603D02*
X13639229Y-8147698D01*
X13639229Y-8147698D02*
X13639229Y-8223888D01*
X13639229Y-8223888D02*
X13648753Y-8242936D01*
X13648753Y-8242936D02*
X13658277Y-8252460D01*
X13658277Y-8252460D02*
X13677325Y-8261984D01*
X13677325Y-8261984D02*
X13715420Y-8261984D01*
X13715420Y-8261984D02*
X13734468Y-8252460D01*
X13734468Y-8252460D02*
X13743991Y-8242936D01*
X13743991Y-8242936D02*
X13753515Y-8223888D01*
X13753515Y-8223888D02*
X13753515Y-8176269D01*
X13753515Y-8176269D02*
X13743991Y-8157222D01*
X13743991Y-8157222D02*
X13734468Y-8147698D01*
X13734468Y-8147698D02*
X13715420Y-8138174D01*
X13715420Y-8138174D02*
X13677325Y-8138174D01*
X13677325Y-8138174D02*
X13658277Y-8147698D01*
X13658277Y-8147698D02*
X13648753Y-8157222D01*
X13648753Y-8157222D02*
X13639229Y-8176269D01*
X13991610Y-8261984D02*
X13991610Y-8061984D01*
X14077325Y-8261984D02*
X14077325Y-8157222D01*
X14077325Y-8157222D02*
X14067801Y-8138174D01*
X14067801Y-8138174D02*
X14048753Y-8128650D01*
X14048753Y-8128650D02*
X14020182Y-8128650D01*
X14020182Y-8128650D02*
X14001134Y-8138174D01*
X14001134Y-8138174D02*
X13991610Y-8147698D01*
X14201134Y-8261984D02*
X14182087Y-8252460D01*
X14182087Y-8252460D02*
X14172563Y-8242936D01*
X14172563Y-8242936D02*
X14163039Y-8223888D01*
X14163039Y-8223888D02*
X14163039Y-8166746D01*
X14163039Y-8166746D02*
X14172563Y-8147698D01*
X14172563Y-8147698D02*
X14182087Y-8138174D01*
X14182087Y-8138174D02*
X14201134Y-8128650D01*
X14201134Y-8128650D02*
X14229706Y-8128650D01*
X14229706Y-8128650D02*
X14248753Y-8138174D01*
X14248753Y-8138174D02*
X14258277Y-8147698D01*
X14258277Y-8147698D02*
X14267801Y-8166746D01*
X14267801Y-8166746D02*
X14267801Y-8223888D01*
X14267801Y-8223888D02*
X14258277Y-8242936D01*
X14258277Y-8242936D02*
X14248753Y-8252460D01*
X14248753Y-8252460D02*
X14229706Y-8261984D01*
X14229706Y-8261984D02*
X14201134Y-8261984D01*
X14382087Y-8261984D02*
X14363039Y-8252460D01*
X14363039Y-8252460D02*
X14353515Y-8233412D01*
X14353515Y-8233412D02*
X14353515Y-8061984D01*
X14534468Y-8252460D02*
X14515420Y-8261984D01*
X14515420Y-8261984D02*
X14477325Y-8261984D01*
X14477325Y-8261984D02*
X14458277Y-8252460D01*
X14458277Y-8252460D02*
X14448753Y-8233412D01*
X14448753Y-8233412D02*
X14448753Y-8157222D01*
X14448753Y-8157222D02*
X14458277Y-8138174D01*
X14458277Y-8138174D02*
X14477325Y-8128650D01*
X14477325Y-8128650D02*
X14515420Y-8128650D01*
X14515420Y-8128650D02*
X14534468Y-8138174D01*
X14534468Y-8138174D02*
X14543991Y-8157222D01*
X14543991Y-8157222D02*
X14543991Y-8176269D01*
X14543991Y-8176269D02*
X14448753Y-8195317D01*
X14620182Y-8252460D02*
X14639230Y-8261984D01*
X14639230Y-8261984D02*
X14677325Y-8261984D01*
X14677325Y-8261984D02*
X14696372Y-8252460D01*
X14696372Y-8252460D02*
X14705896Y-8233412D01*
X14705896Y-8233412D02*
X14705896Y-8223888D01*
X14705896Y-8223888D02*
X14696372Y-8204841D01*
X14696372Y-8204841D02*
X14677325Y-8195317D01*
X14677325Y-8195317D02*
X14648753Y-8195317D01*
X14648753Y-8195317D02*
X14629706Y-8185793D01*
X14629706Y-8185793D02*
X14620182Y-8166746D01*
X14620182Y-8166746D02*
X14620182Y-8157222D01*
X14620182Y-8157222D02*
X14629706Y-8138174D01*
X14629706Y-8138174D02*
X14648753Y-8128650D01*
X14648753Y-8128650D02*
X14677325Y-8128650D01*
X14677325Y-8128650D02*
X14696372Y-8138174D01*
X14772563Y-8338174D02*
X14782087Y-8328650D01*
X14782087Y-8328650D02*
X14801134Y-8300079D01*
X14801134Y-8300079D02*
X14810658Y-8281031D01*
X14810658Y-8281031D02*
X14820182Y-8252460D01*
X14820182Y-8252460D02*
X14829706Y-8204841D01*
X14829706Y-8204841D02*
X14829706Y-8166746D01*
X14829706Y-8166746D02*
X14820182Y-8119127D01*
X14820182Y-8119127D02*
X14810658Y-8090555D01*
X14810658Y-8090555D02*
X14801134Y-8071508D01*
X14801134Y-8071508D02*
X14782087Y-8042936D01*
X14782087Y-8042936D02*
X14772563Y-8033412D01*
D12*
X9984320Y-8466320D02*
X9984320Y-8402680D01*
X9920680Y-8402680D01*
X9920680Y-8466320D01*
X9984320Y-8466320D01*
D11*
X10296372Y-8325984D02*
X10315420Y-8325984D01*
X10315420Y-8325984D02*
X10334467Y-8335508D01*
X10334467Y-8335508D02*
X10343991Y-8345031D01*
X10343991Y-8345031D02*
X10353515Y-8364079D01*
X10353515Y-8364079D02*
X10363039Y-8402174D01*
X10363039Y-8402174D02*
X10363039Y-8449793D01*
X10363039Y-8449793D02*
X10353515Y-8487889D01*
X10353515Y-8487889D02*
X10343991Y-8506936D01*
X10343991Y-8506936D02*
X10334467Y-8516460D01*
X10334467Y-8516460D02*
X10315420Y-8525984D01*
X10315420Y-8525984D02*
X10296372Y-8525984D01*
X10296372Y-8525984D02*
X10277324Y-8516460D01*
X10277324Y-8516460D02*
X10267801Y-8506936D01*
X10267801Y-8506936D02*
X10258277Y-8487889D01*
X10258277Y-8487889D02*
X10248753Y-8449793D01*
X10248753Y-8449793D02*
X10248753Y-8402174D01*
X10248753Y-8402174D02*
X10258277Y-8364079D01*
X10258277Y-8364079D02*
X10267801Y-8345031D01*
X10267801Y-8345031D02*
X10277324Y-8335508D01*
X10277324Y-8335508D02*
X10296372Y-8325984D01*
X10448753Y-8506936D02*
X10458277Y-8516460D01*
X10458277Y-8516460D02*
X10448753Y-8525984D01*
X10448753Y-8525984D02*
X10439229Y-8516460D01*
X10439229Y-8516460D02*
X10448753Y-8506936D01*
X10448753Y-8506936D02*
X10448753Y-8525984D01*
X10553515Y-8525984D02*
X10591610Y-8525984D01*
X10591610Y-8525984D02*
X10610658Y-8516460D01*
X10610658Y-8516460D02*
X10620182Y-8506936D01*
X10620182Y-8506936D02*
X10639229Y-8478365D01*
X10639229Y-8478365D02*
X10648753Y-8440270D01*
X10648753Y-8440270D02*
X10648753Y-8364079D01*
X10648753Y-8364079D02*
X10639229Y-8345031D01*
X10639229Y-8345031D02*
X10629705Y-8335508D01*
X10629705Y-8335508D02*
X10610658Y-8325984D01*
X10610658Y-8325984D02*
X10572563Y-8325984D01*
X10572563Y-8325984D02*
X10553515Y-8335508D01*
X10553515Y-8335508D02*
X10543991Y-8345031D01*
X10543991Y-8345031D02*
X10534467Y-8364079D01*
X10534467Y-8364079D02*
X10534467Y-8411698D01*
X10534467Y-8411698D02*
X10543991Y-8430746D01*
X10543991Y-8430746D02*
X10553515Y-8440270D01*
X10553515Y-8440270D02*
X10572563Y-8449793D01*
X10572563Y-8449793D02*
X10610658Y-8449793D01*
X10610658Y-8449793D02*
X10629705Y-8440270D01*
X10629705Y-8440270D02*
X10639229Y-8430746D01*
X10639229Y-8430746D02*
X10648753Y-8411698D01*
X10772563Y-8325984D02*
X10791610Y-8325984D01*
X10791610Y-8325984D02*
X10810658Y-8335508D01*
X10810658Y-8335508D02*
X10820182Y-8345031D01*
X10820182Y-8345031D02*
X10829705Y-8364079D01*
X10829705Y-8364079D02*
X10839229Y-8402174D01*
X10839229Y-8402174D02*
X10839229Y-8449793D01*
X10839229Y-8449793D02*
X10829705Y-8487889D01*
X10829705Y-8487889D02*
X10820182Y-8506936D01*
X10820182Y-8506936D02*
X10810658Y-8516460D01*
X10810658Y-8516460D02*
X10791610Y-8525984D01*
X10791610Y-8525984D02*
X10772563Y-8525984D01*
X10772563Y-8525984D02*
X10753515Y-8516460D01*
X10753515Y-8516460D02*
X10743991Y-8506936D01*
X10743991Y-8506936D02*
X10734467Y-8487889D01*
X10734467Y-8487889D02*
X10724944Y-8449793D01*
X10724944Y-8449793D02*
X10724944Y-8402174D01*
X10724944Y-8402174D02*
X10734467Y-8364079D01*
X10734467Y-8364079D02*
X10743991Y-8345031D01*
X10743991Y-8345031D02*
X10753515Y-8335508D01*
X10753515Y-8335508D02*
X10772563Y-8325984D01*
X10963039Y-8325984D02*
X10982086Y-8325984D01*
X10982086Y-8325984D02*
X11001134Y-8335508D01*
X11001134Y-8335508D02*
X11010658Y-8345031D01*
X11010658Y-8345031D02*
X11020182Y-8364079D01*
X11020182Y-8364079D02*
X11029705Y-8402174D01*
X11029705Y-8402174D02*
X11029705Y-8449793D01*
X11029705Y-8449793D02*
X11020182Y-8487889D01*
X11020182Y-8487889D02*
X11010658Y-8506936D01*
X11010658Y-8506936D02*
X11001134Y-8516460D01*
X11001134Y-8516460D02*
X10982086Y-8525984D01*
X10982086Y-8525984D02*
X10963039Y-8525984D01*
X10963039Y-8525984D02*
X10943991Y-8516460D01*
X10943991Y-8516460D02*
X10934467Y-8506936D01*
X10934467Y-8506936D02*
X10924944Y-8487889D01*
X10924944Y-8487889D02*
X10915420Y-8449793D01*
X10915420Y-8449793D02*
X10915420Y-8402174D01*
X10915420Y-8402174D02*
X10924944Y-8364079D01*
X10924944Y-8364079D02*
X10934467Y-8345031D01*
X10934467Y-8345031D02*
X10943991Y-8335508D01*
X10943991Y-8335508D02*
X10963039Y-8325984D01*
X11115420Y-8525984D02*
X11115420Y-8392650D01*
X11115420Y-8411698D02*
X11124944Y-8402174D01*
X11124944Y-8402174D02*
X11143991Y-8392650D01*
X11143991Y-8392650D02*
X11172563Y-8392650D01*
X11172563Y-8392650D02*
X11191610Y-8402174D01*
X11191610Y-8402174D02*
X11201134Y-8421222D01*
X11201134Y-8421222D02*
X11201134Y-8525984D01*
X11201134Y-8421222D02*
X11210658Y-8402174D01*
X11210658Y-8402174D02*
X11229705Y-8392650D01*
X11229705Y-8392650D02*
X11258277Y-8392650D01*
X11258277Y-8392650D02*
X11277324Y-8402174D01*
X11277324Y-8402174D02*
X11286848Y-8421222D01*
X11286848Y-8421222D02*
X11286848Y-8525984D01*
X11382086Y-8525984D02*
X11382086Y-8392650D01*
X11382086Y-8411698D02*
X11391610Y-8402174D01*
X11391610Y-8402174D02*
X11410658Y-8392650D01*
X11410658Y-8392650D02*
X11439229Y-8392650D01*
X11439229Y-8392650D02*
X11458277Y-8402174D01*
X11458277Y-8402174D02*
X11467801Y-8421222D01*
X11467801Y-8421222D02*
X11467801Y-8525984D01*
X11467801Y-8421222D02*
X11477324Y-8402174D01*
X11477324Y-8402174D02*
X11496372Y-8392650D01*
X11496372Y-8392650D02*
X11524943Y-8392650D01*
X11524943Y-8392650D02*
X11543991Y-8402174D01*
X11543991Y-8402174D02*
X11553515Y-8421222D01*
X11553515Y-8421222D02*
X11553515Y-8525984D01*
X11943991Y-8316460D02*
X11772563Y-8573603D01*
X12201134Y-8325984D02*
X12220182Y-8325984D01*
X12220182Y-8325984D02*
X12239229Y-8335508D01*
X12239229Y-8335508D02*
X12248753Y-8345031D01*
X12248753Y-8345031D02*
X12258277Y-8364079D01*
X12258277Y-8364079D02*
X12267801Y-8402174D01*
X12267801Y-8402174D02*
X12267801Y-8449793D01*
X12267801Y-8449793D02*
X12258277Y-8487889D01*
X12258277Y-8487889D02*
X12248753Y-8506936D01*
X12248753Y-8506936D02*
X12239229Y-8516460D01*
X12239229Y-8516460D02*
X12220182Y-8525984D01*
X12220182Y-8525984D02*
X12201134Y-8525984D01*
X12201134Y-8525984D02*
X12182086Y-8516460D01*
X12182086Y-8516460D02*
X12172563Y-8506936D01*
X12172563Y-8506936D02*
X12163039Y-8487889D01*
X12163039Y-8487889D02*
X12153515Y-8449793D01*
X12153515Y-8449793D02*
X12153515Y-8402174D01*
X12153515Y-8402174D02*
X12163039Y-8364079D01*
X12163039Y-8364079D02*
X12172563Y-8345031D01*
X12172563Y-8345031D02*
X12182086Y-8335508D01*
X12182086Y-8335508D02*
X12201134Y-8325984D01*
X12353515Y-8506936D02*
X12363039Y-8516460D01*
X12363039Y-8516460D02*
X12353515Y-8525984D01*
X12353515Y-8525984D02*
X12343991Y-8516460D01*
X12343991Y-8516460D02*
X12353515Y-8506936D01*
X12353515Y-8506936D02*
X12353515Y-8525984D01*
X12486848Y-8325984D02*
X12505896Y-8325984D01*
X12505896Y-8325984D02*
X12524944Y-8335508D01*
X12524944Y-8335508D02*
X12534467Y-8345031D01*
X12534467Y-8345031D02*
X12543991Y-8364079D01*
X12543991Y-8364079D02*
X12553515Y-8402174D01*
X12553515Y-8402174D02*
X12553515Y-8449793D01*
X12553515Y-8449793D02*
X12543991Y-8487889D01*
X12543991Y-8487889D02*
X12534467Y-8506936D01*
X12534467Y-8506936D02*
X12524944Y-8516460D01*
X12524944Y-8516460D02*
X12505896Y-8525984D01*
X12505896Y-8525984D02*
X12486848Y-8525984D01*
X12486848Y-8525984D02*
X12467801Y-8516460D01*
X12467801Y-8516460D02*
X12458277Y-8506936D01*
X12458277Y-8506936D02*
X12448753Y-8487889D01*
X12448753Y-8487889D02*
X12439229Y-8449793D01*
X12439229Y-8449793D02*
X12439229Y-8402174D01*
X12439229Y-8402174D02*
X12448753Y-8364079D01*
X12448753Y-8364079D02*
X12458277Y-8345031D01*
X12458277Y-8345031D02*
X12467801Y-8335508D01*
X12467801Y-8335508D02*
X12486848Y-8325984D01*
X12620182Y-8325984D02*
X12743991Y-8325984D01*
X12743991Y-8325984D02*
X12677325Y-8402174D01*
X12677325Y-8402174D02*
X12705896Y-8402174D01*
X12705896Y-8402174D02*
X12724944Y-8411698D01*
X12724944Y-8411698D02*
X12734467Y-8421222D01*
X12734467Y-8421222D02*
X12743991Y-8440270D01*
X12743991Y-8440270D02*
X12743991Y-8487889D01*
X12743991Y-8487889D02*
X12734467Y-8506936D01*
X12734467Y-8506936D02*
X12724944Y-8516460D01*
X12724944Y-8516460D02*
X12705896Y-8525984D01*
X12705896Y-8525984D02*
X12648753Y-8525984D01*
X12648753Y-8525984D02*
X12629706Y-8516460D01*
X12629706Y-8516460D02*
X12620182Y-8506936D01*
X12924944Y-8325984D02*
X12829706Y-8325984D01*
X12829706Y-8325984D02*
X12820182Y-8421222D01*
X12820182Y-8421222D02*
X12829706Y-8411698D01*
X12829706Y-8411698D02*
X12848753Y-8402174D01*
X12848753Y-8402174D02*
X12896372Y-8402174D01*
X12896372Y-8402174D02*
X12915420Y-8411698D01*
X12915420Y-8411698D02*
X12924944Y-8421222D01*
X12924944Y-8421222D02*
X12934467Y-8440270D01*
X12934467Y-8440270D02*
X12934467Y-8487889D01*
X12934467Y-8487889D02*
X12924944Y-8506936D01*
X12924944Y-8506936D02*
X12915420Y-8516460D01*
X12915420Y-8516460D02*
X12896372Y-8525984D01*
X12896372Y-8525984D02*
X12848753Y-8525984D01*
X12848753Y-8525984D02*
X12829706Y-8516460D01*
X12829706Y-8516460D02*
X12820182Y-8506936D01*
X13105896Y-8392650D02*
X13105896Y-8525984D01*
X13058277Y-8316460D02*
X13010658Y-8459317D01*
X13010658Y-8459317D02*
X13134467Y-8459317D01*
X13201134Y-8325984D02*
X13201134Y-8364079D01*
X13277325Y-8325984D02*
X13277325Y-8364079D01*
X13572563Y-8602174D02*
X13563039Y-8592650D01*
X13563039Y-8592650D02*
X13543991Y-8564079D01*
X13543991Y-8564079D02*
X13534468Y-8545031D01*
X13534468Y-8545031D02*
X13524944Y-8516460D01*
X13524944Y-8516460D02*
X13515420Y-8468841D01*
X13515420Y-8468841D02*
X13515420Y-8430746D01*
X13515420Y-8430746D02*
X13524944Y-8383127D01*
X13524944Y-8383127D02*
X13534468Y-8354555D01*
X13534468Y-8354555D02*
X13543991Y-8335508D01*
X13543991Y-8335508D02*
X13563039Y-8306936D01*
X13563039Y-8306936D02*
X13572563Y-8297412D01*
X13734468Y-8325984D02*
X13696372Y-8325984D01*
X13696372Y-8325984D02*
X13677325Y-8335508D01*
X13677325Y-8335508D02*
X13667801Y-8345031D01*
X13667801Y-8345031D02*
X13648753Y-8373603D01*
X13648753Y-8373603D02*
X13639229Y-8411698D01*
X13639229Y-8411698D02*
X13639229Y-8487889D01*
X13639229Y-8487889D02*
X13648753Y-8506936D01*
X13648753Y-8506936D02*
X13658277Y-8516460D01*
X13658277Y-8516460D02*
X13677325Y-8525984D01*
X13677325Y-8525984D02*
X13715420Y-8525984D01*
X13715420Y-8525984D02*
X13734468Y-8516460D01*
X13734468Y-8516460D02*
X13743991Y-8506936D01*
X13743991Y-8506936D02*
X13753515Y-8487889D01*
X13753515Y-8487889D02*
X13753515Y-8440270D01*
X13753515Y-8440270D02*
X13743991Y-8421222D01*
X13743991Y-8421222D02*
X13734468Y-8411698D01*
X13734468Y-8411698D02*
X13715420Y-8402174D01*
X13715420Y-8402174D02*
X13677325Y-8402174D01*
X13677325Y-8402174D02*
X13658277Y-8411698D01*
X13658277Y-8411698D02*
X13648753Y-8421222D01*
X13648753Y-8421222D02*
X13639229Y-8440270D01*
X13991610Y-8525984D02*
X13991610Y-8325984D01*
X14077325Y-8525984D02*
X14077325Y-8421222D01*
X14077325Y-8421222D02*
X14067801Y-8402174D01*
X14067801Y-8402174D02*
X14048753Y-8392650D01*
X14048753Y-8392650D02*
X14020182Y-8392650D01*
X14020182Y-8392650D02*
X14001134Y-8402174D01*
X14001134Y-8402174D02*
X13991610Y-8411698D01*
X14201134Y-8525984D02*
X14182087Y-8516460D01*
X14182087Y-8516460D02*
X14172563Y-8506936D01*
X14172563Y-8506936D02*
X14163039Y-8487889D01*
X14163039Y-8487889D02*
X14163039Y-8430746D01*
X14163039Y-8430746D02*
X14172563Y-8411698D01*
X14172563Y-8411698D02*
X14182087Y-8402174D01*
X14182087Y-8402174D02*
X14201134Y-8392650D01*
X14201134Y-8392650D02*
X14229706Y-8392650D01*
X14229706Y-8392650D02*
X14248753Y-8402174D01*
X14248753Y-8402174D02*
X14258277Y-8411698D01*
X14258277Y-8411698D02*
X14267801Y-8430746D01*
X14267801Y-8430746D02*
X14267801Y-8487889D01*
X14267801Y-8487889D02*
X14258277Y-8506936D01*
X14258277Y-8506936D02*
X14248753Y-8516460D01*
X14248753Y-8516460D02*
X14229706Y-8525984D01*
X14229706Y-8525984D02*
X14201134Y-8525984D01*
X14382087Y-8525984D02*
X14363039Y-8516460D01*
X14363039Y-8516460D02*
X14353515Y-8497412D01*
X14353515Y-8497412D02*
X14353515Y-8325984D01*
X14534468Y-8516460D02*
X14515420Y-8525984D01*
X14515420Y-8525984D02*
X14477325Y-8525984D01*
X14477325Y-8525984D02*
X14458277Y-8516460D01*
X14458277Y-8516460D02*
X14448753Y-8497412D01*
X14448753Y-8497412D02*
X14448753Y-8421222D01*
X14448753Y-8421222D02*
X14458277Y-8402174D01*
X14458277Y-8402174D02*
X14477325Y-8392650D01*
X14477325Y-8392650D02*
X14515420Y-8392650D01*
X14515420Y-8392650D02*
X14534468Y-8402174D01*
X14534468Y-8402174D02*
X14543991Y-8421222D01*
X14543991Y-8421222D02*
X14543991Y-8440270D01*
X14543991Y-8440270D02*
X14448753Y-8459317D01*
X14620182Y-8516460D02*
X14639230Y-8525984D01*
X14639230Y-8525984D02*
X14677325Y-8525984D01*
X14677325Y-8525984D02*
X14696372Y-8516460D01*
X14696372Y-8516460D02*
X14705896Y-8497412D01*
X14705896Y-8497412D02*
X14705896Y-8487889D01*
X14705896Y-8487889D02*
X14696372Y-8468841D01*
X14696372Y-8468841D02*
X14677325Y-8459317D01*
X14677325Y-8459317D02*
X14648753Y-8459317D01*
X14648753Y-8459317D02*
X14629706Y-8449793D01*
X14629706Y-8449793D02*
X14620182Y-8430746D01*
X14620182Y-8430746D02*
X14620182Y-8421222D01*
X14620182Y-8421222D02*
X14629706Y-8402174D01*
X14629706Y-8402174D02*
X14648753Y-8392650D01*
X14648753Y-8392650D02*
X14677325Y-8392650D01*
X14677325Y-8392650D02*
X14696372Y-8402174D01*
X14772563Y-8602174D02*
X14782087Y-8592650D01*
X14782087Y-8592650D02*
X14801134Y-8564079D01*
X14801134Y-8564079D02*
X14810658Y-8545031D01*
X14810658Y-8545031D02*
X14820182Y-8516460D01*
X14820182Y-8516460D02*
X14829706Y-8468841D01*
X14829706Y-8468841D02*
X14829706Y-8430746D01*
X14829706Y-8430746D02*
X14820182Y-8383127D01*
X14820182Y-8383127D02*
X14810658Y-8354555D01*
X14810658Y-8354555D02*
X14801134Y-8335508D01*
X14801134Y-8335508D02*
X14782087Y-8306936D01*
X14782087Y-8306936D02*
X14772563Y-8297412D01*
D12*
X9951500Y-8744500D02*
X9997500Y-8698500D01*
X9951500Y-8652500D01*
X9905500Y-8698500D01*
X9951500Y-8744500D01*
D11*
X10296372Y-8589984D02*
X10315420Y-8589984D01*
X10315420Y-8589984D02*
X10334467Y-8599508D01*
X10334467Y-8599508D02*
X10343991Y-8609031D01*
X10343991Y-8609031D02*
X10353515Y-8628079D01*
X10353515Y-8628079D02*
X10363039Y-8666174D01*
X10363039Y-8666174D02*
X10363039Y-8713793D01*
X10363039Y-8713793D02*
X10353515Y-8751889D01*
X10353515Y-8751889D02*
X10343991Y-8770936D01*
X10343991Y-8770936D02*
X10334467Y-8780460D01*
X10334467Y-8780460D02*
X10315420Y-8789984D01*
X10315420Y-8789984D02*
X10296372Y-8789984D01*
X10296372Y-8789984D02*
X10277324Y-8780460D01*
X10277324Y-8780460D02*
X10267801Y-8770936D01*
X10267801Y-8770936D02*
X10258277Y-8751889D01*
X10258277Y-8751889D02*
X10248753Y-8713793D01*
X10248753Y-8713793D02*
X10248753Y-8666174D01*
X10248753Y-8666174D02*
X10258277Y-8628079D01*
X10258277Y-8628079D02*
X10267801Y-8609031D01*
X10267801Y-8609031D02*
X10277324Y-8599508D01*
X10277324Y-8599508D02*
X10296372Y-8589984D01*
X10448753Y-8770936D02*
X10458277Y-8780460D01*
X10458277Y-8780460D02*
X10448753Y-8789984D01*
X10448753Y-8789984D02*
X10439229Y-8780460D01*
X10439229Y-8780460D02*
X10448753Y-8770936D01*
X10448753Y-8770936D02*
X10448753Y-8789984D01*
X10553515Y-8789984D02*
X10591610Y-8789984D01*
X10591610Y-8789984D02*
X10610658Y-8780460D01*
X10610658Y-8780460D02*
X10620182Y-8770936D01*
X10620182Y-8770936D02*
X10639229Y-8742365D01*
X10639229Y-8742365D02*
X10648753Y-8704270D01*
X10648753Y-8704270D02*
X10648753Y-8628079D01*
X10648753Y-8628079D02*
X10639229Y-8609031D01*
X10639229Y-8609031D02*
X10629705Y-8599508D01*
X10629705Y-8599508D02*
X10610658Y-8589984D01*
X10610658Y-8589984D02*
X10572563Y-8589984D01*
X10572563Y-8589984D02*
X10553515Y-8599508D01*
X10553515Y-8599508D02*
X10543991Y-8609031D01*
X10543991Y-8609031D02*
X10534467Y-8628079D01*
X10534467Y-8628079D02*
X10534467Y-8675698D01*
X10534467Y-8675698D02*
X10543991Y-8694746D01*
X10543991Y-8694746D02*
X10553515Y-8704270D01*
X10553515Y-8704270D02*
X10572563Y-8713793D01*
X10572563Y-8713793D02*
X10610658Y-8713793D01*
X10610658Y-8713793D02*
X10629705Y-8704270D01*
X10629705Y-8704270D02*
X10639229Y-8694746D01*
X10639229Y-8694746D02*
X10648753Y-8675698D01*
X10724944Y-8609031D02*
X10734467Y-8599508D01*
X10734467Y-8599508D02*
X10753515Y-8589984D01*
X10753515Y-8589984D02*
X10801134Y-8589984D01*
X10801134Y-8589984D02*
X10820182Y-8599508D01*
X10820182Y-8599508D02*
X10829705Y-8609031D01*
X10829705Y-8609031D02*
X10839229Y-8628079D01*
X10839229Y-8628079D02*
X10839229Y-8647127D01*
X10839229Y-8647127D02*
X10829705Y-8675698D01*
X10829705Y-8675698D02*
X10715420Y-8789984D01*
X10715420Y-8789984D02*
X10839229Y-8789984D01*
X10963039Y-8589984D02*
X10982086Y-8589984D01*
X10982086Y-8589984D02*
X11001134Y-8599508D01*
X11001134Y-8599508D02*
X11010658Y-8609031D01*
X11010658Y-8609031D02*
X11020182Y-8628079D01*
X11020182Y-8628079D02*
X11029705Y-8666174D01*
X11029705Y-8666174D02*
X11029705Y-8713793D01*
X11029705Y-8713793D02*
X11020182Y-8751889D01*
X11020182Y-8751889D02*
X11010658Y-8770936D01*
X11010658Y-8770936D02*
X11001134Y-8780460D01*
X11001134Y-8780460D02*
X10982086Y-8789984D01*
X10982086Y-8789984D02*
X10963039Y-8789984D01*
X10963039Y-8789984D02*
X10943991Y-8780460D01*
X10943991Y-8780460D02*
X10934467Y-8770936D01*
X10934467Y-8770936D02*
X10924944Y-8751889D01*
X10924944Y-8751889D02*
X10915420Y-8713793D01*
X10915420Y-8713793D02*
X10915420Y-8666174D01*
X10915420Y-8666174D02*
X10924944Y-8628079D01*
X10924944Y-8628079D02*
X10934467Y-8609031D01*
X10934467Y-8609031D02*
X10943991Y-8599508D01*
X10943991Y-8599508D02*
X10963039Y-8589984D01*
X11115420Y-8789984D02*
X11115420Y-8656650D01*
X11115420Y-8675698D02*
X11124944Y-8666174D01*
X11124944Y-8666174D02*
X11143991Y-8656650D01*
X11143991Y-8656650D02*
X11172563Y-8656650D01*
X11172563Y-8656650D02*
X11191610Y-8666174D01*
X11191610Y-8666174D02*
X11201134Y-8685222D01*
X11201134Y-8685222D02*
X11201134Y-8789984D01*
X11201134Y-8685222D02*
X11210658Y-8666174D01*
X11210658Y-8666174D02*
X11229705Y-8656650D01*
X11229705Y-8656650D02*
X11258277Y-8656650D01*
X11258277Y-8656650D02*
X11277324Y-8666174D01*
X11277324Y-8666174D02*
X11286848Y-8685222D01*
X11286848Y-8685222D02*
X11286848Y-8789984D01*
X11382086Y-8789984D02*
X11382086Y-8656650D01*
X11382086Y-8675698D02*
X11391610Y-8666174D01*
X11391610Y-8666174D02*
X11410658Y-8656650D01*
X11410658Y-8656650D02*
X11439229Y-8656650D01*
X11439229Y-8656650D02*
X11458277Y-8666174D01*
X11458277Y-8666174D02*
X11467801Y-8685222D01*
X11467801Y-8685222D02*
X11467801Y-8789984D01*
X11467801Y-8685222D02*
X11477324Y-8666174D01*
X11477324Y-8666174D02*
X11496372Y-8656650D01*
X11496372Y-8656650D02*
X11524943Y-8656650D01*
X11524943Y-8656650D02*
X11543991Y-8666174D01*
X11543991Y-8666174D02*
X11553515Y-8685222D01*
X11553515Y-8685222D02*
X11553515Y-8789984D01*
X11943991Y-8580460D02*
X11772563Y-8837603D01*
X12201134Y-8589984D02*
X12220182Y-8589984D01*
X12220182Y-8589984D02*
X12239229Y-8599508D01*
X12239229Y-8599508D02*
X12248753Y-8609031D01*
X12248753Y-8609031D02*
X12258277Y-8628079D01*
X12258277Y-8628079D02*
X12267801Y-8666174D01*
X12267801Y-8666174D02*
X12267801Y-8713793D01*
X12267801Y-8713793D02*
X12258277Y-8751889D01*
X12258277Y-8751889D02*
X12248753Y-8770936D01*
X12248753Y-8770936D02*
X12239229Y-8780460D01*
X12239229Y-8780460D02*
X12220182Y-8789984D01*
X12220182Y-8789984D02*
X12201134Y-8789984D01*
X12201134Y-8789984D02*
X12182086Y-8780460D01*
X12182086Y-8780460D02*
X12172563Y-8770936D01*
X12172563Y-8770936D02*
X12163039Y-8751889D01*
X12163039Y-8751889D02*
X12153515Y-8713793D01*
X12153515Y-8713793D02*
X12153515Y-8666174D01*
X12153515Y-8666174D02*
X12163039Y-8628079D01*
X12163039Y-8628079D02*
X12172563Y-8609031D01*
X12172563Y-8609031D02*
X12182086Y-8599508D01*
X12182086Y-8599508D02*
X12201134Y-8589984D01*
X12353515Y-8770936D02*
X12363039Y-8780460D01*
X12363039Y-8780460D02*
X12353515Y-8789984D01*
X12353515Y-8789984D02*
X12343991Y-8780460D01*
X12343991Y-8780460D02*
X12353515Y-8770936D01*
X12353515Y-8770936D02*
X12353515Y-8789984D01*
X12486848Y-8589984D02*
X12505896Y-8589984D01*
X12505896Y-8589984D02*
X12524944Y-8599508D01*
X12524944Y-8599508D02*
X12534467Y-8609031D01*
X12534467Y-8609031D02*
X12543991Y-8628079D01*
X12543991Y-8628079D02*
X12553515Y-8666174D01*
X12553515Y-8666174D02*
X12553515Y-8713793D01*
X12553515Y-8713793D02*
X12543991Y-8751889D01*
X12543991Y-8751889D02*
X12534467Y-8770936D01*
X12534467Y-8770936D02*
X12524944Y-8780460D01*
X12524944Y-8780460D02*
X12505896Y-8789984D01*
X12505896Y-8789984D02*
X12486848Y-8789984D01*
X12486848Y-8789984D02*
X12467801Y-8780460D01*
X12467801Y-8780460D02*
X12458277Y-8770936D01*
X12458277Y-8770936D02*
X12448753Y-8751889D01*
X12448753Y-8751889D02*
X12439229Y-8713793D01*
X12439229Y-8713793D02*
X12439229Y-8666174D01*
X12439229Y-8666174D02*
X12448753Y-8628079D01*
X12448753Y-8628079D02*
X12458277Y-8609031D01*
X12458277Y-8609031D02*
X12467801Y-8599508D01*
X12467801Y-8599508D02*
X12486848Y-8589984D01*
X12620182Y-8589984D02*
X12743991Y-8589984D01*
X12743991Y-8589984D02*
X12677325Y-8666174D01*
X12677325Y-8666174D02*
X12705896Y-8666174D01*
X12705896Y-8666174D02*
X12724944Y-8675698D01*
X12724944Y-8675698D02*
X12734467Y-8685222D01*
X12734467Y-8685222D02*
X12743991Y-8704270D01*
X12743991Y-8704270D02*
X12743991Y-8751889D01*
X12743991Y-8751889D02*
X12734467Y-8770936D01*
X12734467Y-8770936D02*
X12724944Y-8780460D01*
X12724944Y-8780460D02*
X12705896Y-8789984D01*
X12705896Y-8789984D02*
X12648753Y-8789984D01*
X12648753Y-8789984D02*
X12629706Y-8780460D01*
X12629706Y-8780460D02*
X12620182Y-8770936D01*
X12915420Y-8589984D02*
X12877325Y-8589984D01*
X12877325Y-8589984D02*
X12858277Y-8599508D01*
X12858277Y-8599508D02*
X12848753Y-8609031D01*
X12848753Y-8609031D02*
X12829706Y-8637603D01*
X12829706Y-8637603D02*
X12820182Y-8675698D01*
X12820182Y-8675698D02*
X12820182Y-8751889D01*
X12820182Y-8751889D02*
X12829706Y-8770936D01*
X12829706Y-8770936D02*
X12839229Y-8780460D01*
X12839229Y-8780460D02*
X12858277Y-8789984D01*
X12858277Y-8789984D02*
X12896372Y-8789984D01*
X12896372Y-8789984D02*
X12915420Y-8780460D01*
X12915420Y-8780460D02*
X12924944Y-8770936D01*
X12924944Y-8770936D02*
X12934467Y-8751889D01*
X12934467Y-8751889D02*
X12934467Y-8704270D01*
X12934467Y-8704270D02*
X12924944Y-8685222D01*
X12924944Y-8685222D02*
X12915420Y-8675698D01*
X12915420Y-8675698D02*
X12896372Y-8666174D01*
X12896372Y-8666174D02*
X12858277Y-8666174D01*
X12858277Y-8666174D02*
X12839229Y-8675698D01*
X12839229Y-8675698D02*
X12829706Y-8685222D01*
X12829706Y-8685222D02*
X12820182Y-8704270D01*
X13010658Y-8609031D02*
X13020182Y-8599508D01*
X13020182Y-8599508D02*
X13039229Y-8589984D01*
X13039229Y-8589984D02*
X13086848Y-8589984D01*
X13086848Y-8589984D02*
X13105896Y-8599508D01*
X13105896Y-8599508D02*
X13115420Y-8609031D01*
X13115420Y-8609031D02*
X13124944Y-8628079D01*
X13124944Y-8628079D02*
X13124944Y-8647127D01*
X13124944Y-8647127D02*
X13115420Y-8675698D01*
X13115420Y-8675698D02*
X13001134Y-8789984D01*
X13001134Y-8789984D02*
X13124944Y-8789984D01*
X13201134Y-8589984D02*
X13201134Y-8628079D01*
X13277325Y-8589984D02*
X13277325Y-8628079D01*
X13572563Y-8866174D02*
X13563039Y-8856650D01*
X13563039Y-8856650D02*
X13543991Y-8828079D01*
X13543991Y-8828079D02*
X13534468Y-8809031D01*
X13534468Y-8809031D02*
X13524944Y-8780460D01*
X13524944Y-8780460D02*
X13515420Y-8732841D01*
X13515420Y-8732841D02*
X13515420Y-8694746D01*
X13515420Y-8694746D02*
X13524944Y-8647127D01*
X13524944Y-8647127D02*
X13534468Y-8618555D01*
X13534468Y-8618555D02*
X13543991Y-8599508D01*
X13543991Y-8599508D02*
X13563039Y-8570936D01*
X13563039Y-8570936D02*
X13572563Y-8561412D01*
X13734468Y-8656650D02*
X13734468Y-8789984D01*
X13686848Y-8580460D02*
X13639229Y-8723317D01*
X13639229Y-8723317D02*
X13763039Y-8723317D01*
X13991610Y-8789984D02*
X13991610Y-8589984D01*
X14077325Y-8789984D02*
X14077325Y-8685222D01*
X14077325Y-8685222D02*
X14067801Y-8666174D01*
X14067801Y-8666174D02*
X14048753Y-8656650D01*
X14048753Y-8656650D02*
X14020182Y-8656650D01*
X14020182Y-8656650D02*
X14001134Y-8666174D01*
X14001134Y-8666174D02*
X13991610Y-8675698D01*
X14201134Y-8789984D02*
X14182087Y-8780460D01*
X14182087Y-8780460D02*
X14172563Y-8770936D01*
X14172563Y-8770936D02*
X14163039Y-8751889D01*
X14163039Y-8751889D02*
X14163039Y-8694746D01*
X14163039Y-8694746D02*
X14172563Y-8675698D01*
X14172563Y-8675698D02*
X14182087Y-8666174D01*
X14182087Y-8666174D02*
X14201134Y-8656650D01*
X14201134Y-8656650D02*
X14229706Y-8656650D01*
X14229706Y-8656650D02*
X14248753Y-8666174D01*
X14248753Y-8666174D02*
X14258277Y-8675698D01*
X14258277Y-8675698D02*
X14267801Y-8694746D01*
X14267801Y-8694746D02*
X14267801Y-8751889D01*
X14267801Y-8751889D02*
X14258277Y-8770936D01*
X14258277Y-8770936D02*
X14248753Y-8780460D01*
X14248753Y-8780460D02*
X14229706Y-8789984D01*
X14229706Y-8789984D02*
X14201134Y-8789984D01*
X14382087Y-8789984D02*
X14363039Y-8780460D01*
X14363039Y-8780460D02*
X14353515Y-8761412D01*
X14353515Y-8761412D02*
X14353515Y-8589984D01*
X14534468Y-8780460D02*
X14515420Y-8789984D01*
X14515420Y-8789984D02*
X14477325Y-8789984D01*
X14477325Y-8789984D02*
X14458277Y-8780460D01*
X14458277Y-8780460D02*
X14448753Y-8761412D01*
X14448753Y-8761412D02*
X14448753Y-8685222D01*
X14448753Y-8685222D02*
X14458277Y-8666174D01*
X14458277Y-8666174D02*
X14477325Y-8656650D01*
X14477325Y-8656650D02*
X14515420Y-8656650D01*
X14515420Y-8656650D02*
X14534468Y-8666174D01*
X14534468Y-8666174D02*
X14543991Y-8685222D01*
X14543991Y-8685222D02*
X14543991Y-8704270D01*
X14543991Y-8704270D02*
X14448753Y-8723317D01*
X14620182Y-8780460D02*
X14639230Y-8789984D01*
X14639230Y-8789984D02*
X14677325Y-8789984D01*
X14677325Y-8789984D02*
X14696372Y-8780460D01*
X14696372Y-8780460D02*
X14705896Y-8761412D01*
X14705896Y-8761412D02*
X14705896Y-8751889D01*
X14705896Y-8751889D02*
X14696372Y-8732841D01*
X14696372Y-8732841D02*
X14677325Y-8723317D01*
X14677325Y-8723317D02*
X14648753Y-8723317D01*
X14648753Y-8723317D02*
X14629706Y-8713793D01*
X14629706Y-8713793D02*
X14620182Y-8694746D01*
X14620182Y-8694746D02*
X14620182Y-8685222D01*
X14620182Y-8685222D02*
X14629706Y-8666174D01*
X14629706Y-8666174D02*
X14648753Y-8656650D01*
X14648753Y-8656650D02*
X14677325Y-8656650D01*
X14677325Y-8656650D02*
X14696372Y-8666174D01*
X14772563Y-8866174D02*
X14782087Y-8856650D01*
X14782087Y-8856650D02*
X14801134Y-8828079D01*
X14801134Y-8828079D02*
X14810658Y-8809031D01*
X14810658Y-8809031D02*
X14820182Y-8780460D01*
X14820182Y-8780460D02*
X14829706Y-8732841D01*
X14829706Y-8732841D02*
X14829706Y-8694746D01*
X14829706Y-8694746D02*
X14820182Y-8647127D01*
X14820182Y-8647127D02*
X14810658Y-8618555D01*
X14810658Y-8618555D02*
X14801134Y-8599508D01*
X14801134Y-8599508D02*
X14782087Y-8570936D01*
X14782087Y-8570936D02*
X14772563Y-8561412D01*
D12*
X9897500Y-8912500D02*
X9997500Y-9012500D01*
X9997500Y-8912500D02*
X9897500Y-9012500D01*
X9997500Y-8962500D02*
G75*
G02*
X9897500Y-8962500I-50000J0D01*
G01*
X9897500Y-8962500D02*
G75*
G02*
X9997500Y-8962500I50000J0D01*
G01*
D11*
X10363039Y-9053984D02*
X10248753Y-9053984D01*
X10305896Y-9053984D02*
X10305896Y-8853984D01*
X10305896Y-8853984D02*
X10286848Y-8882555D01*
X10286848Y-8882555D02*
X10267801Y-8901603D01*
X10267801Y-8901603D02*
X10248753Y-8911127D01*
X10448753Y-9034936D02*
X10458277Y-9044460D01*
X10458277Y-9044460D02*
X10448753Y-9053984D01*
X10448753Y-9053984D02*
X10439229Y-9044460D01*
X10439229Y-9044460D02*
X10448753Y-9034936D01*
X10448753Y-9034936D02*
X10448753Y-9053984D01*
X10582086Y-8853984D02*
X10601134Y-8853984D01*
X10601134Y-8853984D02*
X10620182Y-8863508D01*
X10620182Y-8863508D02*
X10629705Y-8873031D01*
X10629705Y-8873031D02*
X10639229Y-8892079D01*
X10639229Y-8892079D02*
X10648753Y-8930174D01*
X10648753Y-8930174D02*
X10648753Y-8977793D01*
X10648753Y-8977793D02*
X10639229Y-9015889D01*
X10639229Y-9015889D02*
X10629705Y-9034936D01*
X10629705Y-9034936D02*
X10620182Y-9044460D01*
X10620182Y-9044460D02*
X10601134Y-9053984D01*
X10601134Y-9053984D02*
X10582086Y-9053984D01*
X10582086Y-9053984D02*
X10563039Y-9044460D01*
X10563039Y-9044460D02*
X10553515Y-9034936D01*
X10553515Y-9034936D02*
X10543991Y-9015889D01*
X10543991Y-9015889D02*
X10534467Y-8977793D01*
X10534467Y-8977793D02*
X10534467Y-8930174D01*
X10534467Y-8930174D02*
X10543991Y-8892079D01*
X10543991Y-8892079D02*
X10553515Y-8873031D01*
X10553515Y-8873031D02*
X10563039Y-8863508D01*
X10563039Y-8863508D02*
X10582086Y-8853984D01*
X10772563Y-8853984D02*
X10791610Y-8853984D01*
X10791610Y-8853984D02*
X10810658Y-8863508D01*
X10810658Y-8863508D02*
X10820182Y-8873031D01*
X10820182Y-8873031D02*
X10829705Y-8892079D01*
X10829705Y-8892079D02*
X10839229Y-8930174D01*
X10839229Y-8930174D02*
X10839229Y-8977793D01*
X10839229Y-8977793D02*
X10829705Y-9015889D01*
X10829705Y-9015889D02*
X10820182Y-9034936D01*
X10820182Y-9034936D02*
X10810658Y-9044460D01*
X10810658Y-9044460D02*
X10791610Y-9053984D01*
X10791610Y-9053984D02*
X10772563Y-9053984D01*
X10772563Y-9053984D02*
X10753515Y-9044460D01*
X10753515Y-9044460D02*
X10743991Y-9034936D01*
X10743991Y-9034936D02*
X10734467Y-9015889D01*
X10734467Y-9015889D02*
X10724944Y-8977793D01*
X10724944Y-8977793D02*
X10724944Y-8930174D01*
X10724944Y-8930174D02*
X10734467Y-8892079D01*
X10734467Y-8892079D02*
X10743991Y-8873031D01*
X10743991Y-8873031D02*
X10753515Y-8863508D01*
X10753515Y-8863508D02*
X10772563Y-8853984D01*
X10963039Y-8853984D02*
X10982086Y-8853984D01*
X10982086Y-8853984D02*
X11001134Y-8863508D01*
X11001134Y-8863508D02*
X11010658Y-8873031D01*
X11010658Y-8873031D02*
X11020182Y-8892079D01*
X11020182Y-8892079D02*
X11029705Y-8930174D01*
X11029705Y-8930174D02*
X11029705Y-8977793D01*
X11029705Y-8977793D02*
X11020182Y-9015889D01*
X11020182Y-9015889D02*
X11010658Y-9034936D01*
X11010658Y-9034936D02*
X11001134Y-9044460D01*
X11001134Y-9044460D02*
X10982086Y-9053984D01*
X10982086Y-9053984D02*
X10963039Y-9053984D01*
X10963039Y-9053984D02*
X10943991Y-9044460D01*
X10943991Y-9044460D02*
X10934467Y-9034936D01*
X10934467Y-9034936D02*
X10924944Y-9015889D01*
X10924944Y-9015889D02*
X10915420Y-8977793D01*
X10915420Y-8977793D02*
X10915420Y-8930174D01*
X10915420Y-8930174D02*
X10924944Y-8892079D01*
X10924944Y-8892079D02*
X10934467Y-8873031D01*
X10934467Y-8873031D02*
X10943991Y-8863508D01*
X10943991Y-8863508D02*
X10963039Y-8853984D01*
X11115420Y-9053984D02*
X11115420Y-8920650D01*
X11115420Y-8939698D02*
X11124944Y-8930174D01*
X11124944Y-8930174D02*
X11143991Y-8920650D01*
X11143991Y-8920650D02*
X11172563Y-8920650D01*
X11172563Y-8920650D02*
X11191610Y-8930174D01*
X11191610Y-8930174D02*
X11201134Y-8949222D01*
X11201134Y-8949222D02*
X11201134Y-9053984D01*
X11201134Y-8949222D02*
X11210658Y-8930174D01*
X11210658Y-8930174D02*
X11229705Y-8920650D01*
X11229705Y-8920650D02*
X11258277Y-8920650D01*
X11258277Y-8920650D02*
X11277324Y-8930174D01*
X11277324Y-8930174D02*
X11286848Y-8949222D01*
X11286848Y-8949222D02*
X11286848Y-9053984D01*
X11382086Y-9053984D02*
X11382086Y-8920650D01*
X11382086Y-8939698D02*
X11391610Y-8930174D01*
X11391610Y-8930174D02*
X11410658Y-8920650D01*
X11410658Y-8920650D02*
X11439229Y-8920650D01*
X11439229Y-8920650D02*
X11458277Y-8930174D01*
X11458277Y-8930174D02*
X11467801Y-8949222D01*
X11467801Y-8949222D02*
X11467801Y-9053984D01*
X11467801Y-8949222D02*
X11477324Y-8930174D01*
X11477324Y-8930174D02*
X11496372Y-8920650D01*
X11496372Y-8920650D02*
X11524943Y-8920650D01*
X11524943Y-8920650D02*
X11543991Y-8930174D01*
X11543991Y-8930174D02*
X11553515Y-8949222D01*
X11553515Y-8949222D02*
X11553515Y-9053984D01*
X11943991Y-8844460D02*
X11772563Y-9101603D01*
X12201134Y-8853984D02*
X12220182Y-8853984D01*
X12220182Y-8853984D02*
X12239229Y-8863508D01*
X12239229Y-8863508D02*
X12248753Y-8873031D01*
X12248753Y-8873031D02*
X12258277Y-8892079D01*
X12258277Y-8892079D02*
X12267801Y-8930174D01*
X12267801Y-8930174D02*
X12267801Y-8977793D01*
X12267801Y-8977793D02*
X12258277Y-9015889D01*
X12258277Y-9015889D02*
X12248753Y-9034936D01*
X12248753Y-9034936D02*
X12239229Y-9044460D01*
X12239229Y-9044460D02*
X12220182Y-9053984D01*
X12220182Y-9053984D02*
X12201134Y-9053984D01*
X12201134Y-9053984D02*
X12182086Y-9044460D01*
X12182086Y-9044460D02*
X12172563Y-9034936D01*
X12172563Y-9034936D02*
X12163039Y-9015889D01*
X12163039Y-9015889D02*
X12153515Y-8977793D01*
X12153515Y-8977793D02*
X12153515Y-8930174D01*
X12153515Y-8930174D02*
X12163039Y-8892079D01*
X12163039Y-8892079D02*
X12172563Y-8873031D01*
X12172563Y-8873031D02*
X12182086Y-8863508D01*
X12182086Y-8863508D02*
X12201134Y-8853984D01*
X12353515Y-9034936D02*
X12363039Y-9044460D01*
X12363039Y-9044460D02*
X12353515Y-9053984D01*
X12353515Y-9053984D02*
X12343991Y-9044460D01*
X12343991Y-9044460D02*
X12353515Y-9034936D01*
X12353515Y-9034936D02*
X12353515Y-9053984D01*
X12486848Y-8853984D02*
X12505896Y-8853984D01*
X12505896Y-8853984D02*
X12524944Y-8863508D01*
X12524944Y-8863508D02*
X12534467Y-8873031D01*
X12534467Y-8873031D02*
X12543991Y-8892079D01*
X12543991Y-8892079D02*
X12553515Y-8930174D01*
X12553515Y-8930174D02*
X12553515Y-8977793D01*
X12553515Y-8977793D02*
X12543991Y-9015889D01*
X12543991Y-9015889D02*
X12534467Y-9034936D01*
X12534467Y-9034936D02*
X12524944Y-9044460D01*
X12524944Y-9044460D02*
X12505896Y-9053984D01*
X12505896Y-9053984D02*
X12486848Y-9053984D01*
X12486848Y-9053984D02*
X12467801Y-9044460D01*
X12467801Y-9044460D02*
X12458277Y-9034936D01*
X12458277Y-9034936D02*
X12448753Y-9015889D01*
X12448753Y-9015889D02*
X12439229Y-8977793D01*
X12439229Y-8977793D02*
X12439229Y-8930174D01*
X12439229Y-8930174D02*
X12448753Y-8892079D01*
X12448753Y-8892079D02*
X12458277Y-8873031D01*
X12458277Y-8873031D02*
X12467801Y-8863508D01*
X12467801Y-8863508D02*
X12486848Y-8853984D01*
X12620182Y-8853984D02*
X12743991Y-8853984D01*
X12743991Y-8853984D02*
X12677325Y-8930174D01*
X12677325Y-8930174D02*
X12705896Y-8930174D01*
X12705896Y-8930174D02*
X12724944Y-8939698D01*
X12724944Y-8939698D02*
X12734467Y-8949222D01*
X12734467Y-8949222D02*
X12743991Y-8968270D01*
X12743991Y-8968270D02*
X12743991Y-9015889D01*
X12743991Y-9015889D02*
X12734467Y-9034936D01*
X12734467Y-9034936D02*
X12724944Y-9044460D01*
X12724944Y-9044460D02*
X12705896Y-9053984D01*
X12705896Y-9053984D02*
X12648753Y-9053984D01*
X12648753Y-9053984D02*
X12629706Y-9044460D01*
X12629706Y-9044460D02*
X12620182Y-9034936D01*
X12839229Y-9053984D02*
X12877325Y-9053984D01*
X12877325Y-9053984D02*
X12896372Y-9044460D01*
X12896372Y-9044460D02*
X12905896Y-9034936D01*
X12905896Y-9034936D02*
X12924944Y-9006365D01*
X12924944Y-9006365D02*
X12934467Y-8968270D01*
X12934467Y-8968270D02*
X12934467Y-8892079D01*
X12934467Y-8892079D02*
X12924944Y-8873031D01*
X12924944Y-8873031D02*
X12915420Y-8863508D01*
X12915420Y-8863508D02*
X12896372Y-8853984D01*
X12896372Y-8853984D02*
X12858277Y-8853984D01*
X12858277Y-8853984D02*
X12839229Y-8863508D01*
X12839229Y-8863508D02*
X12829706Y-8873031D01*
X12829706Y-8873031D02*
X12820182Y-8892079D01*
X12820182Y-8892079D02*
X12820182Y-8939698D01*
X12820182Y-8939698D02*
X12829706Y-8958746D01*
X12829706Y-8958746D02*
X12839229Y-8968270D01*
X12839229Y-8968270D02*
X12858277Y-8977793D01*
X12858277Y-8977793D02*
X12896372Y-8977793D01*
X12896372Y-8977793D02*
X12915420Y-8968270D01*
X12915420Y-8968270D02*
X12924944Y-8958746D01*
X12924944Y-8958746D02*
X12934467Y-8939698D01*
X13105896Y-8920650D02*
X13105896Y-9053984D01*
X13058277Y-8844460D02*
X13010658Y-8987317D01*
X13010658Y-8987317D02*
X13134467Y-8987317D01*
X13201134Y-8853984D02*
X13201134Y-8892079D01*
X13277325Y-8853984D02*
X13277325Y-8892079D01*
X13572563Y-9130174D02*
X13563039Y-9120650D01*
X13563039Y-9120650D02*
X13543991Y-9092079D01*
X13543991Y-9092079D02*
X13534468Y-9073031D01*
X13534468Y-9073031D02*
X13524944Y-9044460D01*
X13524944Y-9044460D02*
X13515420Y-8996841D01*
X13515420Y-8996841D02*
X13515420Y-8958746D01*
X13515420Y-8958746D02*
X13524944Y-8911127D01*
X13524944Y-8911127D02*
X13534468Y-8882555D01*
X13534468Y-8882555D02*
X13543991Y-8863508D01*
X13543991Y-8863508D02*
X13563039Y-8834936D01*
X13563039Y-8834936D02*
X13572563Y-8825412D01*
X13743991Y-8853984D02*
X13648753Y-8853984D01*
X13648753Y-8853984D02*
X13639229Y-8949222D01*
X13639229Y-8949222D02*
X13648753Y-8939698D01*
X13648753Y-8939698D02*
X13667801Y-8930174D01*
X13667801Y-8930174D02*
X13715420Y-8930174D01*
X13715420Y-8930174D02*
X13734468Y-8939698D01*
X13734468Y-8939698D02*
X13743991Y-8949222D01*
X13743991Y-8949222D02*
X13753515Y-8968270D01*
X13753515Y-8968270D02*
X13753515Y-9015889D01*
X13753515Y-9015889D02*
X13743991Y-9034936D01*
X13743991Y-9034936D02*
X13734468Y-9044460D01*
X13734468Y-9044460D02*
X13715420Y-9053984D01*
X13715420Y-9053984D02*
X13667801Y-9053984D01*
X13667801Y-9053984D02*
X13648753Y-9044460D01*
X13648753Y-9044460D02*
X13639229Y-9034936D01*
X13991610Y-9053984D02*
X13991610Y-8853984D01*
X14077325Y-9053984D02*
X14077325Y-8949222D01*
X14077325Y-8949222D02*
X14067801Y-8930174D01*
X14067801Y-8930174D02*
X14048753Y-8920650D01*
X14048753Y-8920650D02*
X14020182Y-8920650D01*
X14020182Y-8920650D02*
X14001134Y-8930174D01*
X14001134Y-8930174D02*
X13991610Y-8939698D01*
X14201134Y-9053984D02*
X14182087Y-9044460D01*
X14182087Y-9044460D02*
X14172563Y-9034936D01*
X14172563Y-9034936D02*
X14163039Y-9015889D01*
X14163039Y-9015889D02*
X14163039Y-8958746D01*
X14163039Y-8958746D02*
X14172563Y-8939698D01*
X14172563Y-8939698D02*
X14182087Y-8930174D01*
X14182087Y-8930174D02*
X14201134Y-8920650D01*
X14201134Y-8920650D02*
X14229706Y-8920650D01*
X14229706Y-8920650D02*
X14248753Y-8930174D01*
X14248753Y-8930174D02*
X14258277Y-8939698D01*
X14258277Y-8939698D02*
X14267801Y-8958746D01*
X14267801Y-8958746D02*
X14267801Y-9015889D01*
X14267801Y-9015889D02*
X14258277Y-9034936D01*
X14258277Y-9034936D02*
X14248753Y-9044460D01*
X14248753Y-9044460D02*
X14229706Y-9053984D01*
X14229706Y-9053984D02*
X14201134Y-9053984D01*
X14382087Y-9053984D02*
X14363039Y-9044460D01*
X14363039Y-9044460D02*
X14353515Y-9025412D01*
X14353515Y-9025412D02*
X14353515Y-8853984D01*
X14534468Y-9044460D02*
X14515420Y-9053984D01*
X14515420Y-9053984D02*
X14477325Y-9053984D01*
X14477325Y-9053984D02*
X14458277Y-9044460D01*
X14458277Y-9044460D02*
X14448753Y-9025412D01*
X14448753Y-9025412D02*
X14448753Y-8949222D01*
X14448753Y-8949222D02*
X14458277Y-8930174D01*
X14458277Y-8930174D02*
X14477325Y-8920650D01*
X14477325Y-8920650D02*
X14515420Y-8920650D01*
X14515420Y-8920650D02*
X14534468Y-8930174D01*
X14534468Y-8930174D02*
X14543991Y-8949222D01*
X14543991Y-8949222D02*
X14543991Y-8968270D01*
X14543991Y-8968270D02*
X14448753Y-8987317D01*
X14620182Y-9044460D02*
X14639230Y-9053984D01*
X14639230Y-9053984D02*
X14677325Y-9053984D01*
X14677325Y-9053984D02*
X14696372Y-9044460D01*
X14696372Y-9044460D02*
X14705896Y-9025412D01*
X14705896Y-9025412D02*
X14705896Y-9015889D01*
X14705896Y-9015889D02*
X14696372Y-8996841D01*
X14696372Y-8996841D02*
X14677325Y-8987317D01*
X14677325Y-8987317D02*
X14648753Y-8987317D01*
X14648753Y-8987317D02*
X14629706Y-8977793D01*
X14629706Y-8977793D02*
X14620182Y-8958746D01*
X14620182Y-8958746D02*
X14620182Y-8949222D01*
X14620182Y-8949222D02*
X14629706Y-8930174D01*
X14629706Y-8930174D02*
X14648753Y-8920650D01*
X14648753Y-8920650D02*
X14677325Y-8920650D01*
X14677325Y-8920650D02*
X14696372Y-8930174D01*
X14772563Y-9130174D02*
X14782087Y-9120650D01*
X14782087Y-9120650D02*
X14801134Y-9092079D01*
X14801134Y-9092079D02*
X14810658Y-9073031D01*
X14810658Y-9073031D02*
X14820182Y-9044460D01*
X14820182Y-9044460D02*
X14829706Y-8996841D01*
X14829706Y-8996841D02*
X14829706Y-8958746D01*
X14829706Y-8958746D02*
X14820182Y-8911127D01*
X14820182Y-8911127D02*
X14810658Y-8882555D01*
X14810658Y-8882555D02*
X14801134Y-8863508D01*
X14801134Y-8863508D02*
X14782087Y-8834936D01*
X14782087Y-8834936D02*
X14772563Y-8825412D01*
X9797500Y-9126500D02*
X9997500Y-9326500D01*
X9997500Y-9126500D02*
X9797500Y-9326500D01*
X9897500Y-9126500D02*
X9897500Y-9326500D01*
X9797500Y-9226500D02*
X9997500Y-9226500D01*
X10248753Y-9137031D02*
X10258277Y-9127508D01*
X10258277Y-9127508D02*
X10277324Y-9117984D01*
X10277324Y-9117984D02*
X10324944Y-9117984D01*
X10324944Y-9117984D02*
X10343991Y-9127508D01*
X10343991Y-9127508D02*
X10353515Y-9137031D01*
X10353515Y-9137031D02*
X10363039Y-9156079D01*
X10363039Y-9156079D02*
X10363039Y-9175127D01*
X10363039Y-9175127D02*
X10353515Y-9203698D01*
X10353515Y-9203698D02*
X10239229Y-9317984D01*
X10239229Y-9317984D02*
X10363039Y-9317984D01*
X10448753Y-9298936D02*
X10458277Y-9308460D01*
X10458277Y-9308460D02*
X10448753Y-9317984D01*
X10448753Y-9317984D02*
X10439229Y-9308460D01*
X10439229Y-9308460D02*
X10448753Y-9298936D01*
X10448753Y-9298936D02*
X10448753Y-9317984D01*
X10524944Y-9117984D02*
X10648753Y-9117984D01*
X10648753Y-9117984D02*
X10582086Y-9194174D01*
X10582086Y-9194174D02*
X10610658Y-9194174D01*
X10610658Y-9194174D02*
X10629705Y-9203698D01*
X10629705Y-9203698D02*
X10639229Y-9213222D01*
X10639229Y-9213222D02*
X10648753Y-9232270D01*
X10648753Y-9232270D02*
X10648753Y-9279889D01*
X10648753Y-9279889D02*
X10639229Y-9298936D01*
X10639229Y-9298936D02*
X10629705Y-9308460D01*
X10629705Y-9308460D02*
X10610658Y-9317984D01*
X10610658Y-9317984D02*
X10553515Y-9317984D01*
X10553515Y-9317984D02*
X10534467Y-9308460D01*
X10534467Y-9308460D02*
X10524944Y-9298936D01*
X10715420Y-9117984D02*
X10839229Y-9117984D01*
X10839229Y-9117984D02*
X10772563Y-9194174D01*
X10772563Y-9194174D02*
X10801134Y-9194174D01*
X10801134Y-9194174D02*
X10820182Y-9203698D01*
X10820182Y-9203698D02*
X10829705Y-9213222D01*
X10829705Y-9213222D02*
X10839229Y-9232270D01*
X10839229Y-9232270D02*
X10839229Y-9279889D01*
X10839229Y-9279889D02*
X10829705Y-9298936D01*
X10829705Y-9298936D02*
X10820182Y-9308460D01*
X10820182Y-9308460D02*
X10801134Y-9317984D01*
X10801134Y-9317984D02*
X10743991Y-9317984D01*
X10743991Y-9317984D02*
X10724944Y-9308460D01*
X10724944Y-9308460D02*
X10715420Y-9298936D01*
X10963039Y-9117984D02*
X10982086Y-9117984D01*
X10982086Y-9117984D02*
X11001134Y-9127508D01*
X11001134Y-9127508D02*
X11010658Y-9137031D01*
X11010658Y-9137031D02*
X11020182Y-9156079D01*
X11020182Y-9156079D02*
X11029705Y-9194174D01*
X11029705Y-9194174D02*
X11029705Y-9241793D01*
X11029705Y-9241793D02*
X11020182Y-9279889D01*
X11020182Y-9279889D02*
X11010658Y-9298936D01*
X11010658Y-9298936D02*
X11001134Y-9308460D01*
X11001134Y-9308460D02*
X10982086Y-9317984D01*
X10982086Y-9317984D02*
X10963039Y-9317984D01*
X10963039Y-9317984D02*
X10943991Y-9308460D01*
X10943991Y-9308460D02*
X10934467Y-9298936D01*
X10934467Y-9298936D02*
X10924944Y-9279889D01*
X10924944Y-9279889D02*
X10915420Y-9241793D01*
X10915420Y-9241793D02*
X10915420Y-9194174D01*
X10915420Y-9194174D02*
X10924944Y-9156079D01*
X10924944Y-9156079D02*
X10934467Y-9137031D01*
X10934467Y-9137031D02*
X10943991Y-9127508D01*
X10943991Y-9127508D02*
X10963039Y-9117984D01*
X11115420Y-9317984D02*
X11115420Y-9184650D01*
X11115420Y-9203698D02*
X11124944Y-9194174D01*
X11124944Y-9194174D02*
X11143991Y-9184650D01*
X11143991Y-9184650D02*
X11172563Y-9184650D01*
X11172563Y-9184650D02*
X11191610Y-9194174D01*
X11191610Y-9194174D02*
X11201134Y-9213222D01*
X11201134Y-9213222D02*
X11201134Y-9317984D01*
X11201134Y-9213222D02*
X11210658Y-9194174D01*
X11210658Y-9194174D02*
X11229705Y-9184650D01*
X11229705Y-9184650D02*
X11258277Y-9184650D01*
X11258277Y-9184650D02*
X11277324Y-9194174D01*
X11277324Y-9194174D02*
X11286848Y-9213222D01*
X11286848Y-9213222D02*
X11286848Y-9317984D01*
X11382086Y-9317984D02*
X11382086Y-9184650D01*
X11382086Y-9203698D02*
X11391610Y-9194174D01*
X11391610Y-9194174D02*
X11410658Y-9184650D01*
X11410658Y-9184650D02*
X11439229Y-9184650D01*
X11439229Y-9184650D02*
X11458277Y-9194174D01*
X11458277Y-9194174D02*
X11467801Y-9213222D01*
X11467801Y-9213222D02*
X11467801Y-9317984D01*
X11467801Y-9213222D02*
X11477324Y-9194174D01*
X11477324Y-9194174D02*
X11496372Y-9184650D01*
X11496372Y-9184650D02*
X11524943Y-9184650D01*
X11524943Y-9184650D02*
X11543991Y-9194174D01*
X11543991Y-9194174D02*
X11553515Y-9213222D01*
X11553515Y-9213222D02*
X11553515Y-9317984D01*
X11943991Y-9108460D02*
X11772563Y-9365603D01*
X12201134Y-9117984D02*
X12220182Y-9117984D01*
X12220182Y-9117984D02*
X12239229Y-9127508D01*
X12239229Y-9127508D02*
X12248753Y-9137031D01*
X12248753Y-9137031D02*
X12258277Y-9156079D01*
X12258277Y-9156079D02*
X12267801Y-9194174D01*
X12267801Y-9194174D02*
X12267801Y-9241793D01*
X12267801Y-9241793D02*
X12258277Y-9279889D01*
X12258277Y-9279889D02*
X12248753Y-9298936D01*
X12248753Y-9298936D02*
X12239229Y-9308460D01*
X12239229Y-9308460D02*
X12220182Y-9317984D01*
X12220182Y-9317984D02*
X12201134Y-9317984D01*
X12201134Y-9317984D02*
X12182086Y-9308460D01*
X12182086Y-9308460D02*
X12172563Y-9298936D01*
X12172563Y-9298936D02*
X12163039Y-9279889D01*
X12163039Y-9279889D02*
X12153515Y-9241793D01*
X12153515Y-9241793D02*
X12153515Y-9194174D01*
X12153515Y-9194174D02*
X12163039Y-9156079D01*
X12163039Y-9156079D02*
X12172563Y-9137031D01*
X12172563Y-9137031D02*
X12182086Y-9127508D01*
X12182086Y-9127508D02*
X12201134Y-9117984D01*
X12353515Y-9298936D02*
X12363039Y-9308460D01*
X12363039Y-9308460D02*
X12353515Y-9317984D01*
X12353515Y-9317984D02*
X12343991Y-9308460D01*
X12343991Y-9308460D02*
X12353515Y-9298936D01*
X12353515Y-9298936D02*
X12353515Y-9317984D01*
X12486848Y-9117984D02*
X12505896Y-9117984D01*
X12505896Y-9117984D02*
X12524944Y-9127508D01*
X12524944Y-9127508D02*
X12534467Y-9137031D01*
X12534467Y-9137031D02*
X12543991Y-9156079D01*
X12543991Y-9156079D02*
X12553515Y-9194174D01*
X12553515Y-9194174D02*
X12553515Y-9241793D01*
X12553515Y-9241793D02*
X12543991Y-9279889D01*
X12543991Y-9279889D02*
X12534467Y-9298936D01*
X12534467Y-9298936D02*
X12524944Y-9308460D01*
X12524944Y-9308460D02*
X12505896Y-9317984D01*
X12505896Y-9317984D02*
X12486848Y-9317984D01*
X12486848Y-9317984D02*
X12467801Y-9308460D01*
X12467801Y-9308460D02*
X12458277Y-9298936D01*
X12458277Y-9298936D02*
X12448753Y-9279889D01*
X12448753Y-9279889D02*
X12439229Y-9241793D01*
X12439229Y-9241793D02*
X12439229Y-9194174D01*
X12439229Y-9194174D02*
X12448753Y-9156079D01*
X12448753Y-9156079D02*
X12458277Y-9137031D01*
X12458277Y-9137031D02*
X12467801Y-9127508D01*
X12467801Y-9127508D02*
X12486848Y-9117984D01*
X12648753Y-9317984D02*
X12686848Y-9317984D01*
X12686848Y-9317984D02*
X12705896Y-9308460D01*
X12705896Y-9308460D02*
X12715420Y-9298936D01*
X12715420Y-9298936D02*
X12734467Y-9270365D01*
X12734467Y-9270365D02*
X12743991Y-9232270D01*
X12743991Y-9232270D02*
X12743991Y-9156079D01*
X12743991Y-9156079D02*
X12734467Y-9137031D01*
X12734467Y-9137031D02*
X12724944Y-9127508D01*
X12724944Y-9127508D02*
X12705896Y-9117984D01*
X12705896Y-9117984D02*
X12667801Y-9117984D01*
X12667801Y-9117984D02*
X12648753Y-9127508D01*
X12648753Y-9127508D02*
X12639229Y-9137031D01*
X12639229Y-9137031D02*
X12629706Y-9156079D01*
X12629706Y-9156079D02*
X12629706Y-9203698D01*
X12629706Y-9203698D02*
X12639229Y-9222746D01*
X12639229Y-9222746D02*
X12648753Y-9232270D01*
X12648753Y-9232270D02*
X12667801Y-9241793D01*
X12667801Y-9241793D02*
X12705896Y-9241793D01*
X12705896Y-9241793D02*
X12724944Y-9232270D01*
X12724944Y-9232270D02*
X12734467Y-9222746D01*
X12734467Y-9222746D02*
X12743991Y-9203698D01*
X12934467Y-9317984D02*
X12820182Y-9317984D01*
X12877325Y-9317984D02*
X12877325Y-9117984D01*
X12877325Y-9117984D02*
X12858277Y-9146555D01*
X12858277Y-9146555D02*
X12839229Y-9165603D01*
X12839229Y-9165603D02*
X12820182Y-9175127D01*
X13001134Y-9117984D02*
X13134467Y-9117984D01*
X13134467Y-9117984D02*
X13048753Y-9317984D01*
X13201134Y-9117984D02*
X13201134Y-9156079D01*
X13277325Y-9117984D02*
X13277325Y-9156079D01*
X13572563Y-9394174D02*
X13563039Y-9384650D01*
X13563039Y-9384650D02*
X13543991Y-9356079D01*
X13543991Y-9356079D02*
X13534468Y-9337031D01*
X13534468Y-9337031D02*
X13524944Y-9308460D01*
X13524944Y-9308460D02*
X13515420Y-9260841D01*
X13515420Y-9260841D02*
X13515420Y-9222746D01*
X13515420Y-9222746D02*
X13524944Y-9175127D01*
X13524944Y-9175127D02*
X13534468Y-9146555D01*
X13534468Y-9146555D02*
X13543991Y-9127508D01*
X13543991Y-9127508D02*
X13563039Y-9098936D01*
X13563039Y-9098936D02*
X13572563Y-9089412D01*
X13639229Y-9137031D02*
X13648753Y-9127508D01*
X13648753Y-9127508D02*
X13667801Y-9117984D01*
X13667801Y-9117984D02*
X13715420Y-9117984D01*
X13715420Y-9117984D02*
X13734468Y-9127508D01*
X13734468Y-9127508D02*
X13743991Y-9137031D01*
X13743991Y-9137031D02*
X13753515Y-9156079D01*
X13753515Y-9156079D02*
X13753515Y-9175127D01*
X13753515Y-9175127D02*
X13743991Y-9203698D01*
X13743991Y-9203698D02*
X13629706Y-9317984D01*
X13629706Y-9317984D02*
X13753515Y-9317984D01*
X13991610Y-9317984D02*
X13991610Y-9117984D01*
X14077325Y-9317984D02*
X14077325Y-9213222D01*
X14077325Y-9213222D02*
X14067801Y-9194174D01*
X14067801Y-9194174D02*
X14048753Y-9184650D01*
X14048753Y-9184650D02*
X14020182Y-9184650D01*
X14020182Y-9184650D02*
X14001134Y-9194174D01*
X14001134Y-9194174D02*
X13991610Y-9203698D01*
X14201134Y-9317984D02*
X14182087Y-9308460D01*
X14182087Y-9308460D02*
X14172563Y-9298936D01*
X14172563Y-9298936D02*
X14163039Y-9279889D01*
X14163039Y-9279889D02*
X14163039Y-9222746D01*
X14163039Y-9222746D02*
X14172563Y-9203698D01*
X14172563Y-9203698D02*
X14182087Y-9194174D01*
X14182087Y-9194174D02*
X14201134Y-9184650D01*
X14201134Y-9184650D02*
X14229706Y-9184650D01*
X14229706Y-9184650D02*
X14248753Y-9194174D01*
X14248753Y-9194174D02*
X14258277Y-9203698D01*
X14258277Y-9203698D02*
X14267801Y-9222746D01*
X14267801Y-9222746D02*
X14267801Y-9279889D01*
X14267801Y-9279889D02*
X14258277Y-9298936D01*
X14258277Y-9298936D02*
X14248753Y-9308460D01*
X14248753Y-9308460D02*
X14229706Y-9317984D01*
X14229706Y-9317984D02*
X14201134Y-9317984D01*
X14382087Y-9317984D02*
X14363039Y-9308460D01*
X14363039Y-9308460D02*
X14353515Y-9289412D01*
X14353515Y-9289412D02*
X14353515Y-9117984D01*
X14534468Y-9308460D02*
X14515420Y-9317984D01*
X14515420Y-9317984D02*
X14477325Y-9317984D01*
X14477325Y-9317984D02*
X14458277Y-9308460D01*
X14458277Y-9308460D02*
X14448753Y-9289412D01*
X14448753Y-9289412D02*
X14448753Y-9213222D01*
X14448753Y-9213222D02*
X14458277Y-9194174D01*
X14458277Y-9194174D02*
X14477325Y-9184650D01*
X14477325Y-9184650D02*
X14515420Y-9184650D01*
X14515420Y-9184650D02*
X14534468Y-9194174D01*
X14534468Y-9194174D02*
X14543991Y-9213222D01*
X14543991Y-9213222D02*
X14543991Y-9232270D01*
X14543991Y-9232270D02*
X14448753Y-9251317D01*
X14620182Y-9308460D02*
X14639230Y-9317984D01*
X14639230Y-9317984D02*
X14677325Y-9317984D01*
X14677325Y-9317984D02*
X14696372Y-9308460D01*
X14696372Y-9308460D02*
X14705896Y-9289412D01*
X14705896Y-9289412D02*
X14705896Y-9279889D01*
X14705896Y-9279889D02*
X14696372Y-9260841D01*
X14696372Y-9260841D02*
X14677325Y-9251317D01*
X14677325Y-9251317D02*
X14648753Y-9251317D01*
X14648753Y-9251317D02*
X14629706Y-9241793D01*
X14629706Y-9241793D02*
X14620182Y-9222746D01*
X14620182Y-9222746D02*
X14620182Y-9213222D01*
X14620182Y-9213222D02*
X14629706Y-9194174D01*
X14629706Y-9194174D02*
X14648753Y-9184650D01*
X14648753Y-9184650D02*
X14677325Y-9184650D01*
X14677325Y-9184650D02*
X14696372Y-9194174D01*
X14772563Y-9394174D02*
X14782087Y-9384650D01*
X14782087Y-9384650D02*
X14801134Y-9356079D01*
X14801134Y-9356079D02*
X14810658Y-9337031D01*
X14810658Y-9337031D02*
X14820182Y-9308460D01*
X14820182Y-9308460D02*
X14829706Y-9260841D01*
X14829706Y-9260841D02*
X14829706Y-9222746D01*
X14829706Y-9222746D02*
X14820182Y-9175127D01*
X14820182Y-9175127D02*
X14810658Y-9146555D01*
X14810658Y-9146555D02*
X14801134Y-9127508D01*
X14801134Y-9127508D02*
X14782087Y-9098936D01*
X14782087Y-9098936D02*
X14772563Y-9089412D01*
M02*
