M48
; DRILL file {KiCad 8.0.7} date 2025-01-23T22:17:53+0900
; FORMAT={-:-/ absolute / metric / decimal}
; #@! TF.CreationDate,2025-01-23T22:17:53+09:00
; #@! TF.GenerationSoftware,Kicad,Pcbnew,8.0.7
; #@! TF.FileFunction,Plated,1,2,PTH
FMAT,2
METRIC
; #@! TA.AperFunction,Plated,PTH,ViaDrill
T1C0.300
; #@! TA.AperFunction,Plated,PTH,ComponentDrill
T2C0.700
; #@! TA.AperFunction,Plated,PTH,ComponentDrill
T3C0.800
; #@! TA.AperFunction,Plated,PTH,ComponentDrill
T4C0.900
; #@! TA.AperFunction,Plated,PTH,ComponentDrill
T5C0.920
; #@! TA.AperFunction,Plated,PTH,ComponentDrill
T6C1.000
; #@! TA.AperFunction,Plated,PTH,ComponentDrill
T7C2.330
%
G90
G05
T1
X116.5Y-55.505
X116.5Y-56.505
X120.5Y-57.005
X146.062Y-61.392
T2
X113.0Y-60.173
X113.0Y-65.253
X135.293Y-55.601
X135.293Y-58.152
X135.293Y-60.704
X135.293Y-63.256
X140.373Y-55.601
X140.373Y-58.152
X140.373Y-60.704
X140.373Y-63.256
T3
X118.772Y-61.341
X118.772Y-64.341
X123.772Y-61.341
X123.772Y-64.341
X127.368Y-54.229
X127.368Y-59.229
T4
X113.0Y-55.042
X113.0Y-57.582
X130.213Y-56.159
X130.213Y-62.052
X132.753Y-56.159
X132.753Y-62.052
T5
X105.578Y-58.775
X105.578Y-61.275
X107.578Y-58.775
X107.578Y-61.275
T6
X147.624Y-54.413
X147.624Y-56.953
X147.624Y-59.493
X147.624Y-62.033
X147.624Y-64.573
T7
X102.867Y-54.005
X102.867Y-66.045
M30
