%TF.GenerationSoftware,KiCad,Pcbnew,8.0.7*%
%TF.CreationDate,2025-01-23T22:17:50+09:00*%
%TF.ProjectId,ch340_silial_release,63683334-305f-4736-996c-69616c5f7265,rev?*%
%TF.SameCoordinates,Original*%
%TF.FileFunction,Drillmap*%
%TF.FilePolarity,Positive*%
%FSLAX45Y45*%
G04 Gerber Fmt 4.5, Leading zero omitted, Abs format (unit mm)*
G04 Created by KiCad (PCBNEW 8.0.7) date 2025-01-23 22:17:50*
%MOMM*%
%LPD*%
G01*
G04 APERTURE LIST*
%ADD10C,0.050000*%
%ADD11C,0.200000*%
G04 APERTURE END LIST*
D10*
X10000000Y-7000000D02*
X10000000Y-5000000D01*
X15000000Y-7000000D02*
X10000000Y-7000000D01*
X15000000Y-5000000D02*
X15000000Y-7000000D01*
X10000000Y-5000000D02*
X15000000Y-5000000D01*
D11*
X10258277Y-7313984D02*
X10258277Y-7113984D01*
X10258277Y-7113984D02*
X10305896Y-7113984D01*
X10305896Y-7113984D02*
X10334467Y-7123508D01*
X10334467Y-7123508D02*
X10353515Y-7142555D01*
X10353515Y-7142555D02*
X10363039Y-7161603D01*
X10363039Y-7161603D02*
X10372563Y-7199698D01*
X10372563Y-7199698D02*
X10372563Y-7228269D01*
X10372563Y-7228269D02*
X10363039Y-7266365D01*
X10363039Y-7266365D02*
X10353515Y-7285412D01*
X10353515Y-7285412D02*
X10334467Y-7304460D01*
X10334467Y-7304460D02*
X10305896Y-7313984D01*
X10305896Y-7313984D02*
X10258277Y-7313984D01*
X10458277Y-7313984D02*
X10458277Y-7180650D01*
X10458277Y-7218746D02*
X10467801Y-7199698D01*
X10467801Y-7199698D02*
X10477324Y-7190174D01*
X10477324Y-7190174D02*
X10496372Y-7180650D01*
X10496372Y-7180650D02*
X10515420Y-7180650D01*
X10582086Y-7313984D02*
X10582086Y-7180650D01*
X10582086Y-7113984D02*
X10572563Y-7123508D01*
X10572563Y-7123508D02*
X10582086Y-7133031D01*
X10582086Y-7133031D02*
X10591610Y-7123508D01*
X10591610Y-7123508D02*
X10582086Y-7113984D01*
X10582086Y-7113984D02*
X10582086Y-7133031D01*
X10705896Y-7313984D02*
X10686848Y-7304460D01*
X10686848Y-7304460D02*
X10677324Y-7285412D01*
X10677324Y-7285412D02*
X10677324Y-7113984D01*
X10810658Y-7313984D02*
X10791610Y-7304460D01*
X10791610Y-7304460D02*
X10782086Y-7285412D01*
X10782086Y-7285412D02*
X10782086Y-7113984D01*
X11039229Y-7313984D02*
X11039229Y-7113984D01*
X11039229Y-7113984D02*
X11105896Y-7256841D01*
X11105896Y-7256841D02*
X11172563Y-7113984D01*
X11172563Y-7113984D02*
X11172563Y-7313984D01*
X11353515Y-7313984D02*
X11353515Y-7209222D01*
X11353515Y-7209222D02*
X11343991Y-7190174D01*
X11343991Y-7190174D02*
X11324943Y-7180650D01*
X11324943Y-7180650D02*
X11286848Y-7180650D01*
X11286848Y-7180650D02*
X11267801Y-7190174D01*
X11353515Y-7304460D02*
X11334467Y-7313984D01*
X11334467Y-7313984D02*
X11286848Y-7313984D01*
X11286848Y-7313984D02*
X11267801Y-7304460D01*
X11267801Y-7304460D02*
X11258277Y-7285412D01*
X11258277Y-7285412D02*
X11258277Y-7266365D01*
X11258277Y-7266365D02*
X11267801Y-7247317D01*
X11267801Y-7247317D02*
X11286848Y-7237793D01*
X11286848Y-7237793D02*
X11334467Y-7237793D01*
X11334467Y-7237793D02*
X11353515Y-7228269D01*
X11448753Y-7180650D02*
X11448753Y-7380650D01*
X11448753Y-7190174D02*
X11467801Y-7180650D01*
X11467801Y-7180650D02*
X11505896Y-7180650D01*
X11505896Y-7180650D02*
X11524943Y-7190174D01*
X11524943Y-7190174D02*
X11534467Y-7199698D01*
X11534467Y-7199698D02*
X11543991Y-7218746D01*
X11543991Y-7218746D02*
X11543991Y-7275888D01*
X11543991Y-7275888D02*
X11534467Y-7294936D01*
X11534467Y-7294936D02*
X11524943Y-7304460D01*
X11524943Y-7304460D02*
X11505896Y-7313984D01*
X11505896Y-7313984D02*
X11467801Y-7313984D01*
X11467801Y-7313984D02*
X11448753Y-7304460D01*
X11629705Y-7294936D02*
X11639229Y-7304460D01*
X11639229Y-7304460D02*
X11629705Y-7313984D01*
X11629705Y-7313984D02*
X11620182Y-7304460D01*
X11620182Y-7304460D02*
X11629705Y-7294936D01*
X11629705Y-7294936D02*
X11629705Y-7313984D01*
X11629705Y-7190174D02*
X11639229Y-7199698D01*
X11639229Y-7199698D02*
X11629705Y-7209222D01*
X11629705Y-7209222D02*
X11620182Y-7199698D01*
X11620182Y-7199698D02*
X11629705Y-7190174D01*
X11629705Y-7190174D02*
X11629705Y-7209222D01*
M02*
