G04 #@! TF.GenerationSoftware,KiCad,Pcbnew,8.0.7*
G04 #@! TF.CreationDate,2025-01-23T22:17:45+09:00*
G04 #@! TF.ProjectId,ch340_silial_release,63683334-305f-4736-996c-69616c5f7265,rev?*
G04 #@! TF.SameCoordinates,Original*
G04 #@! TF.FileFunction,Copper,L1,Top*
G04 #@! TF.FilePolarity,Positive*
%FSLAX46Y46*%
G04 Gerber Fmt 4.6, Leading zero omitted, Abs format (unit mm)*
G04 Created by KiCad (PCBNEW 8.0.7) date 2025-01-23 22:17:45*
%MOMM*%
%LPD*%
G01*
G04 APERTURE LIST*
G04 Aperture macros list*
%AMRoundRect*
0 Rectangle with rounded corners*
0 $1 Rounding radius*
0 $2 $3 $4 $5 $6 $7 $8 $9 X,Y pos of 4 corners*
0 Add a 4 corners polygon primitive as box body*
4,1,4,$2,$3,$4,$5,$6,$7,$8,$9,$2,$3,0*
0 Add four circle primitives for the rounded corners*
1,1,$1+$1,$2,$3*
1,1,$1+$1,$4,$5*
1,1,$1+$1,$6,$7*
1,1,$1+$1,$8,$9*
0 Add four rect primitives between the rounded corners*
20,1,$1+$1,$2,$3,$4,$5,0*
20,1,$1+$1,$4,$5,$6,$7,0*
20,1,$1+$1,$6,$7,$8,$9,0*
20,1,$1+$1,$8,$9,$2,$3,0*%
G04 Aperture macros list end*
G04 #@! TA.AperFunction,ComponentPad*
%ADD10R,1.700000X1.700000*%
G04 #@! TD*
G04 #@! TA.AperFunction,ComponentPad*
%ADD11C,1.700000*%
G04 #@! TD*
G04 #@! TA.AperFunction,ComponentPad*
%ADD12C,3.500000*%
G04 #@! TD*
G04 #@! TA.AperFunction,ComponentPad*
%ADD13C,1.400000*%
G04 #@! TD*
G04 #@! TA.AperFunction,ComponentPad*
%ADD14O,1.400000X1.400000*%
G04 #@! TD*
G04 #@! TA.AperFunction,ComponentPad*
%ADD15C,1.600000*%
G04 #@! TD*
G04 #@! TA.AperFunction,ComponentPad*
%ADD16R,1.800000X1.800000*%
G04 #@! TD*
G04 #@! TA.AperFunction,ComponentPad*
%ADD17C,1.800000*%
G04 #@! TD*
G04 #@! TA.AperFunction,ComponentPad*
%ADD18O,1.700000X1.700000*%
G04 #@! TD*
G04 #@! TA.AperFunction,SMDPad,CuDef*
%ADD19RoundRect,0.150000X-0.675000X-0.150000X0.675000X-0.150000X0.675000X0.150000X-0.675000X0.150000X0*%
G04 #@! TD*
G04 #@! TA.AperFunction,ViaPad*
%ADD20C,0.600000*%
G04 #@! TD*
G04 #@! TA.AperFunction,Conductor*
%ADD21C,0.200000*%
G04 #@! TD*
G04 #@! TA.AperFunction,Conductor*
%ADD22C,1.000000*%
G04 #@! TD*
G04 APERTURE END LIST*
D10*
X107577500Y-61275000D03*
D11*
X107577500Y-58775000D03*
X105577500Y-58775000D03*
X105577500Y-61275000D03*
D12*
X102867500Y-66045000D03*
X102867500Y-54005000D03*
D13*
X135292800Y-58152266D03*
D14*
X140372800Y-58152266D03*
X140372800Y-55600600D03*
D13*
X135292800Y-55600600D03*
X113000000Y-65252600D03*
D14*
X113000000Y-60172600D03*
D13*
X140372800Y-60703932D03*
D14*
X135292800Y-60703932D03*
D13*
X140372800Y-63255600D03*
D14*
X135292800Y-63255600D03*
D15*
X123772000Y-64341000D03*
X118772000Y-64341000D03*
X123772000Y-61341000D03*
X118772000Y-61341000D03*
X127368000Y-54229000D03*
X127368000Y-59229000D03*
D16*
X130212800Y-56159400D03*
D17*
X132752800Y-56159400D03*
D16*
X130212800Y-62052200D03*
D17*
X132752800Y-62052200D03*
D10*
X147623900Y-54413200D03*
D18*
X147623900Y-56953200D03*
X147623900Y-59493200D03*
X147623900Y-62033200D03*
X147623900Y-64573200D03*
D19*
X118375000Y-54600000D03*
X118375000Y-55870000D03*
X118375000Y-57140000D03*
X118375000Y-58410000D03*
X123625000Y-58410000D03*
X123625000Y-57140000D03*
X123625000Y-55870000D03*
X123625000Y-54600000D03*
D16*
X113000000Y-55041800D03*
D17*
X113000000Y-57581800D03*
D20*
X146062400Y-61391800D03*
X120500000Y-57005000D03*
X116500000Y-55505000D03*
X116500000Y-56505000D03*
D21*
X146084000Y-66421000D02*
X148000000Y-64505000D01*
X120408400Y-64744600D02*
X122084800Y-66421000D01*
X120408400Y-60443400D02*
X120408400Y-64744600D01*
X122084800Y-66421000D02*
X146084000Y-66421000D01*
X118375000Y-58410000D02*
X120408400Y-60443400D01*
X113000000Y-60172600D02*
X113000000Y-57581800D01*
X146062400Y-61362600D02*
X148000000Y-59425000D01*
X146062400Y-61391800D02*
X146062400Y-61362600D01*
X132752800Y-60692266D02*
X135292800Y-58152266D01*
X132752800Y-62052200D02*
X132752800Y-60692266D01*
X134734000Y-56159400D02*
X135292800Y-55600600D01*
X132752800Y-56159400D02*
X134734000Y-56159400D01*
X130212800Y-60518165D02*
X130212800Y-62052200D01*
X126834635Y-57140000D02*
X130212800Y-60518165D01*
X123625000Y-57140000D02*
X126834635Y-57140000D01*
X129923400Y-55870000D02*
X130212800Y-56159400D01*
X123625000Y-55870000D02*
X129923400Y-55870000D01*
X126997000Y-54600000D02*
X127368000Y-54229000D01*
X123625000Y-54600000D02*
X126997000Y-54600000D01*
D22*
X118375000Y-57140000D02*
X120365000Y-57140000D01*
X120365000Y-57140000D02*
X120500000Y-57005000D01*
D21*
X118375000Y-54600000D02*
X118570552Y-54600000D01*
X118570552Y-54600000D02*
X117405000Y-54600000D01*
X117405000Y-54600000D02*
X116500000Y-55505000D01*
X117135000Y-55870000D02*
X116500000Y-56505000D01*
X118375000Y-55870000D02*
X117135000Y-55870000D01*
G04 #@! TA.AperFunction,Conductor*
G36*
X149442539Y-50520185D02*
G01*
X149488294Y-50572989D01*
X149499500Y-50624500D01*
X149499500Y-69375500D01*
X149479815Y-69442539D01*
X149427011Y-69488294D01*
X149375500Y-69499500D01*
X100624500Y-69499500D01*
X100557461Y-69479815D01*
X100511706Y-69427011D01*
X100500500Y-69375500D01*
X100500500Y-66824418D01*
X100520185Y-66757379D01*
X100572989Y-66711624D01*
X100642147Y-66701680D01*
X100705703Y-66730705D01*
X100741919Y-66784559D01*
X100783849Y-66908080D01*
X100914325Y-67172660D01*
X100914329Y-67172667D01*
X101078225Y-67417955D01*
X101272741Y-67639758D01*
X101494543Y-67834273D01*
X101739835Y-67998172D01*
X102004423Y-68128652D01*
X102283778Y-68223481D01*
X102573120Y-68281034D01*
X102601388Y-68282886D01*
X102867493Y-68300329D01*
X102867500Y-68300329D01*
X102867507Y-68300329D01*
X103103175Y-68284881D01*
X103161880Y-68281034D01*
X103451222Y-68223481D01*
X103730577Y-68128652D01*
X103995165Y-67998172D01*
X104240457Y-67834273D01*
X104462258Y-67639758D01*
X104656773Y-67417957D01*
X104820672Y-67172665D01*
X104951152Y-66908077D01*
X105045981Y-66628722D01*
X105103534Y-66339380D01*
X105108771Y-66259480D01*
X112346671Y-66259480D01*
X112462823Y-66331398D01*
X112462824Y-66331399D01*
X112670195Y-66411734D01*
X112888807Y-66452600D01*
X113111193Y-66452600D01*
X113329804Y-66411734D01*
X113537177Y-66331398D01*
X113537178Y-66331397D01*
X113653327Y-66259480D01*
X113000001Y-65606154D01*
X113000000Y-65606154D01*
X112346671Y-66259480D01*
X105108771Y-66259480D01*
X105122829Y-66045000D01*
X105122829Y-66044992D01*
X105103535Y-65750636D01*
X105103534Y-65750620D01*
X105045981Y-65461278D01*
X104975143Y-65252599D01*
X111794859Y-65252599D01*
X111794859Y-65252600D01*
X111815378Y-65474039D01*
X111876240Y-65687950D01*
X111975364Y-65887019D01*
X111975366Y-65887021D01*
X111991138Y-65907906D01*
X112646446Y-65252600D01*
X112646446Y-65252599D01*
X112600369Y-65206522D01*
X112650000Y-65206522D01*
X112650000Y-65298678D01*
X112673852Y-65387695D01*
X112719930Y-65467505D01*
X112785095Y-65532670D01*
X112864905Y-65578748D01*
X112953922Y-65602600D01*
X113046078Y-65602600D01*
X113135095Y-65578748D01*
X113214905Y-65532670D01*
X113280070Y-65467505D01*
X113326148Y-65387695D01*
X113350000Y-65298678D01*
X113350000Y-65252599D01*
X113353554Y-65252599D01*
X113353554Y-65252600D01*
X114008860Y-65907906D01*
X114008861Y-65907906D01*
X114024631Y-65887025D01*
X114024632Y-65887022D01*
X114123759Y-65687950D01*
X114184621Y-65474039D01*
X114205141Y-65252600D01*
X114205141Y-65252599D01*
X114184621Y-65031160D01*
X114123759Y-64817249D01*
X114024633Y-64618177D01*
X114024631Y-64618174D01*
X114008860Y-64597291D01*
X113353554Y-65252599D01*
X113350000Y-65252599D01*
X113350000Y-65206522D01*
X113326148Y-65117505D01*
X113280070Y-65037695D01*
X113214905Y-64972530D01*
X113135095Y-64926452D01*
X113046078Y-64902600D01*
X112953922Y-64902600D01*
X112864905Y-64926452D01*
X112785095Y-64972530D01*
X112719930Y-65037695D01*
X112673852Y-65117505D01*
X112650000Y-65206522D01*
X112600369Y-65206522D01*
X111991138Y-64597291D01*
X111991137Y-64597291D01*
X111975369Y-64618171D01*
X111876240Y-64817249D01*
X111815378Y-65031160D01*
X111794859Y-65252599D01*
X104975143Y-65252599D01*
X104951152Y-65181923D01*
X104820672Y-64917336D01*
X104656773Y-64672043D01*
X104591217Y-64597291D01*
X104462258Y-64450241D01*
X104240455Y-64255725D01*
X104225478Y-64245718D01*
X112346671Y-64245718D01*
X113000000Y-64899046D01*
X113000001Y-64899046D01*
X113653327Y-64245718D01*
X113653326Y-64245717D01*
X113537181Y-64173803D01*
X113537175Y-64173800D01*
X113329804Y-64093465D01*
X113111193Y-64052600D01*
X112888807Y-64052600D01*
X112670195Y-64093465D01*
X112462824Y-64173800D01*
X112462818Y-64173804D01*
X112346672Y-64245717D01*
X112346671Y-64245718D01*
X104225478Y-64245718D01*
X103995167Y-64091829D01*
X103995160Y-64091825D01*
X103730580Y-63961349D01*
X103451230Y-63866521D01*
X103451224Y-63866519D01*
X103451222Y-63866519D01*
X103161880Y-63808966D01*
X103161873Y-63808965D01*
X103161863Y-63808964D01*
X102867507Y-63789671D01*
X102867493Y-63789671D01*
X102573136Y-63808964D01*
X102573124Y-63808965D01*
X102573120Y-63808966D01*
X102573112Y-63808967D01*
X102573109Y-63808968D01*
X102283783Y-63866518D01*
X102283769Y-63866521D01*
X102004419Y-63961349D01*
X101739834Y-64091828D01*
X101494541Y-64255728D01*
X101272741Y-64450241D01*
X101078228Y-64672041D01*
X100914328Y-64917334D01*
X100783849Y-65181919D01*
X100741919Y-65305440D01*
X100701730Y-65362594D01*
X100637021Y-65388947D01*
X100568336Y-65376132D01*
X100517483Y-65328218D01*
X100500500Y-65265581D01*
X100500500Y-58774999D01*
X104221841Y-58774999D01*
X104221841Y-58775000D01*
X104242436Y-59010403D01*
X104242438Y-59010413D01*
X104303594Y-59238655D01*
X104303596Y-59238659D01*
X104303597Y-59238663D01*
X104388410Y-59420544D01*
X104403465Y-59452830D01*
X104403467Y-59452834D01*
X104463037Y-59537908D01*
X104539001Y-59646396D01*
X104539006Y-59646402D01*
X104706097Y-59813493D01*
X104706103Y-59813498D01*
X104863095Y-59923425D01*
X104906720Y-59978002D01*
X104913914Y-60047500D01*
X104882391Y-60109855D01*
X104863095Y-60126575D01*
X104706097Y-60236505D01*
X104539005Y-60403597D01*
X104403465Y-60597169D01*
X104403464Y-60597171D01*
X104303598Y-60811335D01*
X104303594Y-60811344D01*
X104242438Y-61039586D01*
X104242436Y-61039596D01*
X104221841Y-61274999D01*
X104221841Y-61275000D01*
X104242436Y-61510403D01*
X104242438Y-61510413D01*
X104303594Y-61738655D01*
X104303596Y-61738659D01*
X104303597Y-61738663D01*
X104341941Y-61820891D01*
X104403465Y-61952830D01*
X104403467Y-61952834D01*
X104473049Y-62052206D01*
X104539005Y-62146401D01*
X104706099Y-62313495D01*
X104782635Y-62367086D01*
X104899665Y-62449032D01*
X104899667Y-62449033D01*
X104899670Y-62449035D01*
X105113837Y-62548903D01*
X105342092Y-62610063D01*
X105512819Y-62625000D01*
X105577499Y-62630659D01*
X105577500Y-62630659D01*
X105577501Y-62630659D01*
X105623516Y-62626633D01*
X105812908Y-62610063D01*
X106041163Y-62548903D01*
X106232444Y-62459707D01*
X106301522Y-62449215D01*
X106365306Y-62477735D01*
X106369346Y-62481467D01*
X106485406Y-62568350D01*
X106485413Y-62568354D01*
X106620120Y-62618596D01*
X106620127Y-62618598D01*
X106679655Y-62624999D01*
X106679672Y-62625000D01*
X107327500Y-62625000D01*
X107327500Y-61661823D01*
X107399947Y-61703651D01*
X107516940Y-61735000D01*
X107638060Y-61735000D01*
X107755053Y-61703651D01*
X107827500Y-61661823D01*
X107827500Y-62625000D01*
X108475328Y-62625000D01*
X108475344Y-62624999D01*
X108534872Y-62618598D01*
X108534879Y-62618596D01*
X108669586Y-62568354D01*
X108669593Y-62568350D01*
X108784687Y-62482190D01*
X108784690Y-62482187D01*
X108870850Y-62367093D01*
X108870854Y-62367086D01*
X108921096Y-62232379D01*
X108921098Y-62232372D01*
X108927499Y-62172844D01*
X108927500Y-62172827D01*
X108927500Y-61525000D01*
X107964324Y-61525000D01*
X108006151Y-61452553D01*
X108037500Y-61335560D01*
X108037500Y-61214440D01*
X108006151Y-61097447D01*
X107964324Y-61025000D01*
X108927500Y-61025000D01*
X108927500Y-60377172D01*
X108927499Y-60377155D01*
X108921098Y-60317627D01*
X108921096Y-60317620D01*
X108870854Y-60182913D01*
X108870850Y-60182906D01*
X108784690Y-60067812D01*
X108784687Y-60067809D01*
X108669593Y-59981649D01*
X108669586Y-59981645D01*
X108567162Y-59943444D01*
X108511228Y-59901573D01*
X108486811Y-59836109D01*
X108501662Y-59767836D01*
X108522808Y-59739587D01*
X108615995Y-59646401D01*
X108751535Y-59452830D01*
X108851403Y-59238663D01*
X108912563Y-59010408D01*
X108933159Y-58775000D01*
X108912563Y-58539592D01*
X108855004Y-58324775D01*
X108851405Y-58311344D01*
X108851404Y-58311343D01*
X108851403Y-58311337D01*
X108751535Y-58097171D01*
X108750164Y-58095212D01*
X108615994Y-57903597D01*
X108448902Y-57736506D01*
X108448895Y-57736501D01*
X108420676Y-57716742D01*
X108396538Y-57699840D01*
X108255334Y-57600967D01*
X108255330Y-57600965D01*
X108255328Y-57600964D01*
X108214216Y-57581793D01*
X111594700Y-57581793D01*
X111594700Y-57581806D01*
X111613864Y-57813097D01*
X111613866Y-57813108D01*
X111670842Y-58038100D01*
X111764075Y-58250648D01*
X111891016Y-58444947D01*
X111891019Y-58444951D01*
X111891021Y-58444953D01*
X112048216Y-58615713D01*
X112048219Y-58615715D01*
X112048222Y-58615718D01*
X112231365Y-58758264D01*
X112231372Y-58758268D01*
X112231374Y-58758270D01*
X112284383Y-58786957D01*
X112334517Y-58814088D01*
X112384108Y-58863307D01*
X112399500Y-58923143D01*
X112399500Y-59063354D01*
X112379815Y-59130393D01*
X112340778Y-59168781D01*
X112273436Y-59210477D01*
X112109020Y-59360361D01*
X111974943Y-59537908D01*
X111974938Y-59537916D01*
X111875775Y-59737061D01*
X111875769Y-59737076D01*
X111814885Y-59951062D01*
X111814884Y-59951064D01*
X111794357Y-60172599D01*
X111794357Y-60172600D01*
X111814884Y-60394135D01*
X111814885Y-60394137D01*
X111875769Y-60608123D01*
X111875775Y-60608138D01*
X111974938Y-60807283D01*
X111974943Y-60807291D01*
X112109020Y-60984838D01*
X112273437Y-61134723D01*
X112273439Y-61134725D01*
X112462595Y-61251845D01*
X112462596Y-61251845D01*
X112462599Y-61251847D01*
X112670060Y-61332218D01*
X112888757Y-61373100D01*
X112888759Y-61373100D01*
X113111241Y-61373100D01*
X113111243Y-61373100D01*
X113329940Y-61332218D01*
X113537401Y-61251847D01*
X113726562Y-61134724D01*
X113890981Y-60984836D01*
X114025058Y-60807289D01*
X114124229Y-60608128D01*
X114185115Y-60394136D01*
X114205643Y-60172600D01*
X114185115Y-59951064D01*
X114124229Y-59737072D01*
X114120017Y-59728613D01*
X114025061Y-59537916D01*
X114025056Y-59537908D01*
X113890979Y-59360361D01*
X113726563Y-59210477D01*
X113726562Y-59210476D01*
X113659221Y-59168780D01*
X113612587Y-59116753D01*
X113600500Y-59063354D01*
X113600500Y-58923143D01*
X113620185Y-58856104D01*
X113665483Y-58814088D01*
X113768626Y-58758270D01*
X113951784Y-58615713D01*
X114108979Y-58444953D01*
X114235924Y-58250649D01*
X114329157Y-58038100D01*
X114386134Y-57813105D01*
X114386316Y-57810908D01*
X114405300Y-57581806D01*
X114405300Y-57581793D01*
X114386135Y-57350502D01*
X114386133Y-57350491D01*
X114329157Y-57125499D01*
X114235924Y-56912951D01*
X114108983Y-56718652D01*
X114108980Y-56718649D01*
X114108979Y-56718647D01*
X114014195Y-56615684D01*
X113983275Y-56553032D01*
X113991135Y-56483606D01*
X114035283Y-56429451D01*
X114062095Y-56415522D01*
X114070198Y-56412500D01*
X114142331Y-56385596D01*
X114257546Y-56299346D01*
X114343796Y-56184131D01*
X114394091Y-56049283D01*
X114400500Y-55989673D01*
X114400500Y-55504996D01*
X115694435Y-55504996D01*
X115694435Y-55505003D01*
X115714630Y-55684249D01*
X115714633Y-55684262D01*
X115774209Y-55854520D01*
X115827309Y-55939029D01*
X115846309Y-56006266D01*
X115827309Y-56070971D01*
X115774209Y-56155479D01*
X115714633Y-56325737D01*
X115714630Y-56325750D01*
X115694435Y-56504996D01*
X115694435Y-56505003D01*
X115714630Y-56684249D01*
X115714631Y-56684254D01*
X115774211Y-56854523D01*
X115845777Y-56968419D01*
X115870184Y-57007262D01*
X115997738Y-57134816D01*
X116052076Y-57168959D01*
X116141094Y-57224893D01*
X116150478Y-57230789D01*
X116288649Y-57279137D01*
X116320745Y-57290368D01*
X116320750Y-57290369D01*
X116499996Y-57310565D01*
X116500000Y-57310565D01*
X116500004Y-57310565D01*
X116679249Y-57290369D01*
X116679252Y-57290368D01*
X116679255Y-57290368D01*
X116849522Y-57230789D01*
X116849524Y-57230788D01*
X116859527Y-57224503D01*
X116926764Y-57205502D01*
X116993599Y-57225869D01*
X117038814Y-57279137D01*
X117049500Y-57329496D01*
X117049500Y-57355701D01*
X117052401Y-57392567D01*
X117052402Y-57392573D01*
X117098254Y-57550393D01*
X117098255Y-57550396D01*
X117098256Y-57550398D01*
X117116823Y-57581793D01*
X117181917Y-57691862D01*
X117186702Y-57698031D01*
X117184256Y-57699927D01*
X117210857Y-57748642D01*
X117205873Y-57818334D01*
X117185069Y-57850703D01*
X117186702Y-57851969D01*
X117181917Y-57858137D01*
X117098255Y-57999603D01*
X117098254Y-57999606D01*
X117052402Y-58157426D01*
X117052401Y-58157432D01*
X117049500Y-58194298D01*
X117049500Y-58625701D01*
X117052401Y-58662567D01*
X117052402Y-58662573D01*
X117098254Y-58820393D01*
X117098255Y-58820396D01*
X117098256Y-58820398D01*
X117104615Y-58831150D01*
X117181917Y-58961862D01*
X117181923Y-58961870D01*
X117298129Y-59078076D01*
X117298133Y-59078079D01*
X117298135Y-59078081D01*
X117439602Y-59161744D01*
X117481224Y-59173836D01*
X117597426Y-59207597D01*
X117597429Y-59207597D01*
X117597431Y-59207598D01*
X117634306Y-59210500D01*
X118274903Y-59210500D01*
X118341942Y-59230185D01*
X118362584Y-59246819D01*
X118947310Y-59831545D01*
X118980795Y-59892868D01*
X118975811Y-59962560D01*
X118933939Y-60018493D01*
X118868475Y-60042910D01*
X118848823Y-60042754D01*
X118772004Y-60036034D01*
X118771998Y-60036034D01*
X118545400Y-60055858D01*
X118545389Y-60055860D01*
X118325682Y-60114730D01*
X118325673Y-60114734D01*
X118119516Y-60210866D01*
X118119512Y-60210868D01*
X118046526Y-60261973D01*
X118046526Y-60261974D01*
X118725553Y-60941000D01*
X118719339Y-60941000D01*
X118617606Y-60968259D01*
X118526394Y-61020920D01*
X118451920Y-61095394D01*
X118399259Y-61186606D01*
X118372000Y-61288339D01*
X118372000Y-61294552D01*
X117692974Y-60615526D01*
X117692973Y-60615526D01*
X117641868Y-60688512D01*
X117641866Y-60688516D01*
X117545734Y-60894673D01*
X117545730Y-60894682D01*
X117486860Y-61114389D01*
X117486858Y-61114400D01*
X117467034Y-61340997D01*
X117467034Y-61341002D01*
X117486858Y-61567599D01*
X117486860Y-61567610D01*
X117545730Y-61787317D01*
X117545735Y-61787331D01*
X117641863Y-61993478D01*
X117692974Y-62066472D01*
X118372000Y-61387446D01*
X118372000Y-61393661D01*
X118399259Y-61495394D01*
X118451920Y-61586606D01*
X118526394Y-61661080D01*
X118617606Y-61713741D01*
X118719339Y-61741000D01*
X118725552Y-61741000D01*
X118046526Y-62420025D01*
X118119513Y-62471132D01*
X118119521Y-62471136D01*
X118325668Y-62567264D01*
X118325682Y-62567269D01*
X118545389Y-62626139D01*
X118545400Y-62626141D01*
X118771998Y-62645966D01*
X118772002Y-62645966D01*
X118998599Y-62626141D01*
X118998610Y-62626139D01*
X119218317Y-62567269D01*
X119218326Y-62567265D01*
X119424482Y-62471134D01*
X119612776Y-62339288D01*
X119678982Y-62316961D01*
X119746749Y-62333971D01*
X119794563Y-62384919D01*
X119807900Y-62440863D01*
X119807900Y-63241136D01*
X119788215Y-63308175D01*
X119735411Y-63353930D01*
X119666253Y-63363874D01*
X119612776Y-63342711D01*
X119424482Y-63210866D01*
X119218326Y-63114734D01*
X119218317Y-63114730D01*
X118998610Y-63055860D01*
X118998599Y-63055858D01*
X118772002Y-63036034D01*
X118771998Y-63036034D01*
X118545400Y-63055858D01*
X118545389Y-63055860D01*
X118325682Y-63114730D01*
X118325673Y-63114734D01*
X118119516Y-63210866D01*
X118119512Y-63210868D01*
X118046526Y-63261973D01*
X118046526Y-63261974D01*
X118725554Y-63941000D01*
X118719339Y-63941000D01*
X118617606Y-63968259D01*
X118526394Y-64020920D01*
X118451920Y-64095394D01*
X118399259Y-64186606D01*
X118372000Y-64288339D01*
X118372000Y-64294552D01*
X117692974Y-63615526D01*
X117692973Y-63615526D01*
X117641868Y-63688512D01*
X117641866Y-63688516D01*
X117545734Y-63894673D01*
X117545730Y-63894682D01*
X117486860Y-64114389D01*
X117486858Y-64114400D01*
X117467034Y-64340997D01*
X117467034Y-64341002D01*
X117486858Y-64567599D01*
X117486860Y-64567610D01*
X117545730Y-64787317D01*
X117545735Y-64787331D01*
X117641863Y-64993478D01*
X117692974Y-65066472D01*
X118372000Y-64387446D01*
X118372000Y-64393661D01*
X118399259Y-64495394D01*
X118451920Y-64586606D01*
X118526394Y-64661080D01*
X118617606Y-64713741D01*
X118719339Y-64741000D01*
X118725553Y-64741000D01*
X118046526Y-65420025D01*
X118119513Y-65471132D01*
X118119521Y-65471136D01*
X118325668Y-65567264D01*
X118325682Y-65567269D01*
X118545389Y-65626139D01*
X118545400Y-65626141D01*
X118771998Y-65645966D01*
X118772002Y-65645966D01*
X118998599Y-65626141D01*
X118998610Y-65626139D01*
X119218317Y-65567269D01*
X119218331Y-65567264D01*
X119424478Y-65471136D01*
X119497471Y-65420024D01*
X118818447Y-64741000D01*
X118824661Y-64741000D01*
X118926394Y-64713741D01*
X119017606Y-64661080D01*
X119092080Y-64586606D01*
X119144741Y-64495394D01*
X119172000Y-64393661D01*
X119172000Y-64387446D01*
X119861649Y-65077097D01*
X119890090Y-65082813D01*
X119920919Y-65108782D01*
X119922133Y-65107569D01*
X120046749Y-65232185D01*
X120046754Y-65232189D01*
X121716084Y-66901520D01*
X121716086Y-66901521D01*
X121716090Y-66901524D01*
X121853009Y-66980573D01*
X121853016Y-66980577D01*
X122005743Y-67021501D01*
X122005745Y-67021501D01*
X122171454Y-67021501D01*
X122171470Y-67021500D01*
X145997331Y-67021500D01*
X145997347Y-67021501D01*
X146004943Y-67021501D01*
X146163054Y-67021501D01*
X146163057Y-67021501D01*
X146315785Y-66980577D01*
X146365904Y-66951639D01*
X146452716Y-66901520D01*
X146564520Y-66789716D01*
X146564520Y-66789714D01*
X146574728Y-66779507D01*
X146574730Y-66779504D01*
X147400462Y-65953771D01*
X147461783Y-65920288D01*
X147498944Y-65917926D01*
X147623900Y-65928859D01*
X147859308Y-65908263D01*
X148087563Y-65847103D01*
X148301730Y-65747235D01*
X148495301Y-65611695D01*
X148662395Y-65444601D01*
X148797935Y-65251030D01*
X148897803Y-65036863D01*
X148958963Y-64808608D01*
X148979559Y-64573200D01*
X148958963Y-64337792D01*
X148897803Y-64109537D01*
X148797935Y-63895371D01*
X148797447Y-63894673D01*
X148662394Y-63701797D01*
X148495302Y-63534706D01*
X148495296Y-63534701D01*
X148309742Y-63404775D01*
X148266117Y-63350198D01*
X148258923Y-63280700D01*
X148290446Y-63218345D01*
X148309742Y-63201625D01*
X148433835Y-63114734D01*
X148495301Y-63071695D01*
X148662395Y-62904601D01*
X148797935Y-62711030D01*
X148897803Y-62496863D01*
X148958963Y-62268608D01*
X148979559Y-62033200D01*
X148958963Y-61797792D01*
X148898210Y-61571055D01*
X148897805Y-61569544D01*
X148897804Y-61569543D01*
X148897803Y-61569537D01*
X148797935Y-61355371D01*
X148787873Y-61341000D01*
X148662394Y-61161797D01*
X148495302Y-60994706D01*
X148495296Y-60994701D01*
X148309742Y-60864775D01*
X148266117Y-60810198D01*
X148258923Y-60740700D01*
X148290446Y-60678345D01*
X148309742Y-60661625D01*
X148386143Y-60608128D01*
X148495301Y-60531695D01*
X148662395Y-60364601D01*
X148797935Y-60171030D01*
X148897803Y-59956863D01*
X148958963Y-59728608D01*
X148979559Y-59493200D01*
X148958963Y-59257792D01*
X148897803Y-59029537D01*
X148797935Y-58815371D01*
X148778040Y-58786957D01*
X148662394Y-58621797D01*
X148495302Y-58454706D01*
X148495296Y-58454701D01*
X148309742Y-58324775D01*
X148266117Y-58270198D01*
X148258923Y-58200700D01*
X148290446Y-58138345D01*
X148309742Y-58121625D01*
X148346737Y-58095721D01*
X148495301Y-57991695D01*
X148662395Y-57824601D01*
X148797935Y-57631030D01*
X148897803Y-57416863D01*
X148958963Y-57188608D01*
X148979559Y-56953200D01*
X148958963Y-56717792D01*
X148897803Y-56489537D01*
X148797935Y-56275371D01*
X148769869Y-56235289D01*
X148662396Y-56081800D01*
X148616545Y-56035949D01*
X148540079Y-55959483D01*
X148506596Y-55898163D01*
X148511580Y-55828471D01*
X148553451Y-55772537D01*
X148584429Y-55755622D01*
X148715986Y-55706554D01*
X148715993Y-55706550D01*
X148831087Y-55620390D01*
X148831090Y-55620387D01*
X148917250Y-55505293D01*
X148917254Y-55505286D01*
X148967496Y-55370579D01*
X148967498Y-55370572D01*
X148973899Y-55311044D01*
X148973900Y-55311027D01*
X148973900Y-54663200D01*
X148056912Y-54663200D01*
X148089825Y-54606193D01*
X148123900Y-54479026D01*
X148123900Y-54347374D01*
X148089825Y-54220207D01*
X148056912Y-54163200D01*
X148973900Y-54163200D01*
X148973900Y-53515372D01*
X148973899Y-53515355D01*
X148967498Y-53455827D01*
X148967496Y-53455820D01*
X148917254Y-53321113D01*
X148917250Y-53321106D01*
X148831090Y-53206012D01*
X148831087Y-53206009D01*
X148715993Y-53119849D01*
X148715986Y-53119845D01*
X148581279Y-53069603D01*
X148581272Y-53069601D01*
X148521744Y-53063200D01*
X147873900Y-53063200D01*
X147873900Y-53980188D01*
X147816893Y-53947275D01*
X147689726Y-53913200D01*
X147558074Y-53913200D01*
X147430907Y-53947275D01*
X147373900Y-53980188D01*
X147373900Y-53063200D01*
X146726055Y-53063200D01*
X146666527Y-53069601D01*
X146666520Y-53069603D01*
X146531813Y-53119845D01*
X146531806Y-53119849D01*
X146416712Y-53206009D01*
X146416709Y-53206012D01*
X146330549Y-53321106D01*
X146330545Y-53321113D01*
X146280303Y-53455820D01*
X146280301Y-53455827D01*
X146273900Y-53515355D01*
X146273900Y-54163200D01*
X147190888Y-54163200D01*
X147157975Y-54220207D01*
X147123900Y-54347374D01*
X147123900Y-54479026D01*
X147157975Y-54606193D01*
X147190888Y-54663200D01*
X146273900Y-54663200D01*
X146273900Y-55311044D01*
X146280301Y-55370572D01*
X146280303Y-55370579D01*
X146330545Y-55505286D01*
X146330549Y-55505293D01*
X146416709Y-55620387D01*
X146416712Y-55620390D01*
X146531806Y-55706550D01*
X146531813Y-55706554D01*
X146663370Y-55755621D01*
X146719303Y-55797492D01*
X146743721Y-55862956D01*
X146728870Y-55931229D01*
X146707719Y-55959484D01*
X146585403Y-56081800D01*
X146449865Y-56275369D01*
X146449864Y-56275371D01*
X146349998Y-56489535D01*
X146349994Y-56489544D01*
X146288838Y-56717786D01*
X146288836Y-56717796D01*
X146268241Y-56953199D01*
X146268241Y-56953200D01*
X146288836Y-57188603D01*
X146288838Y-57188613D01*
X146349994Y-57416855D01*
X146349996Y-57416859D01*
X146349997Y-57416863D01*
X146435845Y-57600964D01*
X146449865Y-57631030D01*
X146449867Y-57631034D01*
X146523719Y-57736505D01*
X146577355Y-57813105D01*
X146585401Y-57824595D01*
X146585406Y-57824602D01*
X146752497Y-57991693D01*
X146752503Y-57991698D01*
X146938058Y-58121625D01*
X146981683Y-58176202D01*
X146988877Y-58245700D01*
X146957354Y-58308055D01*
X146938058Y-58324775D01*
X146752497Y-58454705D01*
X146585405Y-58621797D01*
X146449865Y-58815369D01*
X146449864Y-58815371D01*
X146349998Y-59029535D01*
X146349994Y-59029544D01*
X146288838Y-59257786D01*
X146288836Y-59257796D01*
X146268241Y-59493199D01*
X146268241Y-59493200D01*
X146288836Y-59728603D01*
X146288838Y-59728613D01*
X146349994Y-59956855D01*
X146349996Y-59956859D01*
X146349997Y-59956863D01*
X146396159Y-60055858D01*
X146398818Y-60061560D01*
X146409310Y-60130638D01*
X146380790Y-60194422D01*
X146374117Y-60201646D01*
X146010957Y-60564806D01*
X145949634Y-60598291D01*
X145937162Y-60600345D01*
X145883145Y-60606432D01*
X145712878Y-60666010D01*
X145560137Y-60761984D01*
X145432584Y-60889537D01*
X145336611Y-61042276D01*
X145277031Y-61212545D01*
X145277030Y-61212550D01*
X145256835Y-61391796D01*
X145256835Y-61391803D01*
X145277030Y-61571049D01*
X145277031Y-61571054D01*
X145336611Y-61741323D01*
X145386610Y-61820895D01*
X145432584Y-61894062D01*
X145560138Y-62021616D01*
X145712878Y-62117589D01*
X145870739Y-62172827D01*
X145883145Y-62177168D01*
X145883150Y-62177169D01*
X146062396Y-62197365D01*
X146062400Y-62197365D01*
X146062402Y-62197365D01*
X146120652Y-62190801D01*
X146157631Y-62186635D01*
X146226453Y-62198689D01*
X146277832Y-62246038D01*
X146291289Y-62277760D01*
X146292829Y-62283505D01*
X146349994Y-62496855D01*
X146349996Y-62496859D01*
X146349997Y-62496863D01*
X146410510Y-62626633D01*
X146449865Y-62711030D01*
X146449867Y-62711034D01*
X146585401Y-62904595D01*
X146585406Y-62904602D01*
X146752497Y-63071693D01*
X146752503Y-63071698D01*
X146938058Y-63201625D01*
X146981683Y-63256202D01*
X146988877Y-63325700D01*
X146957354Y-63388055D01*
X146938058Y-63404775D01*
X146752497Y-63534705D01*
X146585405Y-63701797D01*
X146449865Y-63895369D01*
X146449864Y-63895371D01*
X146349998Y-64109535D01*
X146349994Y-64109544D01*
X146288838Y-64337786D01*
X146288836Y-64337796D01*
X146268241Y-64573199D01*
X146268241Y-64573200D01*
X146288836Y-64808603D01*
X146288838Y-64808613D01*
X146349994Y-65036855D01*
X146349996Y-65036859D01*
X146349997Y-65036863D01*
X146387601Y-65117505D01*
X146398818Y-65141560D01*
X146409310Y-65210638D01*
X146380790Y-65274422D01*
X146374117Y-65281646D01*
X145871584Y-65784181D01*
X145810261Y-65817666D01*
X145783903Y-65820500D01*
X124217054Y-65820500D01*
X124150015Y-65800815D01*
X124104260Y-65748011D01*
X124094316Y-65678853D01*
X124123341Y-65615297D01*
X124182119Y-65577523D01*
X124184961Y-65576725D01*
X124209119Y-65570251D01*
X124218496Y-65567739D01*
X124424734Y-65471568D01*
X124611139Y-65341047D01*
X124772047Y-65180139D01*
X124902568Y-64993734D01*
X124998739Y-64787496D01*
X125057635Y-64567692D01*
X125077468Y-64341000D01*
X125077187Y-64337792D01*
X125066683Y-64217724D01*
X125057635Y-64114308D01*
X124998739Y-63894504D01*
X124902568Y-63688266D01*
X124772047Y-63501861D01*
X124772045Y-63501858D01*
X124611141Y-63340954D01*
X124424734Y-63210432D01*
X124424732Y-63210431D01*
X124218497Y-63114261D01*
X124218488Y-63114258D01*
X123998697Y-63055366D01*
X123998693Y-63055365D01*
X123998692Y-63055365D01*
X123998691Y-63055364D01*
X123998686Y-63055364D01*
X123772002Y-63035532D01*
X123771998Y-63035532D01*
X123545313Y-63055364D01*
X123545302Y-63055366D01*
X123325511Y-63114258D01*
X123325502Y-63114261D01*
X123119267Y-63210431D01*
X123119265Y-63210432D01*
X122932858Y-63340954D01*
X122771954Y-63501858D01*
X122641432Y-63688265D01*
X122641431Y-63688267D01*
X122545261Y-63894502D01*
X122545258Y-63894511D01*
X122486366Y-64114302D01*
X122486364Y-64114313D01*
X122466532Y-64340998D01*
X122466532Y-64341001D01*
X122486364Y-64567686D01*
X122486366Y-64567697D01*
X122545258Y-64787488D01*
X122545261Y-64787497D01*
X122641431Y-64993732D01*
X122641432Y-64993734D01*
X122771954Y-65180141D01*
X122932858Y-65341045D01*
X122932861Y-65341047D01*
X123119266Y-65471568D01*
X123325504Y-65567739D01*
X123325509Y-65567740D01*
X123325511Y-65567741D01*
X123359039Y-65576725D01*
X123418700Y-65613090D01*
X123449229Y-65675937D01*
X123440934Y-65745312D01*
X123396449Y-65799190D01*
X123329897Y-65820465D01*
X123326946Y-65820500D01*
X122384898Y-65820500D01*
X122317859Y-65800815D01*
X122297217Y-65784181D01*
X121045219Y-64532183D01*
X121011734Y-64470860D01*
X121008900Y-64444502D01*
X121008900Y-61340998D01*
X122466532Y-61340998D01*
X122466532Y-61341001D01*
X122486364Y-61567686D01*
X122486366Y-61567697D01*
X122545258Y-61787488D01*
X122545261Y-61787497D01*
X122641431Y-61993732D01*
X122641432Y-61993734D01*
X122771954Y-62180141D01*
X122932858Y-62341045D01*
X122932861Y-62341047D01*
X123119266Y-62471568D01*
X123325504Y-62567739D01*
X123545308Y-62626635D01*
X123707230Y-62640801D01*
X123771998Y-62646468D01*
X123772000Y-62646468D01*
X123772002Y-62646468D01*
X123828673Y-62641509D01*
X123998692Y-62626635D01*
X124218496Y-62567739D01*
X124424734Y-62471568D01*
X124611139Y-62341047D01*
X124772047Y-62180139D01*
X124902568Y-61993734D01*
X124998739Y-61787496D01*
X125057635Y-61567692D01*
X125077468Y-61341000D01*
X125077259Y-61338615D01*
X125066230Y-61212550D01*
X125057635Y-61114308D01*
X125007036Y-60925468D01*
X124998741Y-60894511D01*
X124998738Y-60894502D01*
X124984876Y-60864775D01*
X124902568Y-60688266D01*
X124792935Y-60531693D01*
X124772045Y-60501858D01*
X124611141Y-60340954D01*
X124424734Y-60210432D01*
X124424732Y-60210431D01*
X124218497Y-60114261D01*
X124218488Y-60114258D01*
X123998697Y-60055366D01*
X123998693Y-60055365D01*
X123998692Y-60055365D01*
X123998691Y-60055364D01*
X123998686Y-60055364D01*
X123772002Y-60035532D01*
X123771998Y-60035532D01*
X123545313Y-60055364D01*
X123545302Y-60055366D01*
X123325511Y-60114258D01*
X123325502Y-60114261D01*
X123119267Y-60210431D01*
X123119265Y-60210432D01*
X122932858Y-60340954D01*
X122771954Y-60501858D01*
X122641432Y-60688265D01*
X122641431Y-60688267D01*
X122545261Y-60894502D01*
X122545258Y-60894511D01*
X122486366Y-61114302D01*
X122486364Y-61114313D01*
X122466532Y-61340998D01*
X121008900Y-61340998D01*
X121008900Y-60532459D01*
X121008901Y-60532446D01*
X121008901Y-60364345D01*
X121008901Y-60364343D01*
X120967977Y-60211615D01*
X120921237Y-60130659D01*
X120888920Y-60074684D01*
X120777116Y-59962880D01*
X120777115Y-59962879D01*
X120772785Y-59958549D01*
X120772774Y-59958539D01*
X119699746Y-58885511D01*
X119666261Y-58824188D01*
X119668350Y-58763237D01*
X119697598Y-58662569D01*
X119697800Y-58660001D01*
X122302704Y-58660001D01*
X122302899Y-58662486D01*
X122348718Y-58820198D01*
X122432314Y-58961552D01*
X122432321Y-58961561D01*
X122548438Y-59077678D01*
X122548447Y-59077685D01*
X122689803Y-59161282D01*
X122689806Y-59161283D01*
X122847504Y-59207099D01*
X122847510Y-59207100D01*
X122884350Y-59209999D01*
X122884366Y-59210000D01*
X123375000Y-59210000D01*
X123875000Y-59210000D01*
X124365634Y-59210000D01*
X124365649Y-59209999D01*
X124402489Y-59207100D01*
X124402495Y-59207099D01*
X124560193Y-59161283D01*
X124560196Y-59161282D01*
X124701552Y-59077685D01*
X124701561Y-59077678D01*
X124817678Y-58961561D01*
X124817685Y-58961552D01*
X124901281Y-58820198D01*
X124947100Y-58662486D01*
X124947295Y-58660001D01*
X124947295Y-58660000D01*
X123875000Y-58660000D01*
X123875000Y-59210000D01*
X123375000Y-59210000D01*
X123375000Y-58660000D01*
X122302705Y-58660000D01*
X122302704Y-58660001D01*
X119697800Y-58660001D01*
X119700500Y-58625694D01*
X119700500Y-58264500D01*
X119720185Y-58197461D01*
X119772989Y-58151706D01*
X119824500Y-58140500D01*
X120463542Y-58140500D01*
X120482870Y-58136655D01*
X120560188Y-58121275D01*
X120656836Y-58102051D01*
X120737837Y-58068499D01*
X120838914Y-58026632D01*
X121002782Y-57917139D01*
X121142139Y-57777782D01*
X121142141Y-57777778D01*
X121277139Y-57642781D01*
X121386631Y-57478914D01*
X121462051Y-57296836D01*
X121500500Y-57103540D01*
X121500500Y-56906460D01*
X121500500Y-56906457D01*
X121500499Y-56906455D01*
X121484943Y-56828249D01*
X121462051Y-56713164D01*
X121386631Y-56531086D01*
X121386629Y-56531083D01*
X121386627Y-56531079D01*
X121277139Y-56367219D01*
X121277136Y-56367215D01*
X121137784Y-56227863D01*
X121137780Y-56227860D01*
X120973920Y-56118372D01*
X120973910Y-56118367D01*
X120791836Y-56042949D01*
X120791828Y-56042947D01*
X120598543Y-56004500D01*
X120598540Y-56004500D01*
X120401460Y-56004500D01*
X120401457Y-56004500D01*
X120208171Y-56042947D01*
X120208163Y-56042949D01*
X120026086Y-56118368D01*
X120025734Y-56118604D01*
X120025520Y-56118670D01*
X120020716Y-56121239D01*
X120020228Y-56120327D01*
X119959056Y-56139480D01*
X119956846Y-56139500D01*
X119824500Y-56139500D01*
X119757461Y-56119815D01*
X119711706Y-56067011D01*
X119700500Y-56015500D01*
X119700500Y-55654313D01*
X119700499Y-55654298D01*
X119699899Y-55646678D01*
X119697598Y-55617431D01*
X119692463Y-55599758D01*
X119651745Y-55459606D01*
X119651744Y-55459603D01*
X119651744Y-55459602D01*
X119568081Y-55318135D01*
X119568078Y-55318132D01*
X119563298Y-55311969D01*
X119565750Y-55310066D01*
X119539155Y-55261421D01*
X119544104Y-55191726D01*
X119564940Y-55159304D01*
X119563298Y-55158031D01*
X119568075Y-55151870D01*
X119568081Y-55151865D01*
X119651744Y-55010398D01*
X119693092Y-54868080D01*
X119697597Y-54852573D01*
X119697598Y-54852567D01*
X119700499Y-54815701D01*
X119700500Y-54815694D01*
X119700500Y-54384306D01*
X119700499Y-54384298D01*
X122299500Y-54384298D01*
X122299500Y-54815701D01*
X122302401Y-54852567D01*
X122302402Y-54852573D01*
X122348254Y-55010393D01*
X122348255Y-55010396D01*
X122348256Y-55010398D01*
X122382404Y-55068139D01*
X122431917Y-55151862D01*
X122436702Y-55158031D01*
X122434256Y-55159927D01*
X122460857Y-55208642D01*
X122455873Y-55278334D01*
X122435069Y-55310703D01*
X122436702Y-55311969D01*
X122431917Y-55318137D01*
X122348255Y-55459603D01*
X122348254Y-55459606D01*
X122302402Y-55617426D01*
X122302401Y-55617432D01*
X122299500Y-55654298D01*
X122299500Y-56085701D01*
X122302401Y-56122567D01*
X122302402Y-56122573D01*
X122348254Y-56280393D01*
X122348255Y-56280396D01*
X122431917Y-56421862D01*
X122436702Y-56428031D01*
X122434256Y-56429927D01*
X122460857Y-56478642D01*
X122455873Y-56548334D01*
X122435069Y-56580703D01*
X122436702Y-56581969D01*
X122431917Y-56588137D01*
X122348255Y-56729603D01*
X122348254Y-56729606D01*
X122302402Y-56887426D01*
X122302401Y-56887432D01*
X122299500Y-56924298D01*
X122299500Y-57355701D01*
X122302401Y-57392567D01*
X122302402Y-57392573D01*
X122348254Y-57550393D01*
X122348255Y-57550396D01*
X122348256Y-57550398D01*
X122366823Y-57581793D01*
X122431917Y-57691862D01*
X122436702Y-57698031D01*
X122434369Y-57699840D01*
X122461210Y-57748995D01*
X122456226Y-57818687D01*
X122435470Y-57851021D01*
X122437097Y-57852283D01*
X122432313Y-57858449D01*
X122348718Y-57999801D01*
X122302899Y-58157513D01*
X122302704Y-58159998D01*
X122302705Y-58160000D01*
X124947295Y-58160000D01*
X124947295Y-58159998D01*
X124947100Y-58157513D01*
X124901281Y-57999801D01*
X124858594Y-57927621D01*
X124841411Y-57859897D01*
X124863571Y-57793635D01*
X124918037Y-57749871D01*
X124965326Y-57740500D01*
X126534538Y-57740500D01*
X126601577Y-57760185D01*
X126622219Y-57776819D01*
X126745922Y-57900522D01*
X126779407Y-57961845D01*
X126774423Y-58031537D01*
X126732551Y-58087470D01*
X126719667Y-58095212D01*
X126719961Y-58095721D01*
X126715268Y-58098430D01*
X126528858Y-58228954D01*
X126367954Y-58389858D01*
X126237432Y-58576265D01*
X126237431Y-58576267D01*
X126141261Y-58782502D01*
X126141258Y-58782511D01*
X126082366Y-59002302D01*
X126082364Y-59002313D01*
X126062532Y-59228993D01*
X126062532Y-59229001D01*
X126082364Y-59455686D01*
X126082366Y-59455697D01*
X126141258Y-59675488D01*
X126141261Y-59675497D01*
X126237431Y-59881732D01*
X126237432Y-59881734D01*
X126367954Y-60068141D01*
X126528858Y-60229045D01*
X126528861Y-60229047D01*
X126715266Y-60359568D01*
X126921504Y-60455739D01*
X127141308Y-60514635D01*
X127303230Y-60528801D01*
X127367998Y-60534468D01*
X127368000Y-60534468D01*
X127368002Y-60534468D01*
X127424673Y-60529509D01*
X127594692Y-60514635D01*
X127814496Y-60455739D01*
X128020734Y-60359568D01*
X128207139Y-60229047D01*
X128368047Y-60068139D01*
X128498568Y-59881734D01*
X128498572Y-59881725D01*
X128501276Y-59877043D01*
X128503537Y-59878348D01*
X128542336Y-59834072D01*
X128609484Y-59814760D01*
X128676413Y-59834817D01*
X128696476Y-59851077D01*
X129291295Y-60445896D01*
X129324780Y-60507219D01*
X129319796Y-60576911D01*
X129277924Y-60632844D01*
X129216869Y-60656867D01*
X129205316Y-60658109D01*
X129070471Y-60708402D01*
X129070464Y-60708406D01*
X128955255Y-60794652D01*
X128955252Y-60794655D01*
X128869006Y-60909864D01*
X128869002Y-60909871D01*
X128818708Y-61044717D01*
X128812301Y-61104316D01*
X128812300Y-61104335D01*
X128812301Y-63000063D01*
X128812301Y-63000076D01*
X128818708Y-63059683D01*
X128869002Y-63194528D01*
X128869006Y-63194535D01*
X128955252Y-63309744D01*
X128955255Y-63309747D01*
X129070464Y-63395993D01*
X129070471Y-63395997D01*
X129205317Y-63446291D01*
X129205316Y-63446291D01*
X129212244Y-63447035D01*
X129264927Y-63452700D01*
X131160672Y-63452699D01*
X131220283Y-63446291D01*
X131355131Y-63395996D01*
X131470346Y-63309746D01*
X131556596Y-63194531D01*
X131585255Y-63117693D01*
X131627126Y-63061759D01*
X131692590Y-63037341D01*
X131760863Y-63052192D01*
X131792666Y-63077043D01*
X131800102Y-63085120D01*
X131801015Y-63086112D01*
X131801022Y-63086118D01*
X131984165Y-63228664D01*
X131984171Y-63228668D01*
X131984174Y-63228670D01*
X132188297Y-63339136D01*
X132302287Y-63378268D01*
X132407815Y-63414497D01*
X132407817Y-63414497D01*
X132407819Y-63414498D01*
X132636751Y-63452700D01*
X132636752Y-63452700D01*
X132868848Y-63452700D01*
X132868849Y-63452700D01*
X133097781Y-63414498D01*
X133317303Y-63339136D01*
X133521426Y-63228670D01*
X133704584Y-63086113D01*
X133861779Y-62915353D01*
X133910769Y-62840367D01*
X133963915Y-62795010D01*
X134033146Y-62785586D01*
X134096482Y-62815087D01*
X134133814Y-62874147D01*
X134133844Y-62942121D01*
X134107686Y-63034062D01*
X134107684Y-63034068D01*
X134087157Y-63255599D01*
X134087157Y-63255600D01*
X134107684Y-63477135D01*
X134107685Y-63477137D01*
X134168569Y-63691123D01*
X134168575Y-63691138D01*
X134267738Y-63890283D01*
X134267743Y-63890291D01*
X134401820Y-64067838D01*
X134566237Y-64217723D01*
X134566239Y-64217725D01*
X134755395Y-64334845D01*
X134755396Y-64334845D01*
X134755399Y-64334847D01*
X134962860Y-64415218D01*
X135181557Y-64456100D01*
X135181559Y-64456100D01*
X135404041Y-64456100D01*
X135404043Y-64456100D01*
X135622740Y-64415218D01*
X135830201Y-64334847D01*
X136019362Y-64217724D01*
X136183781Y-64067836D01*
X136317858Y-63890289D01*
X136417029Y-63691128D01*
X136477915Y-63477136D01*
X136498443Y-63255600D01*
X136495947Y-63228668D01*
X136477915Y-63034064D01*
X136477914Y-63034062D01*
X136468244Y-63000076D01*
X136417029Y-62820072D01*
X136399857Y-62785586D01*
X136317861Y-62620916D01*
X136317856Y-62620908D01*
X136183779Y-62443361D01*
X136019362Y-62293476D01*
X136019360Y-62293474D01*
X135830204Y-62176354D01*
X135830195Y-62176350D01*
X135746667Y-62143991D01*
X135622740Y-62095982D01*
X135622734Y-62095981D01*
X135621217Y-62095393D01*
X135565815Y-62052820D01*
X135542224Y-61987054D01*
X135557935Y-61918973D01*
X135607959Y-61870194D01*
X135621217Y-61864139D01*
X135622734Y-61863550D01*
X135622740Y-61863550D01*
X135830201Y-61783179D01*
X136019362Y-61666056D01*
X136183781Y-61516168D01*
X136317858Y-61338621D01*
X136417029Y-61139460D01*
X136477915Y-60925468D01*
X136498443Y-60703932D01*
X136498443Y-60703931D01*
X139167157Y-60703931D01*
X139167157Y-60703932D01*
X139187684Y-60925467D01*
X139187685Y-60925469D01*
X139248569Y-61139455D01*
X139248575Y-61139470D01*
X139347738Y-61338615D01*
X139347743Y-61338623D01*
X139481820Y-61516170D01*
X139646237Y-61666055D01*
X139646239Y-61666057D01*
X139835395Y-61783177D01*
X139835396Y-61783177D01*
X139835399Y-61783179D01*
X140042860Y-61863550D01*
X140042865Y-61863550D01*
X140044383Y-61864139D01*
X140099784Y-61906712D01*
X140123375Y-61972479D01*
X140107664Y-62040559D01*
X140057640Y-62089338D01*
X140044383Y-62095393D01*
X140042865Y-62095981D01*
X140042860Y-62095982D01*
X139873358Y-62161647D01*
X139835401Y-62176352D01*
X139835395Y-62176354D01*
X139646239Y-62293474D01*
X139646237Y-62293476D01*
X139481820Y-62443361D01*
X139347743Y-62620908D01*
X139347738Y-62620916D01*
X139248575Y-62820061D01*
X139248569Y-62820076D01*
X139187685Y-63034062D01*
X139187684Y-63034064D01*
X139167157Y-63255599D01*
X139167157Y-63255600D01*
X139187684Y-63477135D01*
X139187685Y-63477137D01*
X139248569Y-63691123D01*
X139248575Y-63691138D01*
X139347738Y-63890283D01*
X139347743Y-63890291D01*
X139481820Y-64067838D01*
X139646237Y-64217723D01*
X139646239Y-64217725D01*
X139835395Y-64334845D01*
X139835396Y-64334845D01*
X139835399Y-64334847D01*
X140042860Y-64415218D01*
X140261557Y-64456100D01*
X140261559Y-64456100D01*
X140484041Y-64456100D01*
X140484043Y-64456100D01*
X140702740Y-64415218D01*
X140910201Y-64334847D01*
X141099362Y-64217724D01*
X141263781Y-64067836D01*
X141397858Y-63890289D01*
X141497029Y-63691128D01*
X141557915Y-63477136D01*
X141578443Y-63255600D01*
X141575947Y-63228668D01*
X141557915Y-63034064D01*
X141557914Y-63034062D01*
X141548244Y-63000076D01*
X141497029Y-62820072D01*
X141479857Y-62785586D01*
X141397861Y-62620916D01*
X141397856Y-62620908D01*
X141263779Y-62443361D01*
X141099362Y-62293476D01*
X141099360Y-62293474D01*
X140910204Y-62176354D01*
X140910195Y-62176350D01*
X140826667Y-62143991D01*
X140702740Y-62095982D01*
X140702734Y-62095981D01*
X140701217Y-62095393D01*
X140645815Y-62052820D01*
X140622224Y-61987054D01*
X140637935Y-61918973D01*
X140687959Y-61870194D01*
X140701217Y-61864139D01*
X140702734Y-61863550D01*
X140702740Y-61863550D01*
X140910201Y-61783179D01*
X141099362Y-61666056D01*
X141263781Y-61516168D01*
X141397858Y-61338621D01*
X141497029Y-61139460D01*
X141557915Y-60925468D01*
X141578443Y-60703932D01*
X141576991Y-60688267D01*
X141557915Y-60482396D01*
X141557914Y-60482394D01*
X141556687Y-60478082D01*
X141497029Y-60268404D01*
X141497024Y-60268393D01*
X141397861Y-60069248D01*
X141397856Y-60069240D01*
X141263779Y-59891693D01*
X141099362Y-59741808D01*
X141099360Y-59741806D01*
X140910204Y-59624686D01*
X140910198Y-59624683D01*
X140783430Y-59575573D01*
X140702740Y-59544314D01*
X140702737Y-59544313D01*
X140700529Y-59543458D01*
X140645128Y-59500885D01*
X140621537Y-59435118D01*
X140637248Y-59367038D01*
X140687272Y-59318259D01*
X140700530Y-59312204D01*
X140909974Y-59231065D01*
X140909979Y-59231063D01*
X141099061Y-59113987D01*
X141263408Y-58964166D01*
X141397431Y-58786691D01*
X141496560Y-58587615D01*
X141549295Y-58402266D01*
X140617775Y-58402266D01*
X140652870Y-58367171D01*
X140698948Y-58287361D01*
X140722800Y-58198344D01*
X140722800Y-58106188D01*
X140698948Y-58017171D01*
X140652870Y-57937361D01*
X140587705Y-57872196D01*
X140507895Y-57826118D01*
X140418878Y-57802266D01*
X140326722Y-57802266D01*
X140237705Y-57826118D01*
X140157895Y-57872196D01*
X140092730Y-57937361D01*
X140046652Y-58017171D01*
X140022800Y-58106188D01*
X140022800Y-58198344D01*
X140046652Y-58287361D01*
X140092730Y-58367171D01*
X140127825Y-58402266D01*
X139196305Y-58402266D01*
X139249039Y-58587615D01*
X139348168Y-58786691D01*
X139482191Y-58964166D01*
X139646538Y-59113987D01*
X139835620Y-59231063D01*
X139835622Y-59231064D01*
X140045070Y-59312204D01*
X140100471Y-59354777D01*
X140124062Y-59420544D01*
X140108351Y-59488624D01*
X140058327Y-59537403D01*
X140045070Y-59543458D01*
X139835401Y-59624683D01*
X139835395Y-59624686D01*
X139646239Y-59741806D01*
X139646237Y-59741808D01*
X139481820Y-59891693D01*
X139347743Y-60069240D01*
X139347738Y-60069248D01*
X139248575Y-60268393D01*
X139248569Y-60268408D01*
X139187685Y-60482394D01*
X139187684Y-60482396D01*
X139167157Y-60703931D01*
X136498443Y-60703931D01*
X136496991Y-60688267D01*
X136477915Y-60482396D01*
X136477914Y-60482394D01*
X136476687Y-60478082D01*
X136417029Y-60268404D01*
X136417024Y-60268393D01*
X136317861Y-60069248D01*
X136317856Y-60069240D01*
X136183779Y-59891693D01*
X136019362Y-59741808D01*
X136019360Y-59741806D01*
X135830204Y-59624686D01*
X135830195Y-59624682D01*
X135737802Y-59588889D01*
X135622740Y-59544314D01*
X135622735Y-59544313D01*
X135621220Y-59543726D01*
X135565818Y-59501153D01*
X135542227Y-59435387D01*
X135557938Y-59367306D01*
X135607962Y-59318527D01*
X135621220Y-59312472D01*
X135622735Y-59311884D01*
X135622740Y-59311884D01*
X135830201Y-59231513D01*
X136019362Y-59114390D01*
X136183781Y-58964502D01*
X136317858Y-58786955D01*
X136417029Y-58587794D01*
X136477915Y-58373802D01*
X136498443Y-58152266D01*
X136493454Y-58098430D01*
X136477915Y-57930730D01*
X136477914Y-57930728D01*
X136470195Y-57903599D01*
X136469816Y-57902266D01*
X139196305Y-57902266D01*
X140122800Y-57902266D01*
X140122800Y-56978211D01*
X140122799Y-56978210D01*
X140622800Y-56978210D01*
X140622800Y-57902266D01*
X141549295Y-57902266D01*
X141496560Y-57716916D01*
X141397431Y-57517840D01*
X141263408Y-57340365D01*
X141099061Y-57190544D01*
X140909979Y-57073468D01*
X140909977Y-57073467D01*
X140699838Y-56992060D01*
X140645521Y-56950320D01*
X140634421Y-56968419D01*
X140630486Y-56971828D01*
X140622800Y-56978210D01*
X140122799Y-56978210D01*
X140115114Y-56971829D01*
X140098651Y-56947357D01*
X140059018Y-56986005D01*
X140045761Y-56992060D01*
X139835622Y-57073467D01*
X139835620Y-57073468D01*
X139646538Y-57190544D01*
X139482191Y-57340365D01*
X139348168Y-57517840D01*
X139249039Y-57716916D01*
X139196305Y-57902266D01*
X136469816Y-57902266D01*
X136417029Y-57716738D01*
X136417024Y-57716727D01*
X136317861Y-57517582D01*
X136317856Y-57517574D01*
X136183779Y-57340027D01*
X136019362Y-57190142D01*
X136019360Y-57190140D01*
X135830204Y-57073020D01*
X135830195Y-57073016D01*
X135737802Y-57037223D01*
X135622740Y-56992648D01*
X135622735Y-56992647D01*
X135621220Y-56992060D01*
X135565818Y-56949487D01*
X135542227Y-56883721D01*
X135557938Y-56815640D01*
X135607962Y-56766861D01*
X135621220Y-56760806D01*
X135622735Y-56760218D01*
X135622740Y-56760218D01*
X135830201Y-56679847D01*
X136019362Y-56562724D01*
X136183781Y-56412836D01*
X136317858Y-56235289D01*
X136417029Y-56036128D01*
X136469816Y-55850600D01*
X139196305Y-55850600D01*
X139249039Y-56035949D01*
X139348168Y-56235025D01*
X139482191Y-56412500D01*
X139646538Y-56562321D01*
X139835620Y-56679397D01*
X139835622Y-56679398D01*
X140045761Y-56760806D01*
X140100076Y-56802545D01*
X140111179Y-56784445D01*
X140115115Y-56781034D01*
X140122799Y-56774653D01*
X140622800Y-56774653D01*
X140630485Y-56781035D01*
X140646948Y-56805507D01*
X140686581Y-56766861D01*
X140699838Y-56760806D01*
X140909977Y-56679398D01*
X140909979Y-56679397D01*
X141099061Y-56562321D01*
X141263408Y-56412500D01*
X141397431Y-56235025D01*
X141496560Y-56035949D01*
X141549295Y-55850600D01*
X140622800Y-55850600D01*
X140622800Y-56774653D01*
X140122799Y-56774653D01*
X140122800Y-56774652D01*
X140122800Y-55850600D01*
X139196305Y-55850600D01*
X136469816Y-55850600D01*
X136477915Y-55822136D01*
X136498443Y-55600600D01*
X136494173Y-55554522D01*
X140022800Y-55554522D01*
X140022800Y-55646678D01*
X140046652Y-55735695D01*
X140092730Y-55815505D01*
X140157895Y-55880670D01*
X140237705Y-55926748D01*
X140326722Y-55950600D01*
X140418878Y-55950600D01*
X140507895Y-55926748D01*
X140587705Y-55880670D01*
X140652870Y-55815505D01*
X140698948Y-55735695D01*
X140722800Y-55646678D01*
X140722800Y-55554522D01*
X140698948Y-55465505D01*
X140652870Y-55385695D01*
X140617775Y-55350600D01*
X140622800Y-55350600D01*
X141549295Y-55350600D01*
X141496560Y-55165250D01*
X141397431Y-54966174D01*
X141263408Y-54788699D01*
X141099061Y-54638878D01*
X140909979Y-54521802D01*
X140909977Y-54521801D01*
X140702599Y-54441464D01*
X140622800Y-54426546D01*
X140622800Y-55350600D01*
X140617775Y-55350600D01*
X140587705Y-55320530D01*
X140507895Y-55274452D01*
X140418878Y-55250600D01*
X140326722Y-55250600D01*
X140237705Y-55274452D01*
X140157895Y-55320530D01*
X140092730Y-55385695D01*
X140046652Y-55465505D01*
X140022800Y-55554522D01*
X136494173Y-55554522D01*
X136489584Y-55505000D01*
X136477915Y-55379064D01*
X136477914Y-55379062D01*
X136475500Y-55370579D01*
X136469816Y-55350600D01*
X139196305Y-55350600D01*
X140122800Y-55350600D01*
X140122800Y-54426546D01*
X140043000Y-54441464D01*
X139835622Y-54521801D01*
X139835620Y-54521802D01*
X139646538Y-54638878D01*
X139482191Y-54788699D01*
X139348168Y-54966174D01*
X139249039Y-55165250D01*
X139196305Y-55350600D01*
X136469816Y-55350600D01*
X136417029Y-55165072D01*
X136417024Y-55165061D01*
X136317861Y-54965916D01*
X136317856Y-54965908D01*
X136183779Y-54788361D01*
X136019362Y-54638476D01*
X136019360Y-54638474D01*
X135830204Y-54521354D01*
X135830198Y-54521352D01*
X135622740Y-54440982D01*
X135404043Y-54400100D01*
X135181557Y-54400100D01*
X134962860Y-54440982D01*
X134831664Y-54491807D01*
X134755401Y-54521352D01*
X134755395Y-54521354D01*
X134566239Y-54638474D01*
X134566237Y-54638476D01*
X134401820Y-54788361D01*
X134267743Y-54965908D01*
X134267738Y-54965916D01*
X134168575Y-55165061D01*
X134168570Y-55165074D01*
X134123890Y-55322109D01*
X134086611Y-55381202D01*
X134023301Y-55410759D01*
X133954061Y-55401397D01*
X133900875Y-55356087D01*
X133900816Y-55355996D01*
X133861784Y-55296254D01*
X133861782Y-55296252D01*
X133861779Y-55296247D01*
X133704584Y-55125487D01*
X133704579Y-55125483D01*
X133704577Y-55125481D01*
X133521434Y-54982935D01*
X133521428Y-54982931D01*
X133317304Y-54872464D01*
X133317295Y-54872461D01*
X133097784Y-54797102D01*
X132907250Y-54765308D01*
X132868849Y-54758900D01*
X132636751Y-54758900D01*
X132598350Y-54765308D01*
X132407815Y-54797102D01*
X132188304Y-54872461D01*
X132188295Y-54872464D01*
X131984171Y-54982931D01*
X131984165Y-54982935D01*
X131801022Y-55125481D01*
X131801018Y-55125485D01*
X131801016Y-55125486D01*
X131801016Y-55125487D01*
X131794407Y-55132667D01*
X131792666Y-55134558D01*
X131732779Y-55170548D01*
X131662941Y-55168447D01*
X131605325Y-55128922D01*
X131585255Y-55093907D01*
X131556597Y-55017071D01*
X131556593Y-55017064D01*
X131470347Y-54901855D01*
X131470344Y-54901852D01*
X131355135Y-54815606D01*
X131355128Y-54815602D01*
X131220282Y-54765308D01*
X131220283Y-54765308D01*
X131160683Y-54758901D01*
X131160681Y-54758900D01*
X131160673Y-54758900D01*
X131160664Y-54758900D01*
X129264929Y-54758900D01*
X129264923Y-54758901D01*
X129205316Y-54765308D01*
X129070471Y-54815602D01*
X129070464Y-54815606D01*
X128955255Y-54901852D01*
X128955252Y-54901855D01*
X128869006Y-55017064D01*
X128869002Y-55017071D01*
X128818728Y-55151865D01*
X128818709Y-55151917D01*
X128817973Y-55158754D01*
X128791239Y-55223304D01*
X128733847Y-55263153D01*
X128694685Y-55269500D01*
X128465004Y-55269500D01*
X128397965Y-55249815D01*
X128352210Y-55197011D01*
X128342266Y-55127853D01*
X128366497Y-55073662D01*
X128364942Y-55072574D01*
X128413841Y-55002738D01*
X128498568Y-54881734D01*
X128594739Y-54675496D01*
X128653635Y-54455692D01*
X128673468Y-54229000D01*
X128670021Y-54189606D01*
X128661651Y-54093928D01*
X128653635Y-54002308D01*
X128594739Y-53782504D01*
X128498568Y-53576266D01*
X128368047Y-53389861D01*
X128368045Y-53389858D01*
X128207141Y-53228954D01*
X128020734Y-53098432D01*
X128020732Y-53098431D01*
X127814497Y-53002261D01*
X127814488Y-53002258D01*
X127594697Y-52943366D01*
X127594693Y-52943365D01*
X127594692Y-52943365D01*
X127594691Y-52943364D01*
X127594686Y-52943364D01*
X127368002Y-52923532D01*
X127367998Y-52923532D01*
X127141313Y-52943364D01*
X127141302Y-52943366D01*
X126921511Y-53002258D01*
X126921502Y-53002261D01*
X126715267Y-53098431D01*
X126715265Y-53098432D01*
X126528858Y-53228954D01*
X126367954Y-53389858D01*
X126237432Y-53576265D01*
X126237431Y-53576267D01*
X126141261Y-53782502D01*
X126141259Y-53782508D01*
X126107743Y-53907594D01*
X126071378Y-53967254D01*
X126008531Y-53997783D01*
X125987968Y-53999500D01*
X124820808Y-53999500D01*
X124753769Y-53979815D01*
X124733126Y-53963180D01*
X124701870Y-53931923D01*
X124701862Y-53931917D01*
X124560396Y-53848255D01*
X124560393Y-53848254D01*
X124402573Y-53802402D01*
X124402567Y-53802401D01*
X124365701Y-53799500D01*
X124365694Y-53799500D01*
X122884306Y-53799500D01*
X122884298Y-53799500D01*
X122847432Y-53802401D01*
X122847426Y-53802402D01*
X122689606Y-53848254D01*
X122689603Y-53848255D01*
X122548137Y-53931917D01*
X122548129Y-53931923D01*
X122431923Y-54048129D01*
X122431919Y-54048135D01*
X122348255Y-54189603D01*
X122348254Y-54189606D01*
X122302402Y-54347426D01*
X122302401Y-54347432D01*
X122299500Y-54384298D01*
X119700499Y-54384298D01*
X119697598Y-54347431D01*
X119697581Y-54347374D01*
X119651745Y-54189606D01*
X119651744Y-54189603D01*
X119651744Y-54189602D01*
X119568081Y-54048135D01*
X119568079Y-54048133D01*
X119568076Y-54048129D01*
X119451870Y-53931923D01*
X119451862Y-53931917D01*
X119310396Y-53848255D01*
X119310393Y-53848254D01*
X119152573Y-53802402D01*
X119152567Y-53802401D01*
X119115701Y-53799500D01*
X119115694Y-53799500D01*
X117634306Y-53799500D01*
X117634298Y-53799500D01*
X117597432Y-53802401D01*
X117597426Y-53802402D01*
X117439606Y-53848254D01*
X117439603Y-53848255D01*
X117298140Y-53931915D01*
X117298130Y-53931923D01*
X117218676Y-54011376D01*
X117178448Y-54038256D01*
X117173217Y-54040422D01*
X117173215Y-54040423D01*
X117173212Y-54040424D01*
X117173211Y-54040425D01*
X117166536Y-54044279D01*
X117159860Y-54048133D01*
X117159857Y-54048135D01*
X117036290Y-54119475D01*
X117036282Y-54119481D01*
X116924478Y-54231286D01*
X116481465Y-54674298D01*
X116420142Y-54707783D01*
X116407668Y-54709837D01*
X116320750Y-54719630D01*
X116150478Y-54779210D01*
X115997737Y-54875184D01*
X115870184Y-55002737D01*
X115774211Y-55155476D01*
X115714631Y-55325745D01*
X115714630Y-55325750D01*
X115694435Y-55504996D01*
X114400500Y-55504996D01*
X114400499Y-54093928D01*
X114394747Y-54040423D01*
X114394091Y-54034316D01*
X114343797Y-53899471D01*
X114343793Y-53899464D01*
X114257547Y-53784255D01*
X114257544Y-53784252D01*
X114142335Y-53698006D01*
X114142328Y-53698002D01*
X114007482Y-53647708D01*
X114007483Y-53647708D01*
X113947883Y-53641301D01*
X113947881Y-53641300D01*
X113947873Y-53641300D01*
X113947864Y-53641300D01*
X112052129Y-53641300D01*
X112052123Y-53641301D01*
X111992516Y-53647708D01*
X111857671Y-53698002D01*
X111857664Y-53698006D01*
X111742455Y-53784252D01*
X111742452Y-53784255D01*
X111656206Y-53899464D01*
X111656202Y-53899471D01*
X111605908Y-54034317D01*
X111604423Y-54048135D01*
X111599501Y-54093923D01*
X111599500Y-54093935D01*
X111599500Y-55989670D01*
X111599501Y-55989676D01*
X111605908Y-56049283D01*
X111656202Y-56184128D01*
X111656206Y-56184135D01*
X111742452Y-56299344D01*
X111742455Y-56299347D01*
X111857664Y-56385593D01*
X111857673Y-56385598D01*
X111937904Y-56415522D01*
X111993838Y-56457393D01*
X112018256Y-56522857D01*
X112003405Y-56591130D01*
X111985802Y-56615686D01*
X111891019Y-56718649D01*
X111764075Y-56912951D01*
X111670842Y-57125499D01*
X111613866Y-57350491D01*
X111613864Y-57350502D01*
X111594700Y-57581793D01*
X108214216Y-57581793D01*
X108041163Y-57501097D01*
X108041159Y-57501096D01*
X108041155Y-57501094D01*
X107812913Y-57439938D01*
X107812903Y-57439936D01*
X107577501Y-57419341D01*
X107577499Y-57419341D01*
X107342096Y-57439936D01*
X107342086Y-57439938D01*
X107113844Y-57501094D01*
X107113835Y-57501098D01*
X106899671Y-57600964D01*
X106899669Y-57600965D01*
X106706096Y-57736506D01*
X106665179Y-57777423D01*
X106603856Y-57810908D01*
X106534164Y-57805922D01*
X106489818Y-57777422D01*
X106448902Y-57736506D01*
X106448895Y-57736501D01*
X106420676Y-57716742D01*
X106396538Y-57699840D01*
X106255334Y-57600967D01*
X106255330Y-57600965D01*
X106255328Y-57600964D01*
X106041163Y-57501097D01*
X106041159Y-57501096D01*
X106041155Y-57501094D01*
X105812913Y-57439938D01*
X105812903Y-57439936D01*
X105577501Y-57419341D01*
X105577499Y-57419341D01*
X105342096Y-57439936D01*
X105342086Y-57439938D01*
X105113844Y-57501094D01*
X105113835Y-57501098D01*
X104899671Y-57600964D01*
X104899669Y-57600965D01*
X104706097Y-57736505D01*
X104539005Y-57903597D01*
X104403465Y-58097169D01*
X104403464Y-58097171D01*
X104303598Y-58311335D01*
X104303594Y-58311344D01*
X104242438Y-58539586D01*
X104242436Y-58539596D01*
X104221841Y-58774999D01*
X100500500Y-58774999D01*
X100500500Y-54784418D01*
X100520185Y-54717379D01*
X100572989Y-54671624D01*
X100642147Y-54661680D01*
X100705703Y-54690705D01*
X100741918Y-54744558D01*
X100753682Y-54779211D01*
X100783849Y-54868080D01*
X100914325Y-55132660D01*
X100914329Y-55132667D01*
X101078225Y-55377955D01*
X101272741Y-55599758D01*
X101494544Y-55794274D01*
X101739832Y-55958170D01*
X101739839Y-55958174D01*
X101803695Y-55989664D01*
X102004423Y-56088652D01*
X102283778Y-56183481D01*
X102573120Y-56241034D01*
X102601388Y-56242886D01*
X102867493Y-56260329D01*
X102867500Y-56260329D01*
X102867507Y-56260329D01*
X103103175Y-56244881D01*
X103161880Y-56241034D01*
X103451222Y-56183481D01*
X103730577Y-56088652D01*
X103995165Y-55958172D01*
X104240457Y-55794273D01*
X104462258Y-55599758D01*
X104656773Y-55377957D01*
X104820672Y-55132665D01*
X104951152Y-54868077D01*
X105045981Y-54588722D01*
X105103534Y-54299380D01*
X105112460Y-54163200D01*
X105122829Y-54005007D01*
X105122829Y-54004992D01*
X105103535Y-53710636D01*
X105103534Y-53710620D01*
X105045981Y-53421278D01*
X104951152Y-53141923D01*
X104820672Y-52877336D01*
X104656773Y-52632043D01*
X104614155Y-52583447D01*
X104462258Y-52410241D01*
X104240455Y-52215725D01*
X103995167Y-52051829D01*
X103995160Y-52051825D01*
X103730580Y-51921349D01*
X103451230Y-51826521D01*
X103451224Y-51826519D01*
X103451222Y-51826519D01*
X103161880Y-51768966D01*
X103161873Y-51768965D01*
X103161863Y-51768964D01*
X102867507Y-51749671D01*
X102867493Y-51749671D01*
X102573136Y-51768964D01*
X102573124Y-51768965D01*
X102573120Y-51768966D01*
X102573112Y-51768967D01*
X102573109Y-51768968D01*
X102283783Y-51826518D01*
X102283769Y-51826521D01*
X102004419Y-51921349D01*
X101739834Y-52051828D01*
X101494541Y-52215728D01*
X101272741Y-52410241D01*
X101078228Y-52632041D01*
X100914328Y-52877334D01*
X100783849Y-53141919D01*
X100741919Y-53265440D01*
X100701730Y-53322594D01*
X100637021Y-53348947D01*
X100568336Y-53336132D01*
X100517483Y-53288218D01*
X100500500Y-53225581D01*
X100500500Y-50624500D01*
X100520185Y-50557461D01*
X100572989Y-50511706D01*
X100624500Y-50500500D01*
X149375500Y-50500500D01*
X149442539Y-50520185D01*
G37*
G04 #@! TD.AperFunction*
M02*
